elamicon.sfdir
StartChar: Separator
Encoding: 57344 57344 0
Width: 522
VWidth: 0
Flags: HW
VStem: 205 113<-203 1849>
LayerCount: 3
Back
SplineSet
0 -202.752 m 25
 0 1849.34 l 29
EndSplineSet
Fore
SplineSet
317 -203 m 1
 205 -203 l 1
 205 1849 l 1
 317 1849 l 1
 317 -203 l 1
EndSplineSet
EndChar
StartChar: pfeil
Encoding: 57344 57344 0
Width: 1000
VWidth: 0
Flags: W
VStem: 87 70<62 493> 849 70<62 495>
LayerCount: 2
Fore
SplineSet
513 764 m 1
 153 493 l 1
 157 62 l 1
 227 115 388 233 500 316 c 1
 614 233 778 114 849 62 c 1
 853 495 l 1
 513 764 l 1
513 834 m 1
 888 537 l 1
 924 502 l 1
 919 0 l 1
 884 -35 l 1
 865 -20 642 142 500 246 c 1
 362 143 148 -14 123 -34 c 1
 122 -35 l 1
 87 0 l 1
 82.6445 502 l 1
 118 537.354 l 1
 513 834 l 1
EndSplineSet
Validated: 524289
EndChar
StartChar: dreieck
Encoding: 57345 57345 2
Width: 1000
VWidth: 0
Flags: W
HStem: 362.645 70.3555<169.655 826.812>
LayerCount: 2
Fore
SplineSet
500 433 m 1
 900 431.355 l 1
 935.355 396 l 1
 900 360.645 l 1
 488 -35.3555 l 1
 452.645 0 l 1
 64.6445 396 l 1
 100 431.355 l 1
 500 433 l 1
500 362.645 m 1
 169.655 360.993 l 1
 488.368 35.709 l 1
 826.812 361.011 l 1
 500 362.645 l 1
EndSplineSet
Validated: 524289
EndChar
StartChar: uniE001
Encoding: 57345 57345 1
Width: 522
VWidth: 0
Flags: HW
HStem: 0 43G<205 317>
VStem: 205 113<0 680 958 1638>
LayerCount: 3
Back
SplineSet
260.096 0 m 21
 260.096 679.936 l 13
260.096 1638.4 m 21
 260.096 958.464 l 13
EndSplineSet
Fore
SplineSet
205 1638 m 1
 317 1638 l 1
 317 958 l 1
 205 958 l 1
 205 1638 l 1
317 0 m 1
 205 0 l 1
 205 680 l 1
 317 680 l 1
 317 0 l 1
EndSplineSet
EndChar
StartChar: uniE002
Encoding: 57346 57346 18
Width: 845
VWidth: 0
Flags: HW
HStem: 0 43G<205 317 528 641>
VStem: 205 113<0 1638> 528 113<0 680 958 1638>
LayerCount: 3
Fore
SplineSet
528 1638 m 1
 641 1638 l 1
 641 958 l 1
 528 958 l 1
 528 1638 l 1
641 0 m 1
 528 0 l 1
 528 680 l 1
 641 680 l 1
 641 0 l 1
317 0 m 1
 205 0 l 1
 205 1638 l 1
 317 1638 l 1
 317 0 l 1
EndSplineSet
EndChar
StartChar: uniE003
Encoding: 57347 57347 39
Width: 413
VWidth: 0
Flags: W
HStem: 0 21G<100 155 258 313>
VStem: 100 55<0 800> 258 55<0 800>
LayerCount: 2
Back
SplineSet
285.25 800 m 29
 285.25 0 l 29
127.25 800 m 29
 127.25 0 l 29
EndSplineSet
Fore
SplineSet
258 800 m 1
 313 800 l 1
 313 0 l 1
 258 0 l 1
 258 800 l 1
100 800 m 1
 155 800 l 1
 155 0 l 1
 100 0 l 1
 100 800 l 1
EndSplineSet
Validated: 1
EndChar
StartChar: uniE004
Encoding: 57348 57348 261
Width: 844
VWidth: 0
Flags: HW
LayerCount: 3
Back
SplineSet
260 1311 m 25
 260 302 l 25
584 0 m 17
 584 680 l 9
584 1638 m 17
 584 958 l 9
EndSplineSet
Fore
SplineSet
529 1638 m 1
 639 1638 l 1
 639 958 l 1
 529 958 l 1
 529 1638 l 1
639 0 m 1
 529 0 l 1
 529 680 l 1
 639 680 l 1
 639 0 l 1
205 1311 m 1
 315 1311 l 1
 315 302 l 1
 205 302 l 1
 205 1311 l 1
EndSplineSet
EndChar
StartChar: uniE005
Encoding: 57349 57349 251
Width: 520
VWidth: -205
Flags: HW
LayerCount: 3
Back
SplineSet
260 1433 m 25
 260 -205 l 25
EndSplineSet
Fore
SplineSet
205 1433 m 1
 315 1433 l 1
 315 -205 l 1
 205 -205 l 1
 205 1433 l 1
EndSplineSet
EndChar
StartChar: uniE008
Encoding: 57352 57352 3
Width: 913
VWidth: 0
Flags: W
HStem: 507 50<155 404 509 758>
VStem: 100 55<180 507> 758 55<180 507>
LayerCount: 2
Back
SplineSet
463.075 356 m 29
 327.787 100 l 29
 194.475 356 l 29
657.612 100 m 29
 657.612 532 l 29
 328.775 532 l 29
 657.612 100 l 29
-0.0625 100 m 29
 -0.0625 532 l 29
 328.775 532 l 29
 -0.0625 100 l 29
EndSplineSet
Fore
SplineSet
100 100 m 2
 100 532 l 2
 100 546 113 557 128 557 c 2
 457 557 l 1
 786 557 l 2
 800 557 813 546 813 532 c 2
 813 100 l 2
 813 92 809 84 801 79 c 0
 797 76 791 75 786 75 c 0
 777 75 768 79 763 86 c 2
 595 306 l 1
 480 89 l 2
 476 80 465 75 455 75 c 0
 451 75 447 76 444 77 c 0
 438 80 433 85 431 89 c 2
 318 306 l 1
 150 86 l 2
 145 79 136 75 127 75 c 0
 122 75 116 76 112 79 c 0
 104 84 100 94 100 100 c 2
155 180 m 1
 404 507 l 1
 155 507 l 1
 155 180 l 1
758 180 m 1
 758 507 l 1
 509 507 l 1
 758 180 l 1
457 488 m 1
 354 353 l 1
 456 158 l 1
 559 353 l 1
 457 488 l 1
EndSplineSet
EndChar
StartChar: uniE009
Encoding: 57353 57353 3
Width: 1859
VWidth: -205
Flags: HW
HStem: 563 102<313 557 680 1176 1298 1542> 981 102<313 1542>
VStem: 201 113<188 563 665 981> 1542 113<188 563 665 981>
LayerCount: 3
Back
SplineSet
1597.44 614.2 m 29
 260.096 614.2 l 29
926.133 -0.200195 m 29
 619.52 559.928 l 29
 257.921 -0.200195 l 13
 257.921 1031.99 l 29
 926.72 1031.99 l 29
 1597.57 1031.99 l 29
 1597.57 -0.200195 l 21
 1235.97 559.928 l 29
 926.133 -0.200195 l 29
927.308 -0.200195 m 29
  Spiro
    927.308 -0.2 {
    617.472 559.928 v
    1238.02 559.928 v
    0 0 z
  EndSpiro
EndSplineSet
Fore
SplineSet
877 -23 m 2
 616 452 l 1
 307 -27 l 2
 297 -43 276 -51 258 -51 c 0
 248 -51 237 -49 229 -45 c 0
 211 -35 201 -14 201 0 c 2
 201 1032 l 2
 201 1061 227 1083 258 1083 c 2
 1597 1083 l 2
 1628 1083 1655 1061 1655 1032 c 2
 1655 0 l 2
 1655 -29 1628 -51 1597 -51 c 0
 1577 -51 1556 -39 1548 -27 c 2
 1239 452 l 1
 977 -23 l 2
 967 -41 946 -51 926 -51 c 0
 918 -51 909 -49 901 -45 c 0
 889 -39 879 -29 877 -23 c 2
1542 665 m 1
 1542 981 l 1
 313 981 l 1
 313 665 l 1
 1542 665 l 1
1176 563 m 1
 680 563 l 1
 926 114 l 1
 1176 563 l 1
1298 563 m 1
 1542 188 l 1
 1542 563 l 1
 1298 563 l 1
313 563 m 1
 313 188 l 1
 557 563 l 1
 313 563 l 1
EndSplineSet
EndChar
StartChar: uniE00A
Encoding: 57354 57354 150
Width: 1456
VWidth: -205
Flags: HW
HStem: 563 102<315 621 836 1139> 981 102<315 1139>
VStem: 205 111<164 563 665 981> 1139 113<164 563 665 981>
LayerCount: 3
Back
SplineSet
1194.32 614.2 m 29
 261.523 614.2 l 29
727.208 614.2 m 29
 260.096 -0.200195 l 13
 260.096 1031.99 l 29
 1194.32 1031.99 l 13
 1194.32 -0.200195 l 21
 727.208 614.2 l 29
924.34 356.152 m 5
 725.78 -0.200195 l 13
 531.507 356.152 l 29
727.208 -0.200195 m 29
EndSplineSet
Fore
SplineSet
932 256 m 1
 776 -23 l 2
 766 -41 745 -51 725 -51 c 0
 717 -51 708 -49 700 -45 c 0
 690 -39 678 -27 676 -23 c 2
 524 256 l 1
 307 -29 l 2
 295 -43 276 -51 258 -51 c 0
 248 -51 235 -49 227 -43 c 0
 211 -33 205 -12 205 0 c 2
 205 1032 l 2
 205 1061 229 1083 260 1083 c 2
 1194 1083 l 2
 1225 1083 1251 1061 1251 1032 c 2
 1251 0 l 2
 1251 -29 1225 -51 1194 -51 c 0
 1174 -51 1157 -39 1149 -29 c 2
 932 256 l 1
858 352 m 1
 727 524 l 1
 596 352 l 1
 727 114 l 1
 858 352 l 1
1139 665 m 1
 1139 981 l 1
 315 981 l 1
 315 665 l 1
 1139 665 l 1
836 563 m 1
 1139 164 l 1
 1139 563 l 1
 836 563 l 1
315 563 m 1
 315 164 l 1
 621 563 l 1
 315 563 l 1
EndSplineSet
EndChar
StartChar: uniE00B
Encoding: 57355 57355 167
Width: 690
VWidth: 0
Flags: W
HStem: 361 50<154 282 407 534> 581 50<189 500>
VStem: 100 54<229 361 411 541> 534 56<229 361 411 541>
LayerCount: 2
Back
SplineSet
562 386 m 17
 128 386 l 1
127 606 m 9
 562 164 l 9
 562 606 l 17
 127 606 l 25
 127 164 l 17
 562 606 l 1
443 286 m 1
 346 98 l 9
 251 286 l 25
EndSplineSet
Fore
SplineSet
344 422 m 1
 500 581 l 1
 189 581 l 1
 344 422 l 1
450 240 m 1
 371 87 l 2
 367 78 357 73 346 73 c 0
 342 73 338 73 334 75 c 0
 328 78 324 83 321 88 c 2
 242 244 l 1
 147 147 l 2
 143 142 135 139 127 139 c 0
 112 139 100 150 100 164 c 2
 100 606 l 2
 100 620 112 631 127 631 c 2
 562 631 l 2
 577 631 590 620 590 606 c 2
 590 164 l 2
 590 158 586 150 580 145 c 0
 575 141 568 139 562 139 c 0
 555 139 547 142 542 147 c 2
 450 240 l 1
410 281 m 1
 344 348 l 1
 282 284 l 1
 346 157 l 1
 410 281 l 1
534 411 m 1
 534 541 l 1
 407 411 l 1
 534 411 l 1
154 411 m 1
 282 411 l 1
 154 541 l 1
 154 411 l 1
405 361 m 1
 534 229 l 1
 534 361 l 1
 405 361 l 1
154 361 m 1
 154 229 l 1
 284 361 l 1
 154 361 l 1
EndSplineSet
EndChar
StartChar: uniE00C
Encoding: 57356 57356 160
Width: 1456
VWidth: -205
Flags: HW
HStem: 563 102<315 420 539 698 836 1139> 981 102<315 1139>
VStem: 205 111<184 563 665 981> 1139 113<164 563 665 981>
LayerCount: 3
Back
SplineSet
1194.32 614.2 m 25
 261.523 614.2 l 25
536.576 417.592 m 1
 260.096 -0.200195 l 9
 260.096 1031.99 l 25
 1194.32 1031.99 l 9
 1194.32 -0.200195 l 17
 727.208 614.2 l 17
880.64 409.4 m 1
 483.328 -73.9277 l 1
753.664 -135.368 m 9
 458.752 614.2 l 25
EndSplineSet
Fore
SplineSet
807 -119 m 1
 700 -152 l 1
 633 22 l 1
 528 -105 l 1
 438 -43 l 1
 586 137 l 1
 524 299 l 1
 309 -27 l 2
 299 -43 278 -51 260 -51 c 0
 250 -51 239 -47 231 -43 c 0
 213 -33 205 -12 205 0 c 2
 205 1032 l 2
 205 1061 229 1083 260 1083 c 2
 1194 1083 l 2
 1225 1083 1251 1061 1251 1032 c 2
 1251 0 l 2
 1251 -29 1225 -51 1194 -51 c 0
 1174 -51 1157 -39 1149 -29 c 2
 881 323 l 1
 713 121 l 1
 807 -119 l 1
668 235 m 1
 813 411 l 1
 698 563 l 1
 539 563 l 1
 668 235 l 1
475 424 m 1
 420 563 l 1
 315 563 l 1
 315 184 l 1
 475 424 l 1
1139 665 m 1
 1139 981 l 1
 315 981 l 1
 315 665 l 1
 1139 665 l 1
836 563 m 1
 1139 164 l 1
 1139 563 l 1
 836 563 l 1
EndSplineSet
EndChar
StartChar: uniE00D
Encoding: 57357 57357 152
Width: 1273
VWidth: -205
Flags: HW
HStem: 563 102<326 545 735 944> 1184 102<367 920>
VStem: 209 117<2 565 667 1034> 944 106<-2 563 665 1024> 946 119<-2 563 665 1024>
LayerCount: 3
Back
SplineSet
994.175 -2.63965 m 5
 1009.66 1234.74 l 13
272.384 1234.74 m 21
 265.867 2.12891 l 5
835.584 284.472 m 13
 641.024 1.84766 l 29
 442.368 282.424 l 21
 1013.54 1236.44 l 5
 766.589 1235.53 519.637 1234.17 272.683 1234.4 c 5
 835.584 284.472 l 13
999.424 614.2 m 29
 261.454 615.556 l 29
EndSplineSet
Fore
SplineSet
641 721 m 1xe0
 920 1186 l 1
 734 1186 547 1184 367 1184 c 1
 641 721 l 1xe0
641 506 m 1
 508 284 l 1
 641 98 l 1
 770 287 l 1
 641 506 l 1
264 1286 m 2
 266 1286 270 1286 272 1286 c 0
 518 1286 766 1288 1014 1288 c 0
 1022 1288 1032 1286 1040 1282 c 0
 1058 1274 1069 1255 1069 1237 c 0
 1069 1231 1067 1222 1065 1216 c 1xe8
 1051 -2 l 1
 938 -2 l 1
 944 563 l 1xf0
 735 563 l 1
 885 309 l 2
 895 293 891 272 883 258 c 2
 688 -25 l 2
 678 -41 659 -49 641 -49 c 0
 631 -49 620 -45 610 -41 c 0
 604 -37 596 -31 594 -27 c 2
 395 254 l 2
 383 270 385 293 393 307 c 2
 547 563 l 1
 326 565 l 1
 322 2 l 1
 209 2 l 1
 217 1235 l 1
 217 1237 219 1245 219 1249 c 0
 223 1257 227 1268 233 1272 c 0
 235 1274 264 1286 264 1286 c 2
545 665 m 1
 328 1034 l 1
 328 911 326 790 326 667 c 1
 545 665 l 1
735 665 m 1
 946 665 l 1
 950 1024 l 1
 735 665 l 1
EndSplineSet
EndChar
StartChar: uniE00E
Encoding: 57358 57358 353
Width: 1384
VWidth: -205
Flags: HW
LayerCount: 3
Back
SplineSet
260 1081 m 4
 260 1039 292 1005 331 1005 c 4
 370 1005 401 1039 401 1081 c 4
 401 1123 370 1157 331 1157 c 4
 292 1157 260 1123 260 1081 c 4
260 147 m 4
 260 189 292 223 331 223 c 4
 370 223 401 189 401 147 c 4
 401 105 370 71 331 71 c 4
 292 71 260 105 260 147 c 4
260 147 m 4
 260 189 292 223 331 223 c 4
 370 223 401 189 401 147 c 4
 401 105 370 71 331 71 c 4
 292 71 260 105 260 147 c 4
1122 1081 m 4
 1122 1039 1091 1005 1052 1005 c 4
 1013 1005 981 1039 981 1081 c 4
 981 1123 1013 1157 1052 1157 c 4
 1091 1157 1122 1123 1122 1081 c 4
1122 1081 m 4
 1122 1039 1091 1005 1052 1005 c 4
 1013 1005 981 1039 981 1081 c 4
 981 1123 1013 1157 1052 1157 c 4
 1091 1157 1122 1123 1122 1081 c 4
1122 147 m 4
 1122 189 1091 223 1052 223 c 4
 1013 223 981 189 981 147 c 4
 981 105 1013 71 1052 71 c 4
 1091 71 1122 105 1122 147 c 4
1122 147 m 4
 1122 189 1091 223 1052 223 c 4
 1013 223 981 189 981 147 c 4
 981 105 1013 71 1052 71 c 4
 1091 71 1122 105 1122 147 c 4
622 -205 m 4
 622 -163 653 -129 692 -129 c 4
 731 -129 763 -163 763 -205 c 4
 763 -247 731 -281 692 -281 c 4
 653 -281 622 -247 622 -205 c 4
620 1433 m 4
 620 1475 651 1509 690 1509 c 4
 729 1509 761 1475 761 1433 c 4
 761 1391 729 1358 690 1358 c 4
 651 1358 620 1391 620 1433 c 4
691 -205 m 29
 691 1433 l 29
622 -205 m 4
 622 -163 653 -129 692 -129 c 4
 731 -129 763 -163 763 -205 c 4
 763 -247 731 -281 692 -281 c 4
 653 -281 622 -247 622 -205 c 4
620 1433 m 4
 620 1475 651 1509 690 1509 c 4
 729 1509 761 1475 761 1433 c 4
 761 1391 729 1358 690 1358 c 4
 651 1358 620 1391 620 1433 c 4
691 -205 m 29
 691 1433 l 29
EndSplineSet
Fore
SplineSet
205 1081 m 0
 205 1144 254 1207 331 1207 c 0
 409 1207 456 1143 456 1081 c 0
 456 1019 409 955 331 955 c 0
 254 955 205 1018 205 1081 c 0
636 1320 m 1
 591 1341 565 1387 565 1433 c 0
 565 1495 612 1559 690 1559 c 0
 767 1559 816 1496 816 1433 c 0
 816 1387 790 1342 746 1321 c 1
 746 -91 l 1
 791 -112 818 -159 818 -205 c 0
 818 -268 769 -331 692 -331 c 0
 614 -331 567 -267 567 -205 c 0
 567 -160 592 -114 636 -92 c 1
 636 1320 l 1
1052 273 m 0
 1130 273 1177 209 1177 147 c 0
 1177 85 1130 21 1052 21 c 0
 975 21 926 84 926 147 c 0
 926 210 975 273 1052 273 c 0
1052 1207 m 0
 1130 1207 1177 1143 1177 1081 c 0
 1177 1019 1130 955 1052 955 c 0
 975 955 926 1018 926 1081 c 0
 926 1144 975 1207 1052 1207 c 0
331 21 m 0
 254 21 205 84 205 147 c 0
 205 210 254 273 331 273 c 0
 409 273 456 209 456 147 c 0
 456 85 409 21 331 21 c 0
EndSplineSet
EndChar
StartChar: uniE00F
Encoding: 57359 57359 163
Width: 1273
VWidth: 0
Flags: HW
HStem: 156 102<356 899> 768 102<326 539 729 944> 1389 102<367 918>
VStem: 209 113<414 770 872 1237> 944 104<408 768 870 1233> 946 119<408 768 870 1233>
LayerCount: 3
Back
SplineSet
991.94 206.657 m 29
 1009.66 1439.74 l 29
272.384 1435.65 m 29
 264.192 202.752 l 29
272.683 1439.4 m 21
 519.637 1439.17 766.589 1440.53 1013.54 1441.44 c 13
 260.438 206.674 l 29
 991.94 206.657 l 13
 272.683 1439.4 l 21
999.424 819.2 m 29
 261.454 820.556 l 29
EndSplineSet
Fore
SplineSet
633 713 m 1xf0
 356 258 l 1
 899 258 l 1
 633 713 l 1xf0
635 928 m 1
 918 1391 l 1
 738 1391 551 1389 367 1389 c 1
 635 928 l 1
539 768 m 1
 324 770 l 1
 322 414 l 1
 539 768 l 1
727 768 m 1
 938 408 l 1
 940 529 942 647 944 768 c 1xf8
 727 768 l 1
729 870 m 1
 946 870 l 1xf4
 950 1233 l 1
 729 870 l 1
541 870 m 1
 328 1237 l 1
 326 872 l 1
 541 870 l 1
209 225 m 1
 217 1436 l 1
 215 1456 226 1475 246 1485 c 0
 254 1489 268 1491 272 1491 c 0
 290 1491 312 1491 330 1491 c 0
 557 1491 787 1493 1014 1493 c 0
 1045 1493 1069 1471 1069 1442 c 0
 1069 1436 1067 1429 1065 1423 c 1xf4
 1049 207 l 1xf8
 1049 180 1022 156 991 156 c 2
 260 156 l 2
 252 156 241 158 233 162 c 0
 215 172 205 189 205 207 c 0
 205 213 207 219 209 225 c 1
EndSplineSet
EndChar
StartChar: uniE010
Encoding: 57360 57360 5
Width: 954
VWidth: 0
Flags: W
VStem: 205.25 114<22.0606 105.391> 635.25 114<23.708 105.483>
LayerCount: 2
Fore
SplineSet
305.25 106 m 1
 315.25 93 319.25 81 319.25 67 c 0
 319.25 39 298.25 9 262.25 9 c 0
 224.25 9 205.25 43 205.25 69 c 0
 205.25 84 211.25 98 221.25 108 c 1
 105.25 251 l 2
 97.25 260 99.25 274 106.25 281 c 2
 455.25 680 l 2
 460.25 686 468.25 689 476.25 689 c 0
 484.25 689 492.25 686 498.25 680 c 2
 848.25 281 l 2
 856.25 272 855.25 258 849.25 251 c 2
 733.25 108 l 1
 743.25 97 749.25 83 749.25 69 c 0
 749.25 41 727.25 11 692.25 11 c 0
 656.25 11 635.25 41 635.25 69 c 0
 635.25 82 639.25 95 648.25 106 c 1
 476.25 277 l 1
 305.25 106 l 1
265.25 139 m 1
 455.25 330 l 2
 460.25 335 468.25 338 477.25 338 c 0
 484.25 338 491.25 336 496.25 331 c 2
 689.25 139 l 1
 792.25 265 l 1
 477.25 625 l 1
 162.25 265 l 1
 265.25 139 l 1
EndSplineSet
EndChar
StartChar: uniE011
Encoding: 57361 57361 214
Width: 1930
VWidth: 0
Flags: HW
LayerCount: 3
Back
SplineSet
591 1638 m 25
 963 1348 l 25
640 506 m 25
 837 571 l 17
 717 205 l 9
 252 818 l 25
 963 1348 l 25
 1671 816 l 25
 1178 205 l 25
 1058 572 l 25
 1249 504 l 25
EndSplineSet
Fore
SplineSet
659 459 m 1
 621 553 l 1
 818 618 l 2
 824 620 830 621 836 621 c 0
 859 621 881 608 889 588 c 0
 893 578 892 562 890 557 c 2
 770 191 l 2
 763 170 740 155 716 155 c 0
 711 155 706 156 701 157 c 0
 689 160 678 170 672 177 c 2
 207 790 l 2
 201 798 198 808 198 818 c 0
 198 833 204 847 217 857 c 2
 877 1349 l 1
 555 1600 l 1
 627 1676 l 1
 998 1386 l 1
 1706 855 l 2
 1719 845 1725 830 1725 816 c 0
 1725 805 1722 794 1715 786 c 2
 1222 175 l 2
 1211 162 1195 155 1178 155 c 0
 1166 155 1155 158 1145 165 c 0
 1135 172 1127 185 1125 191 c 2
 1005 558 l 2
 1003 563 1003 567 1003 572 c 0
 1003 593 1018 613 1042 620 c 0
 1054 623 1070 622 1078 619 c 2
 1269 551 l 1
 1229 457 l 1
 1143 488 l 1
 1199 316 l 1
 1596 808 l 1
 963 1283 l 1
 326 809 l 1
 697 319 l 1
 753 490 l 1
 659 459 l 1
EndSplineSet
EndChar
StartChar: uniE017
Encoding: 57367 57367 333
Width: 896
VWidth: -205
Flags: HW
LayerCount: 3
Back
SplineSet
636 1433.4 m 29
 636 -205 l 29
329 1432.4 m 29
 329 -206 l 29
260 615 m 4
 260 657 291 690 330 690 c 4
 369 690 401 657 401 615 c 4
 401 573 369 539 330 539 c 4
 291 539 260 573 260 615 c 4
EndSplineSet
Fore
SplineSet
274 1432 m 1
 384 1432 l 1
 384 728 l 1
 429 707 456 662 456 615 c 0
 456 569 429 522 384 501 c 1
 384 -206 l 1
 274 -206 l 1
 274 502 l 1
 230 524 205 570 205 615 c 0
 205 660 231 706 274 727 c 1
 274 1432 l 1
581 1433 m 1
 691 1433 l 1
 691 -205 l 1
 581 -205 l 1
 581 1433 l 1
EndSplineSet
EndChar
StartChar: uniE018
Encoding: 57368 57368 5
Width: 520
VWidth: 0
Flags: HMW
LayerCount: 2
Back
SplineSet
403 800 m 29
 403 0 l 29
 403 800 l 29
229.375 400.167 m 0
 229.375 420.591 244.831 437.167 263.875 437.167 c 0
 282.919 437.167 298.375 420.591 298.375 400.167 c 0
 298.375 379.743 282.919 363.167 263.875 363.167 c 0
 244.831 363.167 229.375 379.743 229.375 400.167 c 0
126 800 m 25
 126 0 l 25
 126 800 l 25
264 800 m 25
 264 0 l 25
 264 800 l 25
EndSplineSet
Fore
SplineSet
236 800 m 1
 255 800 273 800 292 800 c 1
 292 456 l 1
 314 445 326 422 326 400 c 0
 326 378 314 355 292 344 c 1
 292 0 l 1
 236 0 l 1
 236 344 l 1
 214 355 202 378 202 400 c 0
 202 422 214 445 236 456 c 1
 236 800 l 1
98 800 m 1
 117 800 135 800 154 800 c 1
 154 0 l 1
 98 0 l 1
 98 800 l 1
376 800 m 1
 394 800 412 800 430 800 c 1
 430 0 l 1
 376 0 l 1
 376 800 l 1
EndSplineSet
Validated: 1
EndChar
StartChar: uniE019
Encoding: 57369 57369 233
Width: 1281
VWidth: -205
Flags: HMW
VStem: 206 252<-96.184 93.297 1139.7 1329.78> 276 110<77.098 1157> 519 251<-94.777 95.297 1140.7 1330.78> 589 110<78.001 1158> 824 252<-96.184 93.297 1139.7 1329.78> 894 110<77.098 1157>
LayerCount: 3
Back
SplineSet
898.367 -1.66016 m 0
 898.367 40.168 930.021 74.1162 969.023 74.1162 c 0
 1008.03 74.1162 1039.68 40.168 1039.68 -1.66016 c 0
 1039.68 -43.4883 1008.03 -77.4365 969.023 -77.4365 c 0
 930.021 -77.4365 898.367 -43.4883 898.367 -1.66016 c 0
898.319 1234.74 m 0
 898.319 1276.57 929.974 1310.52 968.976 1310.52 c 0
 1007.98 1310.52 1039.63 1276.57 1039.63 1234.74 c 0
 1039.63 1192.91 1007.98 1158.96 968.976 1158.96 c 0
 929.974 1158.96 898.319 1192.91 898.319 1234.74 c 0
968 -1.66016 m 25
 970 1234.74 l 25
280.367 -1.66016 m 0
 280.367 40.168 312.021 74.1162 351.023 74.1162 c 0
 390.025 74.1162 421.68 40.168 421.68 -1.66016 c 0
 421.68 -43.4883 390.025 -77.4365 351.023 -77.4365 c 0
 312.021 -77.4365 280.367 -43.4883 280.367 -1.66016 c 0
280.319 1234.74 m 0
 280.319 1276.57 311.974 1310.52 350.976 1310.52 c 0
 389.978 1310.52 421.632 1276.57 421.632 1234.74 c 0
 421.632 1192.91 389.978 1158.96 350.976 1158.96 c 0
 311.974 1158.96 280.319 1192.91 280.319 1234.74 c 0
350 -1.66016 m 25
 352 1234.74 l 25
593.096 0 m 0
 593.096 41.8281 624.75 75.7764 663.752 75.7764 c 0
 702.754 75.7764 734.408 41.8281 734.408 0 c 0
 734.408 -41.8281 702.754 -75.7764 663.752 -75.7764 c 0
 624.75 -75.7764 593.096 -41.8281 593.096 0 c 0
593.048 1236.4 m 0
 593.048 1278.23 624.702 1312.18 663.704 1312.18 c 0
 702.706 1312.18 734.36 1278.23 734.36 1236.4 c 0
 734.36 1194.57 702.706 1160.62 663.704 1160.62 c 0
 624.702 1160.62 593.048 1194.57 593.048 1236.4 c 0
662.729 0 m 25
 664.729 1236.4 l 25
EndSplineSet
Fore
SplineSet
518 1236 m 4x10
 518 1298 567 1362 644 1362 c 4
 721 1362 769 1298 769 1236 c 4
 769 1190 744 1145 700 1123 c 5
 699 114 l 1x10
 744 93 770 46 770 0 c 0
 770 -62 722 -126 645 -126 c 0
 568 -126 519 -62 519 0 c 0x20
 519 46 545 91 589 113 c 1
 590 1122 l 5
 545 1143 518 1190 518 1236 c 4x10
205 1235 m 4
 205 1297 254 1361 331 1361 c 4
 408 1361 457 1297 457 1235 c 4
 457 1189 431 1144 387 1122 c 5
 386 112 l 1x40
 431 91 458 44 458 -2 c 0
 458 -64 409 -127 332 -127 c 0
 255 -127 206 -64 206 -2 c 0x80
 206 44 232 90 276 112 c 1x40
 277 1121 l 5
 232 1142 205 1189 205 1235 c 4
823 1235 m 4
 823 1297 872 1361 949 1361 c 4
 1026 1361 1075 1297 1075 1235 c 4
 1075 1189 1049 1144 1005 1122 c 5
 1004 112 l 1x04
 1049 91 1076 44 1076 -2 c 0
 1076 -64 1027 -127 950 -127 c 0
 873 -127 824 -64 824 -2 c 0x08
 824 44 850 90 894 112 c 1x04
 895 1121 l 5
 850 1142 823 1189 823 1235 c 4
EndSplineSet
EndChar
StartChar: uniE020
Encoding: 57376 57376 6
Width: 1435
VWidth: 0
Flags: HW
HStem: 201 176<656 823> 735 176<656 823> 1251 176<664 831>
VStem: 643 193<214 363 749 898 1270 1409>
LayerCount: 3
Back
SplineSet
1175.55 0 m 29
 770.048 538.624 l 29
 1175.55 1107.97 l 29
 765.952 1638.4 l 29
669.696 0 m 29
 264.192 538.624 l 29
 669.696 1107.97 l 29
 260.096 1638.4 l 29
698.368 288.768 m 4
 698.368 309.117 716.718 325.632 739.328 325.632 c 4
 761.938 325.632 780.288 309.117 780.288 288.768 c 4
 780.288 268.419 761.938 251.904 739.328 251.904 c 4
 716.718 251.904 698.368 268.419 698.368 288.768 c 4
698.368 823.296 m 4
 698.368 843.645 716.718 860.16 739.328 860.16 c 4
 761.938 860.16 780.288 843.645 780.288 823.296 c 4
 780.288 802.947 761.938 786.432 739.328 786.432 c 4
 716.718 786.432 698.368 802.947 698.368 823.296 c 4
706.561 1339.39 m 4
 706.561 1359.74 724.91 1376.26 747.52 1376.26 c 4
 770.13 1376.26 788.48 1359.74 788.48 1339.39 c 4
 788.48 1319.04 770.13 1302.53 747.52 1302.53 c 4
 724.91 1302.53 706.561 1319.04 706.561 1339.39 c 4
EndSplineSet
Fore
SplineSet
1223 29 m 1
 1128 -29 l 1
 723 510 l 0
 711 528 713 551 723 567 c 0
 1108 1106 l 1
 719 1610 l 1
 813 1667 l 1
 1223 1137 l 0
 1229 1129 1231 1118 1231 1108 c 0
 1231 1098 1229 1087 1223 1079 c 0
 838 539 l 1
 1223 29 l 1
717 29 m 1
 623 -29 l 1
 217 510 l 0
 211 518 209 529 209 539 c 0
 209 549 211 559 217 567 c 0
 602 1106 l 1
 213 1610 l 1
 307 1667 l 1
 717 1137 l 0
 729 1121 729 1097 717 1079 c 0
 332 539 l 1
 717 29 l 1
643 289 m 0
 643 338 686 377 739 377 c 0
 792 377 836 338 836 289 c 0
 836 240 792 201 739 201 c 0
 686 201 643 240 643 289 c 0
643 823 m 0
 643 872 686 911 739 911 c 0
 792 911 836 872 836 823 c 0
 836 774 792 735 739 735 c 0
 686 735 643 774 643 823 c 0
651 1339 m 0
 651 1388 695 1427 748 1427 c 0
 801 1427 844 1388 844 1339 c 0
 844 1290 801 1251 748 1251 c 0
 695 1251 651 1290 651 1339 c 0
EndSplineSet
EndChar
StartChar: uniE021
Encoding: 57377 57377 118
Width: 1392
VWidth: -205
Flags: HW
HStem: -51 102<315 573> 166 176<366 536> 379 102<688 1077> 526 176<808 978> 731 102<315 700> 956 176<865 1035> 1184 102<811 1077>
VStem: 205 111<51 731> 352 197<181 327> 573 115<51 379> 700 111<833 1184> 795 197<541 687> 852 197<971 1117> 1077 111<481 1184>
LayerCount: 3
Back
SplineSet
260.096 -0.200195 m 29
 630.784 -0.200195 l 29
 630.784 429.88 l 29
 1132.54 429.88 l 29
 1132.54 1234.74 l 29
 755.712 1234.74 l 29
 755.712 782.136 l 29
 260.096 782.136 l 29
 260.096 -0.200195 l 29
409.6 253.752 m 4
 409.6 274.101 427.95 290.616 450.56 290.616 c 4
 473.17 290.616 491.52 274.101 491.52 253.752 c 4
 491.52 233.403 473.17 216.888 450.56 216.888 c 4
 427.95 216.888 409.6 233.403 409.6 253.752 c 4
851.968 614.2 m 4
 851.968 634.549 870.318 651.064 892.928 651.064 c 4
 915.538 651.064 933.888 634.549 933.888 614.2 c 4
 933.888 593.852 915.538 577.336 892.928 577.336 c 4
 870.318 577.336 851.968 593.852 851.968 614.2 c 4
909.312 1044.28 m 4
 909.312 1064.63 927.662 1081.14 950.271 1081.14 c 4
 972.882 1081.14 991.232 1064.63 991.232 1044.28 c 4
 991.232 1023.93 972.882 1007.42 950.271 1007.42 c 4
 927.662 1007.42 909.312 1023.93 909.312 1044.28 c 4
EndSplineSet
Fore
SplineSet
852 1044 m 0xffcc
 852 1093 897 1132 950 1132 c 0
 1003 1132 1049 1093 1049 1044 c 0
 1049 995 1003 956 950 956 c 0
 897 956 852 995 852 1044 c 0xffcc
795 614 m 0xffd4
 795 663 840 702 893 702 c 0
 946 702 991 663 991 614 c 0
 991 565 946 526 893 526 c 0
 840 526 795 565 795 614 c 0xffd4
352 254 m 0
 352 303 398 342 451 342 c 0
 504 342 549 303 549 254 c 0
 549 205 504 166 451 166 c 0
 398 166 352 205 352 254 c 0
315 51 m 1
 573 51 l 1
 573 430 l 2
 573 459 600 481 631 481 c 2
 1077 481 l 1
 1077 1184 l 1
 811 1184 l 1
 811 782 l 2xffe4
 811 753 787 731 756 731 c 2
 315 731 l 1
 315 51 l 1
260 -51 m 2
 229 -51 205 -29 205 0 c 2
 205 782 l 2
 205 811 229 833 260 833 c 2
 700 833 l 1
 700 1235 l 2
 700 1264 725 1286 756 1286 c 2
 1133 1286 l 2
 1164 1286 1188 1264 1188 1235 c 2
 1188 430 l 2
 1188 401 1164 379 1133 379 c 2
 688 379 l 1
 688 0 l 2
 688 -29 662 -51 631 -51 c 2
 260 -51 l 2
EndSplineSet
EndChar
StartChar: uniE022
Encoding: 57378 57378 136
Width: 1294
VWidth: 0
Flags: HW
HStem: 279 217<938 1063> 549 217<228 352> 831 217<945 1066> 1155 217<232 350>
VStem: 205 238<621 692 1223 1292> 852 233<359 419 904 978>
LayerCount: 3
Back
SplineSet
585.729 940.032 m 0
 585.729 971.686 613.253 997.376 647.168 997.376 c 0
 681.083 997.376 708.608 971.686 708.608 940.032 c 0
 708.608 908.378 681.083 882.688 647.168 882.688 c 0
 613.253 882.688 585.729 908.378 585.729 940.032 c 0
583.68 387.072 m 0
 583.68 418.726 611.205 444.416 645.12 444.416 c 0
 679.035 444.416 706.561 418.726 706.561 387.072 c 0
 706.561 355.418 679.035 329.729 645.12 329.729 c 0
 611.205 329.729 583.68 355.418 583.68 387.072 c 0
-61.4404 657.408 m 0
 -61.4404 689.062 -33.9141 714.752 0 714.752 c 0
 33.9141 714.752 61.4404 689.062 61.4404 657.408 c 0
 61.4404 625.754 33.9141 600.064 0 600.064 c 0
 -33.9141 600.064 -61.4404 625.754 -61.4404 657.408 c 0
-59.3916 1263.62 m 0
 -59.3916 1295.27 -31.8662 1320.96 2.04785 1320.96 c 0
 35.9619 1320.96 63.4883 1295.27 63.4883 1263.62 c 0
 63.4883 1231.96 35.9619 1206.27 2.04785 1206.27 c 0
 -31.8662 1206.27 -59.3916 1231.96 -59.3916 1263.62 c 0
446.464 204.8 m 25
 643.072 387.072 l 25
 374.784 659.456 l 25
 645.12 937.984 l 25
 200.704 1439.74 l 25
 2.04785 1263.62 l 25
 290.816 944.128 l 25
 0 657.408 l 25
 446.464 204.8 l 25
EndSplineSet
Fore
SplineSet
811 168 m 2
 803 160 786 154 770 154 c 0
 756 154 741 158 729 170 c 2
 352 553 l 1
 344 551 334 549 324 549 c 0
 258 549 205 598 205 657 c 0
 205 716 258 766 324 766 c 0
 334 766 344 764 354 762 c 1
 541 946 l 1
 350 1157 l 1
 342 1155 334 1155 326 1155 c 0
 260 1155 209 1205 209 1264 c 0
 209 1323 260 1372 326 1372 c 0
 338 1372 350 1370 362 1366 c 1
 485 1477 l 2
 495 1485 510 1491 524 1491 c 0
 540 1491 555 1485 567 1473 c 2
 944 1047 l 1
 952 1049 963 1049 971 1049 c 0
 1037 1049 1090 999 1090 940 c 0
 1090 881 1037 831 971 831 c 0
 963 831 952 832 944 834 c 1
 774 659 l 1
 938 492 l 1
 948 494 959 496 969 496 c 0
 1035 496 1085 446 1085 387 c 0
 1085 328 1035 279 969 279 c 0
 957 279 946 281 936 283 c 1
 811 168 l 2
434 1223 m 1
 657 977 l 2
 665 967 670 956 670 944 c 0
 670 932 665 919 655 909 c 2
 436 692 l 1
 440 682 442 669 442 657 c 0
 442 645 440 633 436 621 c 1
 772 281 l 1
 856 358 l 1
 854 366 852 377 852 387 c 0
 852 399 854 410 858 420 c 1
 657 625 l 2
 647 635 643 650 643 662 c 0
 643 674 647 686 655 694 c 2
 858 903 l 1
 854 915 852 928 852 940 c 0
 852 954 854 967 860 979 c 1
 520 1364 l 1
 438 1292 l 1
 440 1284 442 1274 442 1264 c 0
 442 1250 440 1235 434 1223 c 1
EndSplineSet
EndChar
StartChar: uniE023
Encoding: 57379 57379 152
Width: 1431
VWidth: 0
Flags: HW
HStem: 201 176<611 781> 735 176<611 781> 1251 176<603 773>
VStem: 598 197<216 362 750 896 1271 1408>
LayerCount: 3
Back
SplineSet
260.096 0 m 29
 665.6 538.624 l 29
 260.096 1107.97 l 29
 669.696 1638.4 l 29
765.952 0 m 29
 1171.46 538.624 l 29
 765.952 1107.97 l 29
 1175.55 1638.4 l 29
737.28 288.768 m 4
 737.28 309.117 718.93 325.632 696.32 325.632 c 4
 673.71 325.632 655.36 309.117 655.36 288.768 c 4
 655.36 268.419 673.71 251.904 696.32 251.904 c 4
 718.93 251.904 737.28 268.419 737.28 288.768 c 4
737.28 823.296 m 4
 737.28 843.645 718.93 860.16 696.32 860.16 c 4
 673.71 860.16 655.36 843.645 655.36 823.296 c 4
 655.36 802.947 673.71 786.432 696.32 786.432 c 4
 718.93 786.432 737.28 802.947 737.28 823.296 c 4
729.088 1339.39 m 4
 729.088 1359.74 710.738 1376.26 688.128 1376.26 c 4
 665.518 1376.26 647.168 1359.74 647.168 1339.39 c 4
 647.168 1319.04 665.518 1302.53 688.128 1302.53 c 4
 710.738 1302.53 729.088 1319.04 729.088 1339.39 c 4
EndSplineSet
Fore
SplineSet
307 -29 m 1
 213 29 l 1
 598 539 l 1
 213 1079 l 0
 207 1087 205 1098 205 1108 c 0
 205 1118 207 1129 213 1137 c 0
 623 1667 l 1
 717 1610 l 1
 328 1106 l 1
 713 567 l 0
 723 551 725 528 713 510 c 0
 307 -29 l 1
813 -29 m 1
 719 29 l 1
 1104 539 l 1
 719 1079 l 0
 707 1097 707 1121 719 1137 c 0
 1128 1667 l 1
 1223 1610 l 1
 834 1106 l 1
 1219 567 l 0
 1225 559 1227 549 1227 539 c 0
 1227 529 1225 518 1219 510 c 0
 813 -29 l 1
795 289 m 0
 795 240 749 201 696 201 c 0
 643 201 598 240 598 289 c 0
 598 338 643 377 696 377 c 0
 749 377 795 338 795 289 c 0
795 823 m 0
 795 774 749 735 696 735 c 0
 643 735 598 774 598 823 c 0
 598 872 643 911 696 911 c 0
 749 911 795 872 795 823 c 0
786 1339 m 0
 786 1290 741 1251 688 1251 c 0
 635 1251 590 1290 590 1339 c 0
 590 1388 635 1427 688 1427 c 0
 741 1427 786 1388 786 1339 c 0
EndSplineSet
EndChar
StartChar: uniE024
Encoding: 57380 57380 135
Width: 1432
VWidth: -205
Flags: HW
LayerCount: 3
Back
SplineSet
1175.55 -205 m 29
 770.048 333.624 l 29
 1175.55 902.97 l 29
 765.952 1433.4 l 29
669.696 -205 m 29
 264.192 333.624 l 29
 669.696 902.97 l 29
 260.096 1433.4 l 29
EndSplineSet
Fore
SplineSet
1219 -176 m 1
 1124 -234 l 1
 719 305 l 0
 707 323 709 346 719 362 c 0
 1104 901 l 1
 715 1405 l 1
 809 1462 l 1
 1219 932 l 0
 1225 924 1227 913 1227 903 c 0
 1227 893 1225 882 1219 874 c 0
 834 334 l 1
 1219 -176 l 1
713 -176 m 1
 619 -234 l 1
 213 305 l 0
 207 313 205 324 205 334 c 0
 205 344 207 354 213 362 c 0
 598 901 l 1
 209 1405 l 1
 303 1462 l 1
 713 932 l 0
 719 924 721 913 721 903 c 0
 721 893 719 882 713 874 c 0
 328 334 l 1
 713 -176 l 1
EndSplineSet
EndChar
StartChar: uniE025
Encoding: 57381 57381 317
Width: 2058
VWidth: -205
Flags: HW
LayerCount: 3
Back
SplineSet
1544 723 m 29
 260 723 l 29
 261 1028 l 29
 1743 1028 l 5
 1075 -0 l 5
 589 729 l 5
EndSplineSet
Fore
SplineSet
315 773 m 1
 1513 773 l 1
 1647 978 l 1
 316 978 l 1
 315 773 l 1
1448 673 m 1
 691 673 l 1
 1074 97 l 1
 1448 673 l 1
562 673 m 1
 260 673 l 0
 227 673 205 701 205 723 c 0
 206 1028 l 0
 206 1056 234 1078 261 1078 c 0
 1743 1078 l 0
 1773 1078 1798 1055 1798 1028 c 0
 1798 1019 1794 1010 1790 1003 c 0
 1122 -25 l 0
 1112 -41 1093 -50 1074 -50 c 0
 1065 -50 1055 -48 1047 -43 c 0
 1039 -39 1030 -29 1028 -26 c 0
 562 673 l 1
EndSplineSet
EndChar
StartChar: uniE026
Encoding: 57382 57382 236
Width: 2236
VWidth: 0
Flags: HW
LayerCount: 3
Back
SplineSet
458.752 927.744 m 25
 1743 928 l 25
 1742.27 1232.9 l 25
 260.096 1232.9 l 1
 927.744 204.8 l 1
 1414 934 l 1
EndSplineSet
Fore
SplineSet
1441 878 m 1
 975 179 l 2
 972 175 964 166 956 162 c 0
 947 157 938 155 928 155 c 0
 909 155 890 164 880 179 c 2
 213 1207 l 2
 209 1213 205 1224 205 1233 c 0
 205 1260 230 1283 260 1283 c 2
 1742 1283 l 2
 1769 1283 1797 1261 1797 1233 c 2
 1798 928 l 2
 1798 906 1776 878 1743 878 c 2
 1441 878 l 1
555 878 m 1
 928 302 l 1
 1312 878 l 1
 555 878 l 1
490 978 m 1
 1688 978 l 1
 1687 1183 l 1
 356 1183 l 1
 490 978 l 1
EndSplineSet
EndChar
StartChar: uniE027
Encoding: 57383 57383 202
Width: 970
VWidth: 0
Flags: W
LayerCount: 3
Fore
SplineSet
480 87 m 2
 806 589 l 2
 806 590 l 2
 870 691 l 1
 822 715 l 1
 766 627 l 1
 128 627 l 2
 113 627 100 616 100 602 c 0
 100 597 102 592 104 589 c 2
 432 87 l 2
 437 79 446 75 455 75 c 0
 460 75 465 77 470 79 c 0
 474 81 479 85 480 87 c 2
274 428 m 1
 637 428 l 1
 456 149 l 1
 274 428 l 1
241 478 m 1
 176 577 l 1
 734 577 l 1
 670 478 l 1
 241 478 l 1
EndSplineSet
EndChar
StartChar: uniE028
Encoding: 57384 57384 5
Width: 1495
VWidth: -205
Flags: HW
HStem: 833 102<487 528 692 1149>
LayerCount: 3
Back
SplineSet
669.696 884.54 m 29
 401.408 884.54 l 29
817.152 -0.200195 m 21
 401.408 884.54 l 4
 260.096 1234.74 l 5
 661.504 891.73 l 4
 669.696 884.54 l 13
 1234.94 882.49 l 29
 817.152 -0.200195 l 21
EndSplineSet
Fore
SplineSet
766 -21 m 0
 626 274 348 866 348 866 c 5
 207 1216 l 2
 205 1221 204 1228 204 1233 c 0
 204 1254 219 1274 242 1282 c 0
 248 1284 255 1285 261 1285 c 0
 277 1285 292 1279 299 1272 c 2
 692 936 l 1
 1235 934 l 2
 1266 934 1290 911 1290 882 c 0
 1290 876 1286 862 1286 862 c 2
 868 -21 l 2
 859 -41 839 -51 817 -51 c 0
 810 -51 802 -50 795 -47 c 0
 781 -41 770 -31 766 -21 c 0
817 129 m 1
 1149 831 l 1
 670 833 l 1
 487 833 l 1
 817 129 l 1
528 936 m 1
 395 1048 l 1
 440 936 l 1
 528 936 l 1
EndSplineSet
EndChar
StartChar: uniE029
Encoding: 57385 57385 41
Width: 662
VWidth: 0
Flags: HW
HStem: 507 50<165 211 275 497>
VStem: 100 55<557 639>
LayerCount: 2
Fore
SplineSet
356 90 m 6
 559 522 l 6
 560 523 l 6
 629 694 l 6
 630.018 696.645 630.496 699.331 630.496 701.975 c 4
 630.496 712.324 623.151 722.018 612 726 c 4
 608.857 727.143 605.633 727.633 602.513 727.633 c 4
 594.714 727.633 587.571 724.571 584 721 c 6
 392 557 l 5
 127 556 l 6
 112 556 100 545 100 531 c 4
 100 528 102 521 102 521 c 6
 306 90 l 6
 310.461 80.3359 320.447 75.0928 331.031 75.0928 c 4
 334.684 75.0928 338.408 75.7168 342 77 c 4
 349 80 354 85 356 90 c 6
331 163 m 5
 169 506 l 5
 403 507 l 5
 403 507 l 5
 492 507 l 5
 331 163 l 5
472 557 m 5
 537 612 l 5
 515 557 l 5
 472 557 l 5
EndSplineSet
Validated: 5
EndChar
StartChar: uniE02A
Encoding: 57386 57386 172
Width: 908
VWidth: 0
Flags: W
HStem: 421 50<279.946 625.946> 577 50<155.946 750.946>
LayerCount: 3
Back
SplineSet
675 446 m 29
 231 446 l 29
452.213 100 m 29
 232 446 l 29
 160 304 l 13
 125.938 602 l 29
 780.062 602 l 13
 762 310 l 21
 674 446 l 29
 452.213 100 l 29
452.787 100 m 29
  Spiro
    452.787 100 {
    301.5 373.5 v
    604.5 373.5 v
    0 0 z
  EndSpiro
EndSplineSet
Fore
SplineSet
427.946 87 m 2
 234.946 392 l 1
 184.946 294 l 2
 180.946 285 169.946 279 158.946 279 c 0
 154.946 279 151.946 279 147.946 281 c 0
 138.946 285 133.946 295 132.946 301 c 2
 98.9463 599 l 2
 96.9463 615 111.946 627 125.946 627 c 2
 779.946 627 l 2
 795.946 627 808.946 614 807.946 601 c 2
 788.946 309 l 2
 787.946 296 775.946 285 761.946 285 c 0
 760.946 285 760.946 285 759.946 285 c 0
 749.946 285 741.946 291 737.946 297 c 2
 673.946 397 l 1
 475.946 87 l 2
 470.946 79 460.946 75 451.946 75 c 0
 446.946 75 441.946 76 437.946 78 c 0
 433.946 80 429.946 84 427.946 87 c 2
230.946 471 m 1
 674.946 471 l 1
 683.946 471 692.946 467 697.946 459 c 2
 739.946 394 l 1
 750.946 577 l 1
 155.946 577 l 1
 176.946 397 l 1
 206.946 456 l 2
 208.946 459 212.946 465 217.946 468 c 0
 221.946 470 226.946 471 230.946 471 c 1
625.946 421 m 1
 279.946 421 l 1
 451.946 150 l 1
 625.946 421 l 1
EndSplineSet
EndChar
StartChar: uniE02B
Encoding: 57387 57387 173
Width: 908
VWidth: 0
Flags: W
HStem: 421 50<278.146 628.146> 577 50<175.146 731.146>
LayerCount: 3
Back
SplineSet
777 353 m 29
 727 522 l 29
124 353 m 29
 180 521 l 29
780.062 602 m 21
 125.938 602 l 29
 229 446 l 29
 677 446 l 29
 780.062 602 l 21
676 446 m 29
 452.213 100 l 29
 230 446 l 29
452.787 100 m 29
  Spiro
    452.787 100 {
    301.5 373.5 v
    604.5 373.5 v
    0 0 z
  EndSpiro
EndSplineSet
Fore
SplineSet
731.146 577 m 1
 175.146 577 l 1
 245.146 471 l 1
 661.146 471 l 1
 731.146 577 l 1
780.146 627 m 2
 784.146 627 790.146 625 794.146 623 c 0
 802.877 618.299 808 609.99 808 601.405 c 0
 808 597.206 806.775 592.941 804.146 589 c 2
 757.146 518 l 1
 804.146 359 l 1
 750.146 347 l 1
 717.146 458 l 1
 701.146 433 l 2
 700.146 432 699.146 430 697.146 429 c 2
 476.146 87 l 2
 470.814 79 461.48 74.5557 451.999 74.5557 c 0
 447.258 74.5557 442.48 75.667 438.146 78 c 0
 434.146 80 429.146 85 428.146 87 c 2
 209.146 429 l 2
 208.146 430 206.146 431 205.146 433 c 2
 188.146 459 l 1
 150.146 346 l 1
 98.1465 360 l 1
 150.146 517 l 1
 102.146 589 l 2
 100.146 592 98.1465 597 98.1465 602 c 0
 98.1465 616 111.146 627 126.146 627 c 2
 780.146 627 l 2
278.146 421 m 1
 452.146 149 l 1
 628.146 421 l 1
 278.146 421 l 1
EndSplineSet
EndChar
StartChar: uniE02C
Encoding: 57388 57388 187
Width: 909
VWidth: 0
Flags: W
HStem: 421 50<279 629> 577 50<176 732>
LayerCount: 3
Back
SplineSet
781 602 m 21
 127 602 l 29
 230 446 l 29
 678 446 l 29
 781 602 l 21
677 446 m 29
 453 100 l 29
 231 446 l 29
454 100 m 29
EndSplineSet
Fore
SplineSet
732 577 m 1
 176 577 l 1
 246 471 l 1
 662 471 l 1
 732 577 l 1
781 627 m 2
 785 627 791 625 795 623 c 0
 804 618 809 610 809 601 c 0
 809 597 808 593 805 589 c 2
 702 433 l 2
 701 432 700 430 698 429 c 2
 477 87 l 2
 472 79 462 75 453 75 c 0
 448 75 443 76 439 78 c 0
 435 80 430 85 429 87 c 2
 210 429 l 2
 209 430 207 431 206 433 c 2
 103 589 l 2
 101 592 100 597 100 602 c 0
 100 616 112 627 127 627 c 2
 781 627 l 2
279 421 m 1
 453 149 l 1
 629 421 l 1
 279 421 l 1
EndSplineSet
EndChar
StartChar: uniE02D
Encoding: 57389 57389 190
Width: 970
VWidth: 0
Flags: W
HStem: 428 50<333 696> 577 50<236 794>
LayerCount: 3
Back
SplineSet
188 602 m 29
 124 703 l 29
285 453 m 29
 743 453 l 29
514 100 m 5
 188 602 l 13
 842 602 l 5
 514 100 l 5
EndSplineSet
Fore
SplineSet
490 87 m 6
 164 589 l 6
 164 590 l 6
 100 691 l 5
 148 715 l 5
 204 627 l 5
 842 627 l 6
 857 627 870 616 870 602 c 4
 870 597 868 592 866 589 c 6
 538 87 l 6
 533 79 524 75 515 75 c 4
 510 75 505 77 500 79 c 4
 496 81 491 85 490 87 c 6
696 428 m 5
 333 428 l 5
 514 149 l 5
 696 428 l 5
729 478 m 5
 794 577 l 5
 236 577 l 5
 300 478 l 5
 729 478 l 5
EndSplineSet
EndChar
StartChar: uniE02E
Encoding: 57390 57390 191
Width: 906
VWidth: 0
Flags: W
HStem: 428 50<221 679> 577 50<172 494>
LayerCount: 3
Back
SplineSet
778 602 m 29
 661 740 l 29
 514 604 l 29
221 453 m 29
 679 453 l 29
450 100 m 5
 124 602 l 13
 778 602 l 5
 450 100 l 5
EndSplineSet
Fore
SplineSet
800 617 m 1
 756 587 l 1
 658 702 l 1
 534 586 l 1
 494 622 l 1
 641 758 l 0
 645 762 653 764 661 764 c 0
 669 764 677 762 683 755 c 0
 800 617 l 1
221 428 m 1
 221 478 l 1
 679 478 l 1
 679 428 l 1
 221 428 l 1
450 149 m 1
 730 577 l 1
 172 577 l 1
 450 149 l 1
426 87 m 2
 100 589 l 0
 97 593 96 598 96 602 c 0
 96 611 101 619 110 624 c 0
 114 626 120 627 124 627 c 0
 778 627 l 0
 793 627 806 616 806 602 c 0
 806 597 804 592 802 589 c 0
 474 87 l 0
 469 79 460 75 451 75 c 0
 446 75 441 77 436 79 c 0
 432 81 427 85 426 87 c 2
EndSplineSet
EndChar
StartChar: uniE02F
Encoding: 57391 57391 192
Width: 1092
VWidth: 0
Flags: W
HStem: 428 50<272 635> 577 50<175 733 797 876>
LayerCount: 3
Back
SplineSet
781 602 m 29
 964 602 l 29
 658 408 l 29
224 453 m 29
 682 453 l 29
453 100 m 5
 127 602 l 13
 781 602 l 5
 453 100 l 5
EndSplineSet
Fore
SplineSet
429 87 m 2
 103 589 l 2
 100 593 99 598 99 602 c 0
 99 611 104 619 113 624 c 0
 117 626 123 627 127 627 c 2
 781 627 l 1
 964 627 l 2
 979 627 992 616 992 602 c 0
 992 593 985 584 980 581 c 2
 674 387 l 1
 673 388 l 1
 477 87 l 2
 472 79 463 75 454 75 c 0
 449 75 444 77 439 79 c 0
 435 81 430 85 429 87 c 2
635 428 m 1
 272 428 l 1
 453 149 l 1
 635 428 l 1
668 478 m 1
 733 577 l 1
 175 577 l 1
 239 478 l 1
 668 478 l 1
797 577 m 1
 740 491 l 1
 876 577 l 1
 797 577 l 1
EndSplineSet
EndChar
StartChar: uniE030
Encoding: 57392 57392 8
Width: 913
VWidth: 0
Flags: W
HStem: 100 325<214 269 332 387 437 492 536 591> 375 50<156 214 269 332 387 437 492 536 591 645> 533 50<156 645>
VStem: 102 54<100 375 425 533> 214 55<100 375> 332 55<100 375> 437 55<100 375> 536 55<100 375> 645 55<100 375 425 532>
LayerCount: 2
Back
SplineSet
673 400 m 25
 460 400 126.545 400 127.772 400 c 0
129 100 m 25
 129 558 l 25
 672.612 557 l 25
 672.771 100 l 25
563.772 100 m 25
 563.772 401 l 25
464.772 100 m 25
 464.772 400 l 25
359.772 100 m 25
 359.772 400 l 25
241.772 100 m 25
 241.772 400 l 25
673 400 m 25
EndSplineSet
Fore
SplineSet
269 100 m 1xbf80
 214 100 l 1xbf80
 214 375 l 1
 156 375 l 1x7f80
 156 100 l 1
 102 100 l 1
 102 558 l 2
 102 573 117 583 129 583 c 2
 673 582 l 2
 689 582 700 569 700 557 c 2
 700 100 l 1
 645 100 l 1xbf80
 645 375 l 1
 591 375 l 1x7f80
 591 100 l 1
 536 100 l 1xbf80
 536 375 l 1
 492 375 l 1x7f80
 492 100 l 1
 437 100 l 1xbf80
 437 375 l 1
 387 375 l 1x7f80
 387 100 l 1
 332 100 l 1xbf80
 332 375 l 1
 269 375 l 1x7f80
 269 100 l 1xbf80
645 425 m 1x7f80
 645 532 l 1
 156 533 l 1
 156 425 l 1
 645 425 l 1x7f80
EndSplineSet
Validated: 1
EndChar
StartChar: uniE031
Encoding: 57393 57393 157
Width: 1638
VWidth: -205
Flags: HW
HStem: 563 102<319 776 889 1321> 1186 102<319 776 889 1321>
VStem: 209 111<0 563 665 1186> 776 113<0 563 665 1184> 1321 113<0 563 665 1184>
LayerCount: 3
Back
SplineSet
1378.3 614.2 m 29
 942.08 614.2 259.164 614.2 261.677 614.2 c 4
264.192 -0.200195 m 29
 264.192 1236.79 l 29
 1377.51 1234.74 l 29
 1377.83 -0.200195 l 29
833.067 -0.200195 m 29
 833.067 1234.74 l 29
1378.3 614.2 m 29
EndSplineSet
Fore
SplineSet
889 0 m 1
 776 0 l 1
 776 563 l 1
 319 563 l 1
 319 0 l 1
 209 0 l 1
 209 1237 l 2
 209 1268 239 1288 264 1288 c 2
 1378 1286 l 2
 1411 1286 1434 1260 1434 1235 c 2
 1434 0 l 1
 1321 0 l 1
 1321 563 l 1
 889 563 l 1
 889 0 l 1
776 1186 m 1
 319 1186 l 1
 319 665 l 1
 776 665 l 1
 776 1186 l 1
889 1184 m 1
 889 665 l 1
 1321 665 l 1
 1321 1184 l 1
 1178 1184 1032 1184 889 1184 c 1
EndSplineSet
EndChar
StartChar: uniE032
Encoding: 57394 57394 360
Width: 1728
VWidth: -205
Flags: HW
LayerCount: 3
Back
SplineSet
464 1029 m 25
 260 1433 l 25
 772 1032 l 25
1319 724 m 25
 616 724 l 25
967 -0 m 1
 1468 1029 l 9
 464 1029 l 1
 967 -0 l 1
EndSplineSet
Fore
SplineSet
1017 -20 m 2
 1012 -31 1001 -41 989 -46 c 0
 962 -57 929 -45 917 -20 c 2
 414 1008 l 2
 414 1008 l 2
 210 1412 l 2
 198 1437 210 1467 237 1478 c 0
 257 1486 282 1482 296 1471 c 2
 797 1079 l 1
 1468 1079 l 2
 1472 1079 1483 1078 1490 1075 c 0
 1517 1064 1530 1034 1518 1009 c 2
 1017 -20 l 2
1284 774 m 1
 1384 979 l 1
 549 979 l 1
 649 774 l 1
 1284 774 l 1
1235 674 m 1
 698 674 l 1
 967 123 l 1
 1235 674 l 1
499 1079 m 1
 627 1079 l 1
 415 1245 l 1
 499 1079 l 1
EndSplineSet
EndChar
StartChar: uniE033
Encoding: 57395 57395 384
Width: 2086
VWidth: -205
Flags: HW
LayerCount: 3
Back
SplineSet
1488.4 616.408 m 25
 579.088 616.408 l 25
1032.13 -0.200195 m 25
 581.136 616.408 l 25
 260 393 l 9
 363.921 1027.9 l 25
 1703.57 1027.9 l 9
 1826 402 l 17
 1486.35 616.408 l 25
 1032.13 -0.200195 l 25
1033.31 -0.200195 m 25
  Spiro
    1033.31 -0.2 {
    723.472 559.928 v
    1344.02 559.928 v
    0 0 z
  EndSpiro
EndSplineSet
Fore
SplineSet
986 -28 m 1
 568 544 l 1
 293 353 l 2
 283 346 271 343 260 343 c 0
 243 343 227 350 216 363 c 0
 208 372 206 385 206 394 c 0
 206 396 206 398 206 400 c 2
 310 1035 l 2
 314 1060 338 1078 364 1078 c 2
 1704 1078 l 2
 1732 1078 1754 1058 1758 1037 c 2
 1880 411 l 2
 1881 408 1881 406 1881 403 c 0
 1881 379 1862 357 1836 353 c 0
 1822 351 1807 354 1795 361 c 2
 1501 546 l 1
 1078 -28 l 2
 1067 -42 1050 -50 1032 -50 c 0
 1022 -50 1011 -48 1002 -42 c 0
 996 -38 986 -28 986 -28 c 1
579 665 m 1
 579 666 l 1
 1488 666 l 1
 1488 666 l 1
 1498 666 1509 663 1518 657 c 2
 1749 512 l 1
 1657 978 l 1
 411 978 l 1
 334 508 l 1
 548 656 l 2
 556 661 567 665 579 665 c 1
1383 566 m 1
 684 566 l 1
 1032 90 l 1
 1383 566 l 1
EndSplineSet
EndChar
StartChar: uniE035
Encoding: 57397 57397 414
Width: 1752
VWidth: -205
Flags: HW
LayerCount: 3
Fore
SplineSet
1495.99902344 932 m 25
 1495 1234.74 l 25
 1234 939 l 1049
1495.99902344 932 m 5
 583.999023438 937.740234375 l 5
 583.999023438 937.740234375 526 1 1054.99902344 0 c 5
 1539.99902344 1 1495.99902344 932 1495.99902344 932 c 1029
EndSplineSet
EndChar
StartChar: uniE038
Encoding: 57400 57400 10
Width: 387
VWidth: 0
Flags: W
HStem: 0 21G<232 287>
VStem: 132 55<0 360.789 439.231 800> 232 55<0 800>
LayerCount: 2
Back
SplineSet
68 400 m 0
 68 419.872 83.232 436 102 436 c 0
 120.768 436 136 419.872 136 400 c 0
 136 380.128 120.768 364 102 364 c 0
 83.232 364 68 380.128 68 400 c 0
200 800 m 25
 200 0 l 25
 200 800 l 25
100 800 m 25
 100 0 l 25
 100 800 l 25
EndSplineSet
Fore
SplineSet
132 800 m 2
 132 801 187 800 187 800 c 1
 187 455.713 l 1
 209.534 445.663 223 422.766 223 400 c 0
 223 377.206 209.546 354.316 187 344.276 c 1
 187 0 l 1
 185.9 0 132 -1 132 0 c 2
 132 346.255 l 1
 111.882 357.114 100 378.615 100 400 c 0
 100 421.412 111.871 442.908 132 453.759 c 1
 132 800 l 2
232 800 m 2
 232 801 287 800 287 800 c 1
 287 0 l 1
 285.9 0 232 -1 232 0 c 2
 232 800 l 2
EndSplineSet
EndChar
StartChar: uniE040
Encoding: 57408 57408 4
Width: 1751
VWidth: -205
Flags: W
LayerCount: 3
Back
SplineSet
669.696 -205 m 29
 264.192 333.624 l 29
 669.696 902.97 l 29
 260.096 1433.4 l 29
1083.39 -205 m 29
 677.888 333.624 l 29
 1083.39 902.97 l 29
 673.792 1433.4 l 29
1495.04 -205 m 29
 1089.54 333.624 l 29
 1495.04 902.97 l 29
 1085.44 1433.4 l 29
EndSplineSet
Fore
SplineSet
713 -176 m 1
 618 -234 l 1
 213 305 l 0
 207 313 205 324 205 334 c 0
 205 344 207 354 213 362 c 0
 598 901 l 1
 209 1405 l 1
 303 1462 l 1
 713 932 l 0
 725 916 725 892 713 874 c 0
 328 334 l 1
 713 -176 l 1
1126 -176 m 1
 1032 -234 l 1
 627 305 l 0
 621 313 618 324 618 334 c 0
 618 344 621 354 627 362 c 0
 1012 901 l 1
 622 1405 l 1
 717 1462 l 1
 1126 932 l 0
 1138 916 1138 892 1126 874 c 0
 741 334 l 1
 1126 -176 l 1
1538 -176 m 1
 1444 -234 l 1
 1038 305 l 0
 1032 313 1030 324 1030 334 c 0
 1030 344 1032 354 1038 362 c 0
 1423 901 l 1
 1034 1405 l 1
 1128 1462 l 1
 1538 932 l 0
 1544 924 1546 913 1546 903 c 0
 1546 893 1544 882 1538 874 c 0
 1153 334 l 1
 1538 -176 l 1
EndSplineSet
EndChar
StartChar: uniE041
Encoding: 57409 57409 39
Width: 1751
VWidth: 0
Flags: HW
LayerCount: 3
Back
SplineSet
1085.44 0 m 29
 1490.94 538.624 l 29
 1085.44 1107.97 l 29
 1495.04 1638.4 l 29
671.744 0 m 29
 1077.25 538.624 l 29
 671.744 1107.97 l 29
 1081.34 1638.4 l 29
260.096 0 m 29
 665.6 538.624 l 29
 260.096 1107.97 l 29
 669.696 1638.4 l 29
EndSplineSet
Fore
SplineSet
1131 -29 m 1
 1038 29 l 1
 1423 539 l 1
 1037 1080 l 0
 1024 1098 1027 1121 1039 1137 c 0
 1448 1668 l 1
 1540 1609 l 1
 1153 1107 l 1
 1538 566 l 0
 1549 550 1550 527 1537 510 c 0
 1131 -29 l 1
718 -29 m 1
 625 29 l 1
 1009 539 l 1
 624 1080 l 0
 611 1098 613 1121 625 1137 c 0
 1035 1668 l 1
 1127 1609 l 1
 739 1107 l 1
 1124 566 l 0
 1135 550 1136 527 1123 510 c 0
 718 -29 l 1
306 -29 m 1
 213 29 l 1
 597 539 l 1
 212 1080 l 0
 199 1098 201 1121 213 1137 c 0
 623 1668 l 1
 715 1609 l 1
 327 1107 l 1
 712 566 l 0
 723 550 724 527 711 510 c 0
 306 -29 l 1
EndSplineSet
EndChar
StartChar: uniE042
Encoding: 57410 57410 158
Width: 847
VWidth: 0
Flags: W
HStem: -53 106<123.532 175 297.255 345 475.532 528>
VStem: 112 116<-40.8098 24.6704> 284 116<-42.8098 24.6243> 464 116<-40.8098 23.6711>
LayerCount: 2
Back
SplineSet
450 0 m 0
 450 15.4561 463.44 28 480 28 c 0
 496.56 28 510 15.4561 510 0 c 0
 510 -15.4561 496.56 -28 480 -28 c 0
 463.44 -28 450 -15.4561 450 0 c 0
270 -2 m 0
 270 13.4561 283.44 26 300 26 c 0
 316.56 26 330 13.4561 330 -2 c 0
 330 -17.4561 316.56 -30 300 -30 c 0
 283.44 -30 270 -17.4561 270 -2 c 0
98 0 m 0
 98 15.4561 111.44 28 128 28 c 0
 144.56 28 158 15.4561 158 0 c 0
 158 -15.4561 144.56 -28 128 -28 c 0
 111.44 -28 98 -15.4561 98 0 c 0
420.78 700 m 25
420.78 700 m 25
 521 800 l 17
 602.78 700 l 0
 480 541 l 9
 678 263 l 25
 480 0 l 25
249.78 700 m 25
 338 800 l 17
 420.78 700 l 0
 298 541 l 9
 496 263 l 25
 298 0 l 25
80 703 m 25
 164 800 l 17
 249.78 700 l 0
 127 541 l 9
 325 263 l 25
 127 0 l 25
EndSplineSet
Fore
SplineSet
144 688 m 1
 100 718 l 1
 184 815 l 2
 189 821 198 825 206 825 c 0
 212 825 218 824 223 820 c 0
 228 815 l 1
 292 740 l 1
 359 816 l 2
 364 822 372 825 380 825 c 0
 386 825 392 824 397 820 c 0
 402 815 l 1
 465 739 l 1
 543 817 l 2
 548 822 556 825 563 825 c 0
 572 825 580 821 585 815 c 2
 667 715 l 2
 671 711 672 705 672 700 c 0
 672 695 670 690 667 686 c 2
 555 540 l 1
 743 277 l 2
 746 273 747 268 747 263 c 0
 747 258 746 253 743 249 c 2
 573 24 l 1
 577 17 580 9 580 0 c 0
 580 -29 554 -53 522 -53 c 0
 490 -53 464 -29 464 0 c 0
 464 29 490 53 522 53 c 0
 524 53 526 53 528 53 c 1
 687 263 l 1
 499 527 l 2
 493 535 492 547 499 555 c 2
 611 700 l 1
 561 761 l 1
 484 684 l 1
 373 540 l 1
 561 277 l 2
 567 268 567 256 561 249 c 2
 392 25 l 1
 397 17 400 8 400 -2 c 0
 400 -31 374 -55 342 -55 c 0
 310 -55 284 -31 284 -2 c 0
 284 27 310 51 342 51 c 0
 343 51 344 51 345 51 c 2
 505 263 l 1
 317 527 l 2
 311 535 310 547 317 555 c 2
 429 699 l 1
 379 759 l 1
 314 685 l 1
 202 540 l 1
 390 277 l 2
 396 268 396 256 390 249 c 2
 221 25 l 1
 225 18 228 9 228 0 c 0
 228 -29 202 -53 170 -53 c 0
 138 -53 112 -29 112 0 c 0
 112 29 138 53 170 53 c 0
 172 53 173 53 175 53 c 1
 334 263 l 1
 146 527 l 2
 140 535 139 547 146 555 c 2
 258 699 l 1
 206 759 l 1
 144 688 l 1
EndSplineSet
EndChar
StartChar: uniE043
Encoding: 57411 57411 153
Width: 1818
VWidth: 0
Flags: HW
HStem: 1520 217<228 344 647 758 1064 1163>
VStem: 205 233<1590 1713> 623 233<1586 1715> 1032 111<1608 1644>
LayerCount: 3
Back
SplineSet
1087.49 1638.4 m 4
 1087.49 1670.05 1115.01 1695.74 1148.93 1695.74 c 4
 1182.84 1695.74 1210.37 1670.05 1210.37 1638.4 c 4
 1210.37 1606.75 1182.84 1581.06 1148.93 1581.06 c 4
 1115.01 1581.06 1087.49 1606.75 1087.49 1638.4 c 4
677.888 1630.21 m 4
 677.888 1661.86 705.413 1687.55 739.328 1687.55 c 4
 773.243 1687.55 800.768 1661.86 800.768 1630.21 c 4
 800.768 1598.55 773.243 1572.86 739.328 1572.86 c 4
 705.413 1572.86 677.888 1598.55 677.888 1630.21 c 4
260.096 1628.16 m 4
 260.096 1659.81 287.621 1685.5 321.536 1685.5 c 4
 355.451 1685.5 382.976 1659.81 382.976 1628.16 c 4
 382.976 1596.51 355.451 1570.82 321.536 1570.82 c 4
 287.621 1570.82 260.096 1596.51 260.096 1628.16 c 4
733.184 0 m 29
 327.68 538.624 l 29
 733.184 1107.97 l 29
 323.584 1638.4 l 29
1146.88 0 m 29
 741.376 538.624 l 29
 1146.88 1107.97 l 29
 737.28 1638.4 l 29
1558.53 0 m 29
 1153.02 538.624 l 29
 1558.53 1107.97 l 29
 1148.93 1638.4 l 29
733.184 0 m 29
 327.68 538.624 l 29
 733.184 1107.97 l 29
 323.584 1638.4 l 29
1146.88 0 m 29
 741.376 538.624 l 29
 1146.88 1107.97 l 29
 737.28 1638.4 l 29
1558.53 0 m 29
 1153.02 538.624 l 29
 1558.53 1107.97 l 29
 1148.93 1638.4 l 29
EndSplineSet
Fore
SplineSet
205 1628 m 0
 205 1687 256 1737 322 1737 c 0
 388 1737 438 1687 438 1628 c 0
 438 1614 436 1601 430 1589 c 1
 780 1137 l 2
 786 1129 788 1118 788 1108 c 0
 788 1098 786 1087 780 1079 c 2
 395 539 l 1
 780 29 l 1
 686 -29 l 1
 281 510 l 2
 275 518 272 529 272 539 c 0
 272 549 275 559 281 567 c 2
 666 1106 l 1
 344 1522 l 1
 336 1520 330 1520 322 1520 c 0
 256 1520 205 1569 205 1628 c 0
623 1630 m 0
 623 1689 673 1739 739 1739 c 0
 805 1739 856 1689 856 1630 c 0
 856 1614 852 1599 846 1585 c 1
 1194 1137 l 2
 1200 1129 1202 1118 1202 1108 c 0
 1202 1098 1200 1087 1194 1079 c 2
 809 539 l 1
 1194 29 l 1
 1100 -29 l 1
 694 510 l 2
 688 518 686 529 686 539 c 0
 686 549 688 559 694 567 c 2
 1079 1106 l 1
 758 1524 l 1
 752 1524 745 1522 739 1522 c 0
 673 1522 623 1571 623 1630 c 0
1032 1638 m 0
 1032 1697 1083 1747 1149 1747 c 0
 1215 1747 1266 1697 1266 1638 c 0
 1266 1622 1263 1605 1255 1591 c 1
 1606 1137 l 2
 1612 1129 1614 1118 1614 1108 c 0
 1614 1098 1612 1087 1606 1079 c 2
 1221 539 l 1
 1606 29 l 1
 1511 -29 l 1
 1106 510 l 2
 1100 518 1098 529 1098 539 c 0
 1098 549 1100 559 1106 567 c 2
 1491 1106 l 1
 1163 1530 l 1
 1159 1530 1153 1530 1149 1530 c 0
 1083 1530 1032 1579 1032 1638 c 0
1153 1640 m 1
 1151 1642 1151 1645 1149 1645 c 0
 1147 1645 1143 1642 1143 1638 c 0
 1143 1636 1145 1636 1145 1636 c 2
 1153 1640 l 1
EndSplineSet
EndChar
StartChar: uniE044
Encoding: 57412 57412 162
Width: 1138
VWidth: 0
Flags: W
HStem: 205 50<102 400 741 1038> 375 50<100 397 739 1036> 549 50<102 400 741 1038>
LayerCount: 2
Back
SplineSet
100 400 m 25
 407.8 400 l 25
 569.8 533 l 25
 727.75 400 l 25
 1035.55 400 l 25
102.45 574 m 25
 410.25 574 l 25
 572.25 707 l 25
 730.2 574 l 25
 1038 574 l 25
102.45 230 m 25
 410.25 230 l 25
 572.25 363 l 25
 730.2 230 l 25
 1038 230 l 25
EndSplineSet
Fore
SplineSet
100 375 m 1
 100 425 l 1
 397 425 l 1
 551 552 l 0
 556 556 563 558 570 558 c 0
 577 558 583 555 588 551 c 0
 739 425 l 1
 1036 425 l 1
 1036 375 l 1
 728 375 l 0
 721 375 714 378 709 382 c 0
 570 499 l 1
 426 381 l 0
 421 377 415 375 408 375 c 0
 100 375 l 1
102 549 m 1
 102 599 l 1
 400 599 l 1
 554 726 l 0
 559 730 565 732 572 732 c 0
 579 732 586 729 591 725 c 0
 741 599 l 1
 1038 599 l 1
 1038 549 l 1
 730 549 l 0
 723 549 717 552 712 556 c 0
 572 673 l 1
 429 555 l 0
 424 551 417 549 410 549 c 0
 102 549 l 1
102 205 m 1
 102 255 l 1
 400 255 l 1
 554 382 l 0
 559 386 565 388 572 388 c 0
 579 388 586 385 591 381 c 0
 741 255 l 1
 1038 255 l 1
 1038 205 l 1
 730 205 l 0
 723 205 717 208 712 212 c 0
 572 329 l 1
 429 211 l 0
 424 207 417 205 410 205 c 0
 102 205 l 1
EndSplineSet
EndChar
StartChar: uniE048
Encoding: 57416 57416 12
Width: 845
VWidth: 0
Flags: W
LayerCount: 2
Back
SplineSet
286 704 m 29
0 400 m 29,29,-1
 294 100 l 29,30,-1
 590 400 l 29,31,-1
 286 704 l 29,32,-1
 0 400 l 29,29,-1
EndSplineSet
Fore
SplineSet
164.209 400.336 m 1
 421.776 137.512 l 1
 680.654 399.888 l 1
 414.336 666.205 l 1
 164.209 400.336 l 1
107.174 383.37 m 2
 102.608 388.029 100.303 394.018 100.303 400.017 c 0
 100.303 405.816 102.458 411.625 106.808 416.249 c 2
 392.809 720.249 l 2
 397.173 724.888 405.7 728.512 414.583 728.512 c 0
 421.447 728.512 428.524 726.348 434.057 720.816 c 2
 738.056 416.816 l 2
 742.553 412.318 745 406.144 745 399.882 c 0
 745 393.993 742.836 388.028 738.179 383.307 c 2
 442.179 83.3066 l 2
 437.987 79.0588 429.581 75.5416 420.777 75.5416 c 0
 413.875 75.5416 406.728 77.7035 401.174 83.3701 c 2
 107.174 383.37 l 2
EndSplineSet
Validated: 524289
EndChar
StartChar: uniE049
Encoding: 57417 57417 15
Width: 1000
VWidth: 0
Flags: HWO
LayerCount: 2
Back
SplineSet
406.5 401 m 0
 406.5 410.936 415.46 419 426.5 419 c 0
 437.54 419 446.5 410.936 446.5 401 c 0
 446.5 391.064 437.54 383 426.5 383 c 0
 415.46 383 406.5 391.064 406.5 401 c 0
270.5 550 m 0
 270.5 559.936 279.46 568 290.5 568 c 0
 301.54 568 310.5 559.936 310.5 550 c 0
 310.5 540.064 301.54 532 290.5 532 c 0
 279.46 532 270.5 540.064 270.5 550 c 0
142.5 402 m 0
 142.5 411.936 151.46 420 162.5 420 c 0
 173.54 420 182.5 411.936 182.5 402 c 0
 182.5 392.064 173.54 384 162.5 384 c 0
 151.46 384 142.5 392.064 142.5 402 c 0
290.945 551.149 m 25
 294.945 225.149 l 25
162.945 400 m 25
 428.945 400 l 25
EndSplineSet
Fore
SplineSet
36.502 400.336 m 1
 294.069 137.512 l 1
 552.947 399.888 l 1
 286.629 666.205 l 1
 36.502 400.336 l 1
-20.5332 383.37 m 2
 -29.5127 392.533 -29.749 406.842 -20.8994 416.249 c 2
 265.101 720.249 l 2
 272.838 728.474 293.658 733.507 306.349 720.816 c 2
 610.348 416.816 l 2
 619.076 408.088 620.082 393.048 610.471 383.307 c 2
 314.471 83.3066 l 2
 306.993 75.7285 286.082 70.4756 273.445 83.3701 c 2
 -20.5332 383.37 l 2
125 402 m 0
 125 419.595 141.066 435 162.5 435 c 0
 178.384 435 191.319 426.541 196.953 415 c 1
 275.114 415 l 1
 273.82 520.408 l 1
 261.252 525.903 253 537.39 253 550 c 0
 253 567.594 269.064 583 290.5 583 c 0
 311.936 583 328 567.594 328 550 c 0
 328 537.944 320.458 526.916 308.813 521.167 c 1
 310.115 415 l 1
 392.557 415 l 1
 398.437 426.026 411.078 434 426.5 434 c 0
 447.936 434 463.999 418.594 463.999 401 c 0
 463.999 383.406 447.936 368 426.5 368 c 0
 412.027 368 400.003 375.023 393.719 385 c 1
 310.484 385 l 1
 312.443 225.307 l 2
 312.681 206.018 277.684 205.636 277.445 224.99 c 0
 276.791 278.327 276.136 331.663 275.482 385 c 1
 194.625 385 l 1
 188.182 375.557 176.484 369 162.5 369 c 0
 141.066 369 125 384.405 125 402 c 0
EndSplineSet
EndChar
StartChar: uniE04A
Encoding: 57418 57418 17
Width: 1730
VWidth: 0
Flags: HW
HStem: 575 102<575 1151> 768 102<387 791 903 1341>
VStem: 791 113<870 1303>
LayerCount: 3
Back
SplineSet
585.613 819.2 m 25
 585.729 1441.79 l 25
1017.74 624.64 m 25
 186.254 626.688 l 25
1208.32 819.2 m 25
 0 819.2 l 25
0 819.2 m 25
 602.112 204.8 l 25
 1208.32 819.2 l 25
 585.729 1441.79 l 25
 0 819.2 l 25
EndSplineSet
Fore
SplineSet
575 575 m 5
 864 283 l 5
 1151 573 l 5
 575 575 l 5
387 768 m 5
 475 678 l 5
 1253 676 l 5
 1284 707 1312 737 1343 768 c 5
 1024 768 706 768 387 768 c 5
383 870 m 5
 791 870 l 5
 791 1303 l 5
 383 870 l 5
1341 870 m 5
 903 1309 l 5
 903 1164 903 1015 903 870 c 5
 1341 870 l 5
1511 854 m 6
 1519 846 1526 833 1526 819 c 4
 1526 805 1519 792 1511 784 c 4
 1308 579 1511 784 905 170 c 4
 897 162 880 156 862 156 c 4
 848 156 833 158 821 170 c 4
 620 375 420 579 219 784 c 4
 211 792 205 805 205 819 c 4
 205 833 211 844 219 852 c 6
 805 1475 l 6
 815 1485 832 1493 848 1493 c 4
 864 1493 879 1487 889 1477 c 6
 1511 854 l 6
EndSplineSet
EndChar
StartChar: uniE04B
Encoding: 57419 57419 19
Width: 845
VWidth: 0
Flags: W
HStem: 714.718 24.998<222.854 371.455 455.931 587.237>
VStem: 398.988 30.0016<761.009 901.236>
LayerCount: 2
Back
SplineSet
285.7 901.28 m 25
 286.445 723.149 l 25
 406.141 832.796 l 25
286.445 723.149 m 25
 168.606 832.796 l 25
459.669 724.363 m 25
 95.0039 727.217 l 25
266 722 m 0
 266 731.936 274.96 740 286 740 c 0
 297.04 740 306 731.936 306 722 c 0
 306 712.064 297.04 704 286 704 c 0
 274.96 704 266 712.064 266 722 c 0
286.445 723.149 m 25
0 400 m 25
 294 100 l 25
 590 400 l 25
 286 704 l 25
 0 400 l 25
EndSplineSet
Fore
SplineSet
164.211 400.336 m 1
 421.778 137.512 l 1
 680.66 399.892 l 1
 591.215 489.286 505.069 574.057 414.191 666.05 c 1
 164.211 400.336 l 1
107.176 383.37 m 2
 102.61 388.029 100.305 394.018 100.305 400.017 c 0
 100.305 405.816 102.46 411.625 106.81 416.249 c 2
 373.247 699.454 l 1
 370.339 703.718 368.229 708.483 367.114 713.587 c 1
 222.572 714.718 l 1
 222.854 739.716 l 1
 369.854 738.566 l 1
 370.601 740.184 371.454 741.752 372.404 743.261 c 1
 285.144 824.457 l 1
 307.49 841.135 l 1
 393.639 760.975 l 1
 395.369 761.707 397.155 762.346 398.988 762.888 c 1
 398.41 901.236 l 1
 428.41 901.324 l 1
 428.99 762.719 l 1
 430.96 762.112 432.874 761.391 434.721 760.565 c 1
 522.754 841.207 l 1
 544.945 824.385 l 1
 455.514 742.446 l 1
 456.395 740.974 457.184 739.449 457.874 737.877 c 1
 587.52 736.862 l 1
 587.237 711.864 l 1
 460.138 712.859 l 1
 459.039 708.255 457.129 703.936 454.553 700.024 c 1
 551.497 601.875 642.921 512.1 738.071 416.803 c 0
 742.555 412.312 745 406.141 745 399.88 c 0
 745 393.994 742.839 388.029 738.181 383.307 c 2
 442.181 83.3066 l 2
 437.989 79.0588 429.583 75.5416 420.779 75.5416 c 0
 413.877 75.5416 406.73 77.7035 401.176 83.3701 c 2
 107.176 383.37 l 2
EndSplineSet
Validated: 1
EndChar
StartChar: uniE04C
Encoding: 57420 57420 17
Width: 1730
VWidth: -205
Flags: HMW
LayerCount: 3
Fore
SplineSet
335 606.4 m 1
 868 1150.4 l 1
 1396 615.4 l 1
 845 64.4004 l 1
 335 606.4 l 1
223 649.4 m 2
 215 640.4 210 627.4 210 614.4 c 0
 210 601.4 215 588.4 225 577.4 c 2
 738 32.4004 l 1
 447 29.4004 l 1
 458 -55.5996 l 1
 726 -53.5996 l 1
 572 -196.6 l 1
 634 -261.6 l 1
 802 -105.6 l 1
 801 -364.6 l 1
 815 -366.6 829 -367.6 843 -369.6 c 0
 857 -371.6 872 -372.6 886 -374.6 c 1
 887 -97.5996 l 1
 1063 -258.6 l 1
 1072 -248.6 1081 -239.6 1090 -229.6 c 0
 1099 -219.6 1107 -209.6 1116 -199.6 c 1
 955 -51.5996 l 1
 1205 -49.5996 l 1
 1194 35.4004 l 1
 971 33.4004 l 1
 1509 572.4 l 2
 1517 580.4 1522 594.4 1522 607.4 c 0
 1522 621.4 1517 635.4 1506 646.4 c 2
 900 1260.4 l 2
 890 1270.4 874 1277.4 858 1277.4 c 0
 846 1277.4 834 1273.4 825 1264.4 c 2
 223 649.4 l 2
EndSplineSet
EndChar
StartChar: uniE04D
Encoding: 57421 57421 22
Width: 845
VWidth: 0
Flags: W
LayerCount: 2
Back
SplineSet
153.11 400 m 29
 295.267 258.667 l 29
 438.389 400 l 29
 291.398 543.217 l 29
 153.11 400 l 29
286 704 m 25
0 400 m 25
 294 100 l 25
 590 400 l 25
 286 704 l 25
 0 400 l 25
EndSplineSet
Fore
SplineSet
136 387 m 2
 130 393 128 405 136 413 c 2
 274 556 l 2
 278 560 285 563 292 563 c 0
 298 563 303 561 308 557 c 2
 455 413 l 2
 462 406 463 395 455 387 c 2
 312 245 l 2
 309 242 301 239 294 239 c 0
 288 239 283 240 278 245 c 2
 136 387 l 2
183 400 m 1
 295 289 l 1
 408 400 l 1
 292 513 l 1
 183 400 l 1
286 704 m 25
-21 383 m 2
 -26 388 -27 394 -27 400 c 0
 -27 406 -25 411 -21 416 c 2
 265 720 l 2
 269 725 278 729 287 729 c 0
 294 729 300 727 306 721 c 2
 610 417 l 2
 614 413 617 406 617 400 c 0
 617 394 615 388 610 383 c 2
 314 83 l 2
 310 79 302 76 293 76 c 0
 286 76 279 77 273 83 c 2
 -21 383 l 2
37 400 m 1
 294 138 l 1
 553 400 l 1
 287 666 l 1
 37 400 l 1
EndSplineSet
Validated: 1
EndChar
StartChar: uniE04E
Encoding: 57422 57422 26
Width: 1730
VWidth: 0
Flags: HW
HStem: 604 61<770 950> 788 293<616 686 1031 1100> 788 61<688 786 932 1028>
VStem: 616 72<850 961> 791 113<1462 1667> 1028 72<850 958>
LayerCount: 3
Back
SplineSet
761.754 634.88 m 29
 436.061 634.88 l 29
 803.655 1050.83 l 29
 803.655 819.2 l 29
 390.983 819.2 l 29
 390.983 1050.83 l 29
 761.754 634.88 l 29
585.729 1441.79 m 25
 587.776 1769.47 l 25
 780.288 1638.4 l 25
585.729 1441.79 m 25
0 819.2 m 25
 602.112 204.8 l 25
 1208.32 819.2 l 25
 585.729 1441.79 l 25
 0 819.2 l 25
EndSplineSet
Fore
SplineSet
932 788 m 1xbc
 1051 653 l 2
 1071 633 1049 604 1022 604 c 2
 696 604 l 2
 678 604 662 619 662 635 c 0
 662 641 666 651 668 653 c 2
 788 788 l 1xbc
 651 788 l 2
 633 788 616 803 616 819 c 2
 616 1051 l 2
 616 1067 633 1081 651 1081 c 0
 663 1081 674 1075 680 1069 c 2
 858 868 l 1
 1036 1069 l 2
 1042 1077 1053 1081 1063 1081 c 0
 1081 1081 1100 1069 1100 1051 c 2
 1100 819 l 2
 1100 803 1083 788 1065 788 c 2xdc
 932 788 l 1xbc
932 850 m 1
 1028 850 l 1
 1028 958 l 1
 932 850 l 1
786 850 m 1
 688 961 l 1
 688 850 l 1
 786 850 l 1
860 768 m 1
 770 666 l 1
 950 666 l 1
 860 768 l 1
219 784 m 2
 211 794 205 807 205 819 c 0
 205 831 211 844 219 852 c 2
 791 1460 l 1
 793 1769 l 2
 793 1798 819 1821 850 1821 c 0
 862 1821 879 1814 883 1810 c 2
 1075 1679 l 1
 1008 1597 l 1
 905 1667 l 1
 903 1462 l 1
 1511 854 l 2
 1519 844 1524 831 1524 819 c 0
 1524 807 1519 794 1511 784 c 2
 905 170 l 2
 895 162 878 154 860 154 c 0
 846 154 833 158 821 170 c 2
 219 784 l 2
336 819 m 1
 862 283 l 1
 1393 819 l 1
 848 1364 l 1
 336 819 l 1
EndSplineSet
EndChar
StartChar: uniE04F
Encoding: 57423 57423 31
Width: 946
VWidth: 0
Flags: W
LayerCount: 2
Back
SplineSet
590 400 m 25
 691 614 l 29
 485 512 l 25
 579 715 l 29
 385 608 l 25
 461 827 l 29
 286 704 l 25
 135 862 l 25
 67 712 l 25
87 492 m 25
 384 192 l 25
286 704 m 25
0 400 m 25
 294 100 l 25
 590 400 l 25
 286 704 l 25
 0 400 l 25
EndSplineSet
Fore
SplineSet
164.058 400.336 m 1
 421.625 137.512 l 1
 474.974 191.581 l 1
 214.854 454.328 l 1
 164.058 400.336 l 1
107.022 383.37 m 2
 98.043 392.533 97.8066 406.842 106.656 416.249 c 2
 377.249 703.872 l 1
 271.01 815.036 l 1
 219.981 702.475 l 1
 169.13 721.525 l 1
 237.131 871.525 l 2
 238.264 874.025 241.314 878.34 244.52 880.872 c 0
 255.827 889.804 273.491 888.676 283.315 878.396 c 2
 417.281 738.22 l 1
 571.735 846.778 l 2
 578.604 851.606 588.25 853.302 596.829 850.842 c 0
 611.114 846.745 619.288 832.464 614.781 819.479 c 2
 560.768 663.832 l 1
 692.283 736.374 l 2
 698.904 740.025 708.94 741.212 717.225 738.042 c 0
 731.03 732.759 737.713 717.851 731.901 705.301 c 2
 668.373 568.105 l 1
 805.401 635.955 l 2
 811.888 639.167 821.511 640.051 829.398 636.975 c 0
 843.164 631.605 849.733 616.656 843.827 604.143 c 2
 742.827 390.143 l 1
 742.764 390.168 l 1
 741.651 387.714 740.081 385.39 738.026 383.307 c 2
 442.026 83.3066 l 2
 434.549 75.7285 413.659 70.4756 401.022 83.3701 c 2
 107.022 383.37 l 2
511.909 229.016 m 1
 680.503 399.888 l 1
 414.185 666.205 l 1
 250.908 492.652 l 1
 511.909 229.016 l 1
453.938 700.782 m 1
 499.951 654.77 l 1
 535.913 758.399 l 1
 453.938 700.782 l 1
553.422 601.298 m 1
 601.709 553.011 l 1
 648.3 653.628 l 1
 553.422 601.298 l 1
651.771 502.949 m 1
 709.143 445.578 l 1
 761.973 557.516 l 1
 651.771 502.949 l 1
EndSplineSet
Validated: 524321
EndChar
StartChar: uniE050
Encoding: 57424 57424 13
Width: 1000
VWidth: 0
Flags: HW
LayerCount: 2
Back
SplineSet
281.02 664.002 m 25
 -0 664 l 29
280.887 400 m 25
 0 400 l 25
0 139.017 m 9
 141.065 0 l 25
 281 138 l 17
 281.02 664.002 l 25
 141.065 804 l 25
 -0 664 l 25
 0 139.017 l 9
-0.0078125 139.011 m 25
 281 138.001 l 25
EndSplineSet
Fore
SplineSet
27.5 163.912 m 1
 253.5 163.1 l 1
 253.5 375 l 1
 27.5 375 l 1
 27.5 163.912 l 1
218.476 113.225 m 1
 63.0185 113.784 l 1
 141.059 36.8779 l 1
 218.476 113.225 l 1
308.288 134.937 m 0
 307.577 129.809 305.104 124.887 301.219 121.056 c 2
 161.285 -16.9512 l 2
 152.636 -25.4805 132.759 -28.6846 120.853 -16.9512 c 2
 -20.2129 122.065 l 2
 -23.9947 125.792 -26.4611 130.576 -27.2371 135.607 c 0
 -27.4154 136.754 -27.5052 137.923 -27.5 139.109 c 2
 -27.5 399.995 l 1
 -27.5 400 l 1
 -27.5 664 l 2
 -27.5 665.295 -27.3868 666.57 -27.169 667.816 c 0
 -26.3332 672.637 -23.9401 677.253 -20.2783 680.887 c 2
 120.787 820.887 l 2
 129.775 829.807 149.682 832.553 161.417 820.814 c 2
 301.371 680.816 l 2
 305.06 677.126 307.489 672.352 308.247 667.343 c 0
 308.414 666.248 308.5 665.132 308.5 664 c 2
 308.5 138.096 l 1
 308.5 137.902 l 2
 308.496 136.9 308.423 135.911 308.288 134.937 c 0
253.5 425 m 1
 253.5 639 l 1
 27.5 639 l 1
 27.5 425 l 1
 253.5 425 l 1
218.856 689 m 1
 140.985 766.908 l 1
 62.484 689 l 1
 218.856 689 l 1
EndSplineSet
EndChar
StartChar: uniE051
Encoding: 57425 57425 29
Width: 564
VWidth: 0
Flags: W
HStem: 160 50<154 410> 592 50<154 410>
VStem: 99 55<151 160 210 592 642 654> 410 54<149 159 209 592 642 653>
LayerCount: 3
Back
SplineSet
437.02 617.002 m 29
 127 617 l 29
127 185.017 m 5
 127 141 l 4
 282.065 0 l 5
 437 139 l 4
 437 184 l 5
 437.02 617.002 l 21
 437 663 l 4
 282.065 804 l 5
 127 664 l 4
 127 617 l 13
 127 185.017 l 5
126.992 185.011 m 29
 437 184.001 l 29
EndSplineSet
Fore
SplineSet
99 141 m 2
 99 664 l 2
 99 670 103 677 108 682 c 2
 263 822 l 2
 268.131 826.618 275.369 829.13 282.687 829.13 c 0
 289.63 829.13 296.644 826.869 302 822 c 2
 456 681 l 2
 460 677 464 670 464 663 c 2
 464 139 l 2
 464 133 461 126 456 121 c 2
 301 -18 l 2
 295.869 -22.6182 288.894 -25.1299 281.833 -25.1299 c 0
 275.133 -25.1299 268.356 -22.8687 263 -18 c 2
 108 123 l 2
 104 127 99 134 99 141 c 2
410 209 m 1
 410 592 l 1
 154 592 l 1
 154 210 l 1
 410 209 l 1
410 159 m 1
 154 160 l 1
 154 151 l 1
 282 35 l 1
 410 149 l 1
 410 159 l 1
154 642 m 1
 410 642 l 1
 410 653 l 1
 282 769 l 1
 154 654 l 1
 154 642 l 1
EndSplineSet
EndChar
StartChar: uniE052
Encoding: 57426 57426 58
Width: 564
VWidth: 0
Flags: W
HStem: 160 50<154 410> 375 50<154 410>
VStem: 99 55<151 160 210 375 425 654> 410 54<149 159 209 375 425 653>
LayerCount: 3
Fore
SplineSet
99 141 m 2
 99 664 l 2
 99 670 103 677 108 682 c 2
 263 822 l 2
 268.131 826.618 275.369 829.13 282.687 829.13 c 0
 289.63 829.13 296.644 826.869 302 822 c 2
 456 681 l 2
 460 677 464 670 464 663 c 2
 464 139 l 2
 464 133 461 126 456 121 c 2
 301 -18 l 2
 295.869 -22.6182 288.894 -25.1299 281.833 -25.1299 c 0
 275.133 -25.1299 268.356 -22.8687 263 -18 c 2
 108 123 l 2
 104 127 99 134 99 141 c 2
410 209 m 1
 410 375 l 1
 154 375 l 1
 154 210 l 1
 410 209 l 1
410 159 m 1
 154 160 l 1
 154 151 l 1
 282 35 l 1
 410 149 l 1
 410 159 l 1
154 425 m 1
 410 425 l 1
 410 653 l 1
 282 769 l 1
 154 654 l 1
 154 425 l 1
EndSplineSet
Validated: 1
EndChar
StartChar: uniE053
Encoding: 57427 57427 54
Width: 1359
VWidth: -205
Flags: HW
HStem: -256 102<715 977> 123 102<315 840> 563 102<315 840> 1007 102<315 840> 1382 102<719 963>
VStem: 203 113<104 123 225 563 665 1007 1110 1132> 840 111<100 121 223 563 665 1007 1110 1130>
LayerCount: 3
Back
SplineSet
577.669 -205 m 25
 1097.73 -205 l 25
 860.16 48.9521 l 25
577.669 1433.4 m 25
 1097.73 1433.4 l 25
 841.729 1199.93 l 25
895.017 1058.62 m 25
 260.096 1058.62 l 25
894.744 614.2 m 25
 260.096 614.2 l 25
260.096 173.915 m 1
 260.096 83.7676 l 0
 577.669 -205 l 1
 894.976 79.6719 l 0
 894.976 171.832 l 1
 895.017 1058.62 l 17
 894.976 1152.82 l 0
 577.669 1435.45 l 1
 260.096 1154.87 l 0
 260.096 1058.62 l 9
 260.096 173.915 l 1
260.08 173.902 m 25
 894.976 171.834 l 25
EndSplineSet
Fore
SplineSet
203 84 m 2
 203 1155 l 2
 203 1167 211 1182 221 1192 c 2
 539 1472 l 2
 550 1481 564 1486 578 1486 c 0
 583 1486 587 1486 592 1485 c 1
 1098 1485 l 2
 1129 1485 1155 1462 1155 1433 c 0
 1155 1419 1147 1407 1137 1397 c 2
 922 1200 l 1
 934 1190 l 2
 942 1182 950 1167 950 1153 c 2
 950 80 l 2
 950 70 948 55 938 45 c 1
 1141 -172 l 2
 1149 -180 1155 -193 1155 -205 c 0
 1155 -234 1129 -256 1098 -256 c 2
 578 -256 l 1
 564 -256 549 -252 539 -242 c 2
 221 47 l 2
 213 55 203 70 203 84 c 2
840 223 m 1
 840 563 l 1
 315 563 l 1
 315 225 l 1
 840 223 l 1
840 121 m 1
 315 123 l 1
 315 104 l 1
 578 -133 l 1
 840 100 l 1
 840 121 l 1
315 665 m 1
 840 665 l 1
 840 1007 l 1
 315 1007 l 1
 315 665 l 1
315 1110 m 1
 840 1110 l 1
 840 1130 l 1
 578 1364 l 1
 315 1132 l 1
 315 1110 l 1
719 1382 m 1
 842 1272 l 1
 963 1382 l 1
 719 1382 l 1
856 -27 m 1
 715 -154 l 1
 977 -154 l 1
 856 -27 l 1
EndSplineSet
EndChar
StartChar: uniE054
Encoding: 57428 57428 55
Width: 1155
VWidth: 0
Flags: MW
LayerCount: 3
Back
SplineSet
536.576 370.688 m 0
 536.576 391.168 555.008 409.6 575.488 409.6 c 0
 595.968 409.6 614.4 391.168 614.4 370.688 c 0
 614.4 350.208 595.968 331.776 575.488 331.776 c 0
 555.008 331.776 536.576 350.208 536.576 370.688 c 0
536.576 819.2 m 0
 536.576 839.68 555.008 858.112 575.488 858.112 c 0
 595.968 858.112 614.4 839.68 614.4 819.2 c 0
 614.4 798.72 595.968 780.288 575.488 780.288 c 0
 555.008 780.288 536.576 798.72 536.576 819.2 c 0
536.576 1263.62 m 4
 536.576 1284.1 555.008 1302.53 575.488 1302.53 c 4
 595.968 1302.53 614.4 1284.1 614.4 1263.62 c 4
 614.4 1243.14 595.968 1224.7 575.488 1224.7 c 4
 555.008 1224.7 536.576 1243.14 536.576 1263.62 c 4
260.096 378.915 m 1
 260.096 288.768 l 0
 577.669 0 l 1
 894.976 284.672 l 0
 894.976 376.832 l 1
 895.017 1263.62 l 17
 894.976 1357.82 l 0
 577.669 1646.59 l 1
 260.096 1359.87 l 0
 260.096 1263.62 l 9
 260.096 378.915 l 1
EndSplineSet
Fore
SplineSet
315 1339 m 1
 315 309 l 1
 578 72 l 1
 840 305 l 1
 840 1337 l 1
 578 1575 l 1
 315 1339 l 1
203 289 m 2
 203 1360 l 2
 203 1372 211 1387 221 1397 c 2
 539 1683 l 2
 550 1692 564 1698 579 1698 c 0
 593 1698 607 1693 618 1683 c 2
 934 1395 l 2
 942 1387 950 1372 950 1358 c 2
 950 285 l 2
 950 273 944 258 934 248 c 2
 616 -37 l 2
 605 -46 591 -51 577 -51 c 0
 563 -51 550 -47 539 -37 c 2
 221 252 l 2
 213 260 203 275 203 289 c 2
479 1264 m 0
 479 1309 518 1354 575 1354 c 0
 632 1354 672 1309 672 1264 c 0
 672 1219 632 1174 575 1174 c 0
 518 1174 479 1219 479 1264 c 0
479 819 m 0
 479 864 518 909 575 909 c 0
 632 909 672 864 672 819 c 0
 672 774 632 729 575 729 c 0
 518 729 479 774 479 819 c 0
479 371 m 0
 479 416 518 461 575 461 c 0
 632 461 672 416 672 371 c 0
 672 326 632 281 575 281 c 0
 518 281 479 326 479 371 c 0
EndSplineSet
EndChar
StartChar: uniE055
Encoding: 57429 57429 61
Width: 564
VWidth: 0
Flags: W
HStem: 127 88<291.913 371.397> 357 88<291.913 371.397> 573 88<292.913 373.103> 611 50<163 296.905>
VStem: 99 55<151 165 215 395 445 611> 410 54<149 653>
LayerCount: 2
Back
SplineSet
332 190 m 25
 127 190 l 25
313 171 m 0
 313 181 322 190 332 190 c 0
 342 190 351 181 351 171 c 0
 351 161 342 152 332 152 c 0
 322 152 313 161 313 171 c 0
332 420 m 25
 127 420 l 25
313 401 m 0
 313 411 322 420 332 420 c 0
 342 420 351 411 351 401 c 0
 351 391 342 382 332 382 c 0
 322 382 313 391 313 401 c 0
333 636 m 25
 128 636 l 25
314 617 m 0
 314 627 323 636 333 636 c 0
 343 636 352 627 352 617 c 0
 352 607 343 598 333 598 c 0
 323 598 314 607 314 617 c 0
127 185.017 m 1
 127 141 l 0
 282.065 0 l 1
 437 139 l 0
 437 184 l 1
 437.02 617.002 l 17
 437 663 l 0
 282.065 804 l 1
 127 664 l 0
 127 617 l 9
 127 185.017 l 1
EndSplineSet
Fore
SplineSet
99 141 m 2xcc
 99 664 l 2
 99 670 103 677 108 682 c 2
 263 822 l 2
 268.131 826.618 275.369 829.13 282.687 829.13 c 0
 289.63 829.13 296.644 826.869 302 822 c 2
 456 681 l 2
 460 677 464 670 464 663 c 2
 464 139 l 2
 464 133 461 126 456 121 c 2
 301 -18 l 2
 295.869 -22.6182 288.894 -25.1299 281.833 -25.1299 c 0
 275.133 -25.1299 268.356 -22.8687 263 -18 c 2
 108 123 l 2
 104 127 99 134 99 141 c 2xcc
163 661 m 1xdc
 333 661 l 2
 361 661 380 639 380 617 c 0
 380 595 361 573 333 573 c 0xec
 308 573 290 591 287 611 c 1
 154 611 l 1
 154 445 l 1
 332 445 l 2
 360 445 378 423 378 401 c 0
 378 379 360 357 332 357 c 0
 307 357 289 375 286 395 c 1
 154 395 l 1
 154 215 l 1
 332 215 l 2
 360 215 378 193 378 171 c 0
 378 149 360 127 332 127 c 0
 307 127 289 145 286 165 c 1
 154 165 l 1
 154 151 l 1
 282 35 l 1
 410 149 l 1
 410 653 l 1
 282 769 l 1
 163 661 l 1xdc
EndSplineSet
Validated: 524289
EndChar
StartChar: uniE056
Encoding: 57430 57430 62
Width: 564
VWidth: 0
Flags: W
HStem: 159 50<154 253 308 410> 375 50<154 253 308 410>
VStem: 99 55<151 160 210 375 425 654> 253 55<210 375> 410 54<149 159 209 375 425 653>
LayerCount: 3
Back
SplineSet
281 185 m 25
 281 400 l 25
436.887 400 m 25
 127 400 l 25
127 185.017 m 1
 127 141 l 0
 282.065 0 l 1
 437 139 l 0
 437 184 l 1
 437.02 617.002 l 17
 437 663 l 0
 282.065 804 l 1
 127 664 l 0
 127 617 l 9
 127 185.017 l 1
126.992 185.011 m 25
 437 184.001 l 25
EndSplineSet
Fore
SplineSet
99 141 m 2
 99 664 l 2
 99 670 103 677 108 682 c 2
 263 822 l 2
 268.131 826.618 275.369 829.13 282.687 829.13 c 0
 289.63 829.13 296.644 826.869 302 822 c 2
 456 681 l 2
 460 677 464 670 464 663 c 2
 464 139 l 2
 464 133 461 126 456 121 c 2
 301 -18 l 2
 295.869 -22.6182 288.894 -25.1299 281.833 -25.1299 c 0
 275.133 -25.1299 268.356 -22.8687 263 -18 c 2
 108 123 l 2
 104 127 99 134 99 141 c 2
410 209 m 1
 410 375 l 1
 308 375 l 1
 308 209 l 1
 410 209 l 1
410 159 m 1
 154 160 l 1
 154 151 l 1
 282 35 l 1
 410 149 l 1
 410 159 l 1
154 210 m 1
 253 210 l 1
 253 375 l 1
 154 375 l 1
 154 210 l 1
154 425 m 1
 410 425 l 1
 410 653 l 1
 282 769 l 1
 154 654 l 1
 154 425 l 1
EndSplineSet
Validated: 1
EndChar
StartChar: uniE057
Encoding: 57431 57431 49
Width: 1155
VWidth: -205
Flags: HW
HStem: 563 102<315 840>
VStem: 203 113<110 563 665 1128> 840 111<106 563 665 1126>
LayerCount: 3
Back
SplineSet
894.976 1543.99 m 25
 577.669 1349.43 l 25
 249.856 1543.99 l 25
577.669 -116.936 m 25
 249.856 -313.544 l 25
577.669 -116.936 m 25
 890.88 -313.544 l 25
894.744 614.2 m 25
 260.096 614.2 l 25
260.096 173.915 m 1
 260.096 83.7676 l 0
 577.669 -116.936 l 1
 894.976 79.6719 l 0
 894.976 171.832 l 1
 895.017 1058.62 l 17
 894.976 1152.82 l 0
 577.669 1351.48 l 1
 260.096 1154.87 l 0
 260.096 1058.62 l 9
 260.096 173.915 l 1
EndSplineSet
Fore
SplineSet
203 84 m 2
 203 1155 l 2
 203 1169 213 1188 229 1198 c 2
 475 1349 l 1
 219 1501 l 1
 281 1587 l 1
 578 1411 l 1
 864 1587 l 1
 926 1501 l 1
 680 1349 l 1
 928 1196 l 2
 942 1188 950 1169 950 1153 c 2
 950 80 l 2
 950 66 942 47 926 37 c 2
 678 -117 l 1
 924 -271 l 1
 858 -357 l 1
 578 -178 l 1
 281 -357 l 1
 219 -271 l 1
 477 -115 l 1
 227 41 l 2
 213 49 203 68 203 84 c 2
315 665 m 1
 840 665 l 1
 840 1126 l 1
 578 1290 l 1
 315 1128 l 1
 315 665 l 1
315 563 m 1
 315 110 l 1
 578 -55 l 1
 840 106 l 1
 840 563 l 1
 315 563 l 1
EndSplineSet
EndChar
StartChar: uniE058
Encoding: 57432 57432 14
Width: 1000
VWidth: 0
Flags: HW
LayerCount: 2
Back
SplineSet
809 330.408 m 25
 872 522 l 25
 716 422 l 25
 752 624 l 25
 594 480 l 25
 566 710 l 25
 457 498 l 25
809 330.408 m 0
 737.359 430.771 606.48 498 457 498 c 0
105 330.408 m 25
 42 522 l 25
 198 422 l 25
 162 624 l 25
 320 480 l 25
 348 710 l 25
 457 498 l 25
105 330.408 m 0
 176.641 430.771 307.52 498 457 498 c 0
EndSplineSet
Fore
SplineSet
128.068 316.799 m 0
 115.544 299.254 84.8017 304.544 78.6514 323.248 c 2
 15.6514 514.84 l 2
 8.65809 536.113 36.2306 556.285 57.8477 542.432 c 2
 160.394 476.697 l 1
 134.854 620.002 l 2
 130.603 643.854 163.919 657.65 181.47 641.655 c 2
 298.975 534.562 l 1
 320.666 712.75 l 2
 323.849 738.902 362.663 740.523 372.912 720.586 c 2
 457 557.04 l 1
 541.088 720.586 l 2
 551.91 741.636 590.223 738.309 593.334 712.75 c 2
 615.025 534.562 l 1
 732.53 641.655 l 2
 750.904 658.4 783.302 643.32 779.146 620.002 c 2
 753.606 476.697 l 1
 856.152 542.432 l 2
 877.968 556.415 905.307 536.006 898.349 514.84 c 2
 835.349 323.248 l 2
 829.145 304.386 798.904 298.627 785.932 316.799 c 0
 719.534 409.816 597.396 473 457.001 473 c 0
 316.604 473 194.465 409.816 128.068 316.799 c 0
115.778 384.919 m 1
 127.515 397.243 140.163 408.91 153.633 419.85 c 1
 91.1133 459.927 l 1
 115.778 384.919 l 1
218.486 463.37 m 1
 235.519 472.731 253.364 481.114 271.909 488.429 c 1
 202.793 551.421 l 1
 218.486 463.37 l 1
351.589 512.208 m 1
 372.096 516.49 393.161 519.549 414.669 521.292 c 1
 364.56 618.752 l 1
 351.589 512.208 l 1
499.332 521.293 m 1
 520.839 519.549 541.905 516.49 562.411 512.209 c 1
 549.441 618.752 l 1
 499.332 521.293 l 1
642.091 488.43 m 1
 660.636 481.115 678.482 472.731 695.515 463.37 c 1
 700.746 492.72 705.976 522.071 711.207 551.421 c 1
 642.091 488.43 l 1
760.366 419.85 m 1
 773.837 408.91 786.485 397.243 798.222 384.919 c 1
 822.887 459.927 l 1
 760.366 419.85 l 1
EndSplineSet
EndChar
StartChar: uniE059
Encoding: 57433 57433 306
Width: 2292
VWidth: -205
Flags: W
HStem: 763 100<1058.78 1256.94>
VStem: 601 110<782 1016> 1597 110<772 1011>
LayerCount: 3
Back
SplineSet
424 474 m 21
 764 927 1519.29 927.295 1868 471 c 13
 2032 933 l 29
 1652 671 l 29
 1654 1157 l 29
 1342 795 l 21
 1162 1234.74 l 29
 972 801 l 29
 648 1159 l 13
 658 689 l 29
 260 921 l 29
 424 474 l 21
EndSplineSet
Fore
SplineSet
1741 670 m 1
 1779 642 1814 610 1847 576 c 1
 1926 797 l 1
 1741 670 l 1
1597 758 m 1
 1598 1011 l 1
 1435 822 l 1
 1491 806 1545 784 1597 758 c 1
1258 857 m 1
 1160 1096 l 1
 1057 860 l 1
 1085 862 1113 863 1141 863 c 0
 1258 857 l 1
875 829 m 1
 706 1016 l 1
 711 770 l 1
 764 795 819 814 875 829 c 1
565 684 m 1
 361 802 l 1
 444 579 l 1
 482 619 522 653 565 684 c 1
469 446 m 0
 464 439 453 430 441 427 c 0
 435 425 429 424 423 424 c 0
 400 424 379 437 372 458 c 0
 208 905 l 0
 206 910 205 915 205 920 c 0
 205 930 208 940 214 948 c 0
 224 963 243 971 261 971 c 0
 271 971 281 968 290 963 c 0
 601 782 l 1
 593 1158 l 0
 593 1171 600 1188 613 1198 c 0
 623 1205 635 1209 647 1209 c 0
 663 1209 679 1203 690 1191 c 0
 955 898 l 1
 1111 1253 l 0
 1117 1266 1128 1277 1143 1282 c 0
 1149 1284 1155 1285 1161 1285 c 0
 1184 1285 1206 1272 1214 1252 c 0
 1359 896 l 1
 1611 1188 l 0
 1621 1199 1637 1207 1654 1207 c 0
 1684 1207 1709 1184 1709 1157 c 0
 1707 772 l 1
 1999 973 l 0
 2012 982 2032 986 2049 981 c 0
 2072 975 2087 954 2087 933 c 0
 2087 928 2086 923 2084 918 c 0
 1920 456 l 0
 1917 448 1909 436 1899 430 c 0
 1889 424 1879 421 1868 421 c 0
 1851 421 1833 428 1823 442 c 0
 1763 521 1690 585 1609 635 c 0
 1521 689 1425 726 1324 746 c 0
 1265 758 1204 763 1144 763 c 0
 1090 763 1037 759 985 750 c 0
 883 733 784 698 695 646 c 0
 687 641 679 636 671 631 c 0
 594 583 526 521 469 446 c 0
EndSplineSet
EndChar
StartChar: uniE05B
Encoding: 57435 57435 309
Width: 2222
VWidth: -205
Flags: HW
LayerCount: 3
Back
SplineSet
392 474 m 21
 732 927 1487.29 927.295 1836 471 c 13
 1929 981 l 29
 1560 717 l 29
 1476 1234.74 l 29
 1116 834 l 29
 753 1224 l 29
 675 717 l 29
 303 960 l 29
 392 474 l 21
EndSplineSet
Fore
SplineSet
1644.64 713.926 m 1
 1700.99 678.73 1754.13 636.972 1801.89 589.691 c 1
 1851.54 861.955 l 1
 1644.64 713.926 l 1
1492.42 790.859 m 1
 1439.77 1115.37 l 1
 1209.26 858.771 l 1
 1306.15 849.538 1402.04 826.912 1492.42 790.859 c 1
1020.04 859.69 m 1
 790.438 1106.37 l 1
 742.799 796.716 l 1
 831.294 830.564 925.183 851.57 1020.04 859.69 c 1
581.329 716.619 m 1
 379.141 848.694 l 1
 425.877 593.478 l 1
 473.136 640.631 525.464 681.714 581.329 716.619 c 1
437.432 445.819 m 0
 430.132 436.094 416.052 426.952 401.032 424.679 c 0
 371.481 420.207 342.666 438.925 337.747 465.789 c 0
 248.747 951.789 l 0
 246.682 963.064 249.669 978.213 258.335 989.177 c 0
 275.816 1011.29 310.766 1016.5 335.094 1000.6 c 0
 633.144 805.911 l 1
 698.53 1230.93 l 0
 700.2 1241.78 707.078 1254.17 717.473 1262.17 c 0
 740.341 1279.76 775.637 1277.09 794.986 1256.3 c 0
 1115.25 912.212 l 1
 1433.4 1266.37 l 0
 1440.04 1273.75 1454.09 1282.34 1467.97 1284.21 c 0
 1497.61 1288.18 1526.04 1268.98 1530.41 1242.04 c 0
 1600.56 809.648 l 1
 1894.99 1020.29 l 0
 1906.27 1028.37 1922.68 1032.64 1938 1030.33 c 0
 1967.55 1025.87 1988.16 999.69 1983.26 972.822 c 0
 1890.26 462.822 l 0
 1887.88 449.795 1879.52 437.605 1867.38 429.938 c 0
 1842.78 414.398 1807.92 420.104 1790.83 442.472 c 0
 1716.04 540.336 1621.67 615.515 1516.46 668.563 c 0
 1392.31 731.163 1252.94 762.859 1113.66 763.478 c 0
 974.379 764.096 835.485 733.629 712.271 672.494 c 0
 687.272 660.09 662.913 646.424 639.314 631.493 c 0
 562.671 583.003 494.025 521.22 437.432 445.819 c 0
EndSplineSet
EndChar
StartChar: uniE05D
Encoding: 57437 57437 318
Width: 1732
VWidth: -205
Flags: HW
LayerCount: 3
Back
SplineSet
460 156 m 25
 386.335 1073.96 l 25
 781.585 636.133 l 25
 1123.61 1349.23 l 17
 1502.83 632.68 l 25
 1858 1029 l 25
 1804 138 l 25
304 0 m 17
 1123.61 790.917 l 1
 1928.48 0 l 9
457.442 204.747 m 25
 386.335 1073.96 l 25
 781.585 636.133 l 25
 1123.61 1349.23 l 17
 1502.83 632.68 l 25
 1858 1029 l 25
 1804.74 181.568 l 25
304 0 m 17
 1123.61 790.917 l 1
 1928.48 0 l 9
EndSplineSet
Fore
SplineSet
344 -34 m 1
 264 34 l 1
 404 169 l 1
 331 1070 l 2
 329 1097 352 1122 382 1124 c 0
 401 1125 421 1115 429 1106 c 2
 767 731 l 1
 1073 1369 l 2
 1082 1388 1104 1399 1125 1399 c 0
 1132 1399 1139 1398 1146 1395 c 0
 1159 1390 1170 1377 1173 1371 c 2
 1515 725 l 1
 1815 1061 l 2
 1826 1073 1842 1079 1858 1079 c 0
 1870 1079 1883 1075 1893 1068 c 0
 1907 1058 1914 1042 1913 1026 c 2
 1859 142 l 1
 1969 34 l 1
 1888 -34 l 1
 1123 718 l 1
 344 -34 l 1
506 268 m 1
 1084 825 l 2
 1095 835 1110 840 1124 840 c 0
 1139 840 1153 835 1164 825 c 2
 1755 244 l 1
 1768 455 1781 667 1794 878 c 1
 1545 601 l 2
 1541 596 1534 591 1527 588 c 0
 1519 585 1511 583 1503 583 c 0
 1482 583 1462 593 1453 611 c 2
 1126 1229 l 1
 832 616 l 2
 829 610 823 602 816 597 c 0
 806 590 794 586 782 586 c 0
 766 586 750 592 739 604 c 2
 454 920 l 1
 506 268 l 1
EndSplineSet
EndChar
StartChar: uniE05E
Encoding: 57438 57438 312
Width: 2620
VWidth: 0
Flags: W
HStem: -50 100<405 822 1814 2197> 578 100<391 835 1792 2229>
VStem: 852 111<707 1179.61> 870 107<814.39 1188> 1648 111<714 1185>
LayerCount: 3
Back
SplineSet
1314 959 m 25
 273 0 l 25
 954 0 l 25
 260 636 l 25
 906 639 l 25
 925 1304 l 25
 1314 959 l 25
 1692 1304 l 25
 1705 628 l 25
 2360 628 l 25
 1683 0 l 25
 2326 0 l 25
 1314 959 l 25
EndSplineSet
Fore
SplineSet
1931 302 m 1xe8
 1313 887 l 1
 690 313 l 1
 993 35 l 0
 1001 28 1009 14 1009 0 c 0
 1009 -27 984 -50 954 -50 c 0
 273 -50 l 0
 259 -50 244 -45 234 -36 c 0
 223 -26 218 -13 218 0 c 0
 218 13 224 25 234 35 c 0
 535 313 l 1
 221 601 l 0
 211 611 205 623 205 636 c 0
 205 649 210 661 221 671 c 0
 231 680 246 686 260 686 c 0
 852 689 l 1xe8
 870 1305 l 0xd8
 871 1332 896 1354 925 1354 c 0
 926 1354 l 0
 940 1354 955 1347 963 1340 c 0
 1313 1029 l 1
 1653 1339 l 0
 1664 1349 1678 1354 1692 1354 c 0
 1706 1354 1720 1349 1731 1339 c 0
 1741 1330 1747 1317 1747 1305 c 0
 1759 678 l 1
 2360 678 l 0
 2390 678 2415 655 2415 628 c 0
 2415 615 2408 602 2399 593 c 0
 2085 301 l 1
 2366 35 l 0
 2374 27 2381 13 2381 0 c 0
 2381 -27 2356 -50 2326 -50 c 0
 1683 -50 l 0
 1670 -50 1655 -45 1645 -36 c 0
 1634 -26 1628 -13 1628 0 c 0
 1628 13 1634 25 1644 35 c 0
 1931 302 l 1xe8
613 384 m 1
 835 589 l 1
 391 587 l 1
 613 384 l 1
613 242 m 1
 405 50 l 1
 822 50 l 1
 613 242 l 1
1236 958 m 1
 977 1188 l 1xd8
 963 707 l 1
 1236 958 l 1
1792 578 m 1
 2008 373 l 1
 2229 578 l 1
 1792 578 l 1
1391 958 m 1
 1648 714 l 1
 1639 1185 l 1
 1391 958 l 1
2008 230 m 1
 1814 50 l 1
 2197 50 l 1
 2008 230 l 1
EndSplineSet
EndChar
StartChar: uniE060
Encoding: 57440 57440 15
Width: 741
VWidth: 0
Flags: W
HStem: 0 21G<344 398.066>
VStem: 100 95<780.281 834.723> 325 95<780.379 850.723> 344 55<0 301 495 814.299> 546 95<779.282 834.723>
LayerCount: 2
Back
SplineSet
19.5 799 m 0
 19.5 808.936 28.46 817 39.5 817 c 0
 50.54 817 59.5 808.936 59.5 799 c 0
 59.5 789.064 50.54 781 39.5 781 c 0
 28.46 781 19.5 789.064 19.5 799 c 0
465.5 799 m 0
 465.5 808.936 474.46 817 485.5 817 c 0
 496.54 817 505.5 808.936 505.5 799 c 0
 505.5 789.064 496.54 781 485.5 781 c 0
 474.46 781 465.5 789.064 465.5 799 c 0
244.5 815 m 0
 244.5 824.936 253.46 833 264.5 833 c 0
 275.54 833 284.5 824.936 284.5 815 c 0
 284.5 805.064 275.54 797 264.5 797 c 0
 253.46 797 244.5 805.064 244.5 815 c 0
486 800 m 25
 42 0 l 25
264 816 m 25
 263 0 l 25
40 800 m 25
 486 0 l 25
EndSplineSet
Fore
SplineSet
325 815 m 0xe8
 325 839 347 858 373 858 c 0
 399 858 420 839 420 815 c 0xe8
 420 800 411 788 399 780 c 1
 399 495 l 1
 551 779 l 1
 547 785 546 792 546 799 c 0
 546 823 568 842 594 842 c 0
 620 842 641 823 641 799 c 0
 641 777 624 759 601 756 c 1
 407 399 l 1
 619 11 l 1
 569 -11 l 1
 399 301 l 1
 398 -0 l 1
 344 0 l 1
 344 301 l 1
 175 -11 l 1
 125 11 l 1
 336 399 l 1
 142 756 l 1
 119 759 100 777 100 799 c 0
 100 823 122 842 148 842 c 0
 174 842 195 823 195 799 c 0
 195 792 193 786 190 780 c 1
 344 495 l 1
 344 587 344 688 344 780 c 1xd8
 332 788 325 801 325 815 c 0xe8
EndSplineSet
Validated: 1
EndChar
StartChar: uniE061
Encoding: 57441 57441 123
Width: 1683
VWidth: 0
Flags: HW
HStem: 692 92<317 649 1034 1360> 858 102<319 645 1034 1362>
VStem: 784 113<963 1487>
LayerCount: 3
Back
SplineSet
317.44 819.2 m 21
 664.918 819.2 1012.39 819.2 1359.87 819.2 c 13
319.488 909.312 m 29
 1361.92 909.312 l 29
260.096 1439.74 m 4
 260.096 1471.4 287.621 1497.09 321.536 1497.09 c 4
 355.451 1497.09 382.976 1471.4 382.976 1439.74 c 4
 382.976 1408.09 355.451 1382.4 321.536 1382.4 c 4
 287.621 1382.4 260.096 1408.09 260.096 1439.74 c 4
782.336 1548.29 m 4
 782.336 1579.94 809.861 1605.63 843.776 1605.63 c 4
 877.691 1605.63 905.216 1579.94 905.216 1548.29 c 4
 905.216 1516.63 877.691 1490.94 843.776 1490.94 c 4
 809.861 1490.94 782.336 1516.63 782.336 1548.29 c 4
1298.43 1439.74 m 4
 1298.43 1471.4 1325.96 1497.09 1359.87 1497.09 c 4
 1393.79 1497.09 1421.31 1471.4 1421.31 1439.74 c 4
 1421.31 1408.09 1393.79 1382.4 1359.87 1382.4 c 4
 1325.96 1382.4 1298.43 1408.09 1298.43 1439.74 c 4
1359.87 1441.79 m 29
 323.584 200.704 l 29
841.729 1552.38 m 29
 839.68 819.2 l 29
319.488 1441.79 m 29
 1359.87 200.704 l 29
EndSplineSet
Fore
SplineSet
324 1446 m 2
 322 1446 l 0
 320 1446 315 1444 315 1440 c 2
 324 1446 l 2
840 1552 m 2
 848 1552 l 2
 846 1554 844 1554 844 1554 c 0
 844 1554 842 1554 840 1552 c 2
1356 1444 m 2
 1364 1438 l 2
 1364 1440 l 0
 1364 1444 1362 1446 1360 1446 c 0
 1360 1446 1358 1446 1356 1444 c 2
1241 1440 m 0
 1241 1499 1294 1548 1360 1548 c 0
 1426 1548 1479 1499 1479 1440 c 0
 1479 1381 1426 1331 1360 1331 c 0
 1354 1331 1345 1331 1339 1333 c 1
 1034 950 l 1
 1362 961 l 1
 1362 858 l 1
 950 858 l 1
 918 819 l 1
 948 784 l 1
 1360 784 l 1
 1360 682 l 1
 1034 692 l 1
 1405 231 l 1
 1315 170 l 1
 885 692 l 1
 797 692 l 1
 369 170 l 1
 279 231 l 1
 649 692 l 1
 317 682 l 1
 317 784 l 1
 733 784 l 1
 764 819 l 1
 731 858 l 1
 319 858 l 1
 319 961 l 1
 645 950 l 1
 340 1333 l 1
 334 1333 328 1331 322 1331 c 0
 256 1331 205 1381 205 1440 c 0
 205 1499 256 1548 322 1548 c 0
 388 1548 438 1499 438 1440 c 0
 438 1424 436 1409 430 1395 c 1
 784 963 l 1
 784 1454 l 1
 749 1472 725 1509 725 1548 c 0
 725 1607 778 1657 844 1657 c 0
 910 1657 963 1607 963 1548 c 0
 963 1507 936 1470 897 1452 c 1
 897 961 l 1
 1251 1397 l 1
 1245 1409 1241 1426 1241 1440 c 0
EndSplineSet
EndChar
StartChar: uniE062
Encoding: 57442 57442 104
Width: 1681
VWidth: -205
Flags: HW
HStem: -111 217<226 342 1339 1454> 1126 217<226 339 1339 1454>
VStem: 203 236<-87 38 1191 1320> 782 113<-48 477 761 1347> 1241 236<-87 40 1193 1320>
LayerCount: 3
Back
SplineSet
260.096 -2.24805 m 4
 260.096 -33.9023 287.621 -59.5918 321.536 -59.5918 c 4
 355.451 -59.5918 382.976 -33.9023 382.976 -2.24805 c 4
 382.976 29.4062 355.451 55.0957 321.536 55.0957 c 4
 287.621 55.0957 260.096 29.4062 260.096 -2.24805 c 4
782.336 -110.792 m 4
 782.336 -142.446 809.861 -168.136 843.776 -168.136 c 4
 877.691 -168.136 905.216 -142.446 905.216 -110.792 c 4
 905.216 -79.1377 877.691 -53.4482 843.776 -53.4482 c 4
 809.861 -53.4482 782.336 -79.1377 782.336 -110.792 c 4
1298.43 -2.24805 m 4
 1298.43 -33.9023 1325.96 -59.5918 1359.87 -59.5918 c 4
 1393.79 -59.5918 1421.31 -33.9023 1421.31 -2.24805 c 4
 1421.31 29.4062 1393.79 55.0957 1359.87 55.0957 c 4
 1325.96 55.0957 1298.43 29.4062 1298.43 -2.24805 c 4
260.096 1234.74 m 4
 260.096 1266.4 287.621 1292.09 321.536 1292.09 c 4
 355.451 1292.09 382.976 1266.4 382.976 1234.74 c 4
 382.976 1203.09 355.451 1177.4 321.536 1177.4 c 4
 287.621 1177.4 260.096 1203.09 260.096 1234.74 c 4
1298.43 1234.74 m 4
 1298.43 1266.4 1325.96 1292.09 1359.87 1292.09 c 4
 1393.79 1292.09 1421.31 1266.4 1421.31 1234.74 c 4
 1421.31 1203.09 1393.79 1177.4 1359.87 1177.4 c 4
 1325.96 1177.4 1298.43 1203.09 1298.43 1234.74 c 4
1359.87 1236.79 m 29
 323.584 -4.2959 l 29
841.729 1347.38 m 29
 839.68 -123.08 l 29
319.488 1236.79 m 29
 1359.87 -4.2959 l 29
EndSplineSet
Fore
SplineSet
784 1347 m 5
 897 1347 l 5
 896 761 l 5
 1251 1192 l 5
 1245 1205 1241 1220 1241 1235 c 4
 1241 1294 1293 1343 1359 1343 c 4
 1425 1343 1477 1294 1477 1235 c 4
 1477 1176 1425 1126 1359 1126 c 4
 1352 1126 1346 1127 1339 1128 c 5
 921 615 l 5
 1338 105 l 5
 1345 106 1352 106 1359 106 c 4
 1425 106 1477 57 1477 -2 c 4
 1477 -61 1425 -111 1359 -111 c 4
 1293 -111 1241 -61 1241 -2 c 4
 1241 13 1245 27 1251 40 c 5
 896 478 l 5
 895 -14 l 5
 934 -32 961 -69 961 -111 c 4
 961 -170 909 -219 843 -219 c 4
 777 -219 725 -170 725 -111 c 4
 725 -72 747 -36 782 -17 c 5
 782 143 783 317 783 477 c 5
 429 39 l 5
 435 26 438 13 438 -2 c 4
 438 -61 387 -111 321 -111 c 4
 255 -111 203 -61 203 -2 c 4
 203 57 255 106 321 106 c 4
 329 106 336 105 343 104 c 5
 761 615 l 5
 339 1128 l 5
 333 1127 327 1126 321 1126 c 4
 255 1126 203 1176 203 1235 c 4
 203 1294 255 1343 321 1343 c 4
 387 1343 438 1294 438 1235 c 4
 438 1219 435 1205 428 1191 c 5
 784 760 l 5
 784 1347 l 5
EndSplineSet
EndChar
StartChar: uniE063
Encoding: 57443 57443 108
Width: 1683
VWidth: -205
Flags: HW
HStem: 1126 217<228 340 1340 1455>
VStem: 205 233<1190 1320> 784 113<-18 479 751 1282> 1241 238<1192 1318>
LayerCount: 3
Back
SplineSet
780.288 -114.888 m 0
 780.288 -146.542 807.812 -172.232 841.729 -172.232 c 0
 875.643 -172.232 903.168 -146.542 903.168 -114.888 c 0
 903.168 -83.2344 875.643 -57.5439 841.729 -57.5439 c 0
 807.812 -57.5439 780.288 -83.2344 780.288 -114.888 c 0
260.096 1234.74 m 0
 260.096 1266.4 287.621 1292.09 321.536 1292.09 c 0
 355.451 1292.09 382.976 1266.4 382.976 1234.74 c 0
 382.976 1203.09 355.451 1177.4 321.536 1177.4 c 0
 287.621 1177.4 260.096 1203.09 260.096 1234.74 c 0
782.336 1343.29 m 0
 782.336 1374.94 809.861 1400.63 843.776 1400.63 c 0
 877.691 1400.63 905.216 1374.94 905.216 1343.29 c 0
 905.216 1311.63 877.691 1285.94 843.776 1285.94 c 0
 809.861 1285.94 782.336 1311.63 782.336 1343.29 c 0
1298.43 1234.74 m 0
 1298.43 1266.4 1325.96 1292.09 1359.87 1292.09 c 0
 1393.79 1292.09 1421.31 1266.4 1421.31 1234.74 c 0
 1421.31 1203.09 1393.79 1177.4 1359.87 1177.4 c 0
 1325.96 1177.4 1298.43 1203.09 1298.43 1234.74 c 0
1359.87 1236.79 m 25
 323.584 -4.2959 l 25
841.729 1347.38 m 25
 839.68 -123.08 l 25
319.488 1236.79 m 25
 1359.87 -4.2959 l 25
EndSplineSet
Fore
SplineSet
1241 1235 m 0
 1241 1294 1294 1343 1360 1343 c 0
 1426 1343 1479 1294 1479 1235 c 0
 1479 1176 1426 1126 1360 1126 c 0
 1354 1126 1345 1126 1339 1128 c 1
 926 614 l 1
 1405 26 l 1
 1315 -35 l 1
 897 479 l 1
 897 20 l 1
 936 2 958 -35 958 -76 c 0
 958 -135 908 -185 842 -185 c 0
 776 -185 725 -135 725 -76 c 0
 725 -37 747 0 784 18 c 1
 784 180 784 317 784 479 c 1
 369 -35 l 1
 279 26 l 1
 756 614 l 1
 340 1128 l 1
 334 1128 328 1126 322 1126 c 0
 256 1126 205 1176 205 1235 c 0
 205 1294 256 1343 322 1343 c 0
 388 1343 438 1294 438 1235 c 0
 438 1219 436 1204 430 1190 c 1
 784 749 l 1
 784 1249 l 1
 749 1267 725 1304 725 1343 c 0
 725 1402 778 1452 844 1452 c 0
 910 1452 963 1402 963 1343 c 0
 963 1302 936 1265 897 1247 c 1
 897 751 l 1
 1251 1192 l 1
 1245 1204 1241 1221 1241 1235 c 0
EndSplineSet
EndChar
StartChar: uniE064
Encoding: 57444 57444 122
Width: 1683
VWidth: 0
Flags: HW
HStem: 90 217<228 340 1340 1455> 1327 217<228 344 1340 1455>
VStem: 205 233<113 243 1395 1521> 784 113<1446 1482> 1241 238<115 241 1393 1519>
LayerCount: 3
Fore
SplineSet
786 86 m 1
 897 86 l 1
 897 672 l 1
 1251 242 l 1
 1245 230 1241 213 1241 199 c 0
 1241 140 1294 90 1360 90 c 0
 1426 90 1479 140 1479 199 c 0
 1479 258 1426 307 1360 307 c 0
 1354 307 1345 307 1339 305 c 1
 922 819 l 1
 1339 1329 l 1
 1345 1327 1354 1327 1360 1327 c 0
 1426 1327 1479 1377 1479 1436 c 0
 1479 1495 1426 1544 1360 1544 c 0
 1294 1544 1241 1495 1241 1436 c 0
 1241 1422 1245 1405 1251 1393 c 1
 897 956 l 1
 897 1446 l 1
 936 1464 963 1503 963 1544 c 0
 963 1603 910 1653 844 1653 c 0
 778 1653 725 1603 725 1544 c 0
 725 1505 749 1468 784 1450 c 1
 784 1290 784 1116 784 956 c 1
 430 1395 l 1
 436 1407 438 1422 438 1436 c 0
 438 1495 388 1544 322 1544 c 0
 256 1544 205 1495 205 1436 c 0
 205 1377 256 1327 322 1327 c 0
 330 1327 338 1327 344 1329 c 1
 762 819 l 1
 340 305 l 1
 334 305 328 307 322 307 c 0
 256 307 205 258 205 199 c 0
 205 140 256 90 322 90 c 0
 388 90 438 140 438 199 c 0
 438 215 436 230 430 244 c 1
 784 674 l 1
 786 86 l 1
EndSplineSet
EndChar
StartChar: uniE065
Encoding: 57445 57445 127
Width: 1990
VWidth: 0
Flags: HW
HStem: 94 217<396 512 1509 1624> 711 217<226 415 1574 1763> 768 102<375 900 1120 1613> 1331 217<396 509 1509 1624>
VStem: 373 236<118 243 1396 1525> 895 236<9 179 1469 1632> 954 113<155 672 968 1492> 1411 236<118 245 1398 1525>
LayerCount: 3
Back
SplineSet
948.224 1550.34 m 0
 948.224 1581.99 975.749 1607.68 1009.66 1607.68 c 0
 1043.58 1607.68 1071.1 1581.99 1071.1 1550.34 c 0
 1071.1 1518.68 1043.58 1492.99 1009.66 1492.99 c 0
 975.749 1492.99 948.224 1518.68 948.224 1550.34 c 0
1607.68 819.2 m 0
 1607.68 850.854 1635.21 876.544 1669.12 876.544 c 0
 1703.04 876.544 1730.56 850.854 1730.56 819.2 c 0
 1730.56 787.546 1703.04 761.856 1669.12 761.856 c 0
 1635.21 761.856 1607.68 787.546 1607.68 819.2 c 0
260.096 819.2 m 0
 260.096 850.854 287.621 876.544 321.536 876.544 c 0
 355.451 876.544 382.976 850.854 382.976 819.2 c 0
 382.976 787.546 355.451 761.856 321.536 761.856 c 0
 287.621 761.856 260.096 787.546 260.096 819.2 c 0
321.536 819.2 m 25
 1667.07 819.2 l 25
430.08 202.752 m 0
 430.08 171.098 457.605 145.408 491.52 145.408 c 0
 525.435 145.408 552.96 171.098 552.96 202.752 c 0
 552.96 234.406 525.435 260.096 491.52 260.096 c 0
 457.605 260.096 430.08 234.406 430.08 202.752 c 0
952.32 94.208 m 0
 952.32 62.5537 979.845 36.8643 1013.76 36.8643 c 0
 1047.67 36.8643 1075.2 62.5537 1075.2 94.208 c 0
 1075.2 125.862 1047.67 151.552 1013.76 151.552 c 0
 979.845 151.552 952.32 125.862 952.32 94.208 c 0
1468.42 202.752 m 0
 1468.42 171.098 1495.94 145.408 1529.86 145.408 c 0
 1563.77 145.408 1591.3 171.098 1591.3 202.752 c 0
 1591.3 234.406 1563.77 260.096 1529.86 260.096 c 0
 1495.94 260.096 1468.42 234.406 1468.42 202.752 c 0
430.08 1439.74 m 0
 430.08 1471.4 457.605 1497.09 491.52 1497.09 c 0
 525.435 1497.09 552.96 1471.4 552.96 1439.74 c 0
 552.96 1408.09 525.435 1382.4 491.52 1382.4 c 0
 457.605 1382.4 430.08 1408.09 430.08 1439.74 c 0
1468.42 1439.74 m 0
 1468.42 1471.4 1495.94 1497.09 1529.86 1497.09 c 0
 1563.77 1497.09 1591.3 1471.4 1591.3 1439.74 c 0
 1591.3 1408.09 1563.77 1382.4 1529.86 1382.4 c 0
 1495.94 1382.4 1468.42 1408.09 1468.42 1439.74 c 0
1529.86 1441.79 m 25
 493.568 200.704 l 25
1011.71 1552.38 m 25
 1009.66 81.9199 l 25
489.472 1441.79 m 25
 1529.86 200.704 l 25
EndSplineSet
Fore
SplineSet
1411 1440 m 0xbb
 1411 1499 1463 1548 1529 1548 c 0
 1595 1548 1647 1499 1647 1440 c 0
 1647 1381 1595 1331 1529 1331 c 0
 1522 1331 1516 1332 1509 1333 c 1
 1118 870 l 1
 1564 870 l 1xbb
 1584 904 1622 928 1668 928 c 0
 1734 928 1786 878 1786 819 c 0
 1786 760 1734 711 1668 711 c 0xdb
 1622 711 1584 734 1564 768 c 1
 1120 768 l 1
 1508 310 l 1
 1515 311 1522 311 1529 311 c 0
 1595 311 1647 262 1647 203 c 0
 1647 144 1595 94 1529 94 c 0
 1463 94 1411 144 1411 203 c 0
 1411 218 1415 232 1421 245 c 1
 1066 673 l 1
 1065 191 l 1
 1104 173 1130 136 1130 94 c 0
 1130 35 1079 -14 1013 -14 c 0
 947 -14 895 35 895 94 c 0
 895 133 917 169 952 188 c 1
 952 348 953 512 953 672 c 1
 599 244 l 1
 605 231 608 218 608 203 c 0
 608 144 556 94 490 94 c 0
 424 94 373 144 373 203 c 0
 373 262 424 311 490 311 c 0
 498 311 506 310 513 309 c 1
 900 768 l 1
 424 768 l 1xbd
 404 734 367 711 321 711 c 0
 255 711 203 760 203 819 c 0
 203 878 255 928 321 928 c 0xdd
 367 928 404 904 424 870 c 1
 901 870 l 1
 509 1333 l 1
 503 1332 496 1331 490 1331 c 0
 424 1331 373 1381 373 1440 c 0
 373 1499 424 1548 490 1548 c 0
 556 1548 608 1499 608 1440 c 0
 608 1424 605 1410 598 1396 c 1
 954 967 l 1
 954 1454 l 1
 916 1472 891 1509 891 1550 c 0
 891 1609 943 1659 1009 1659 c 0
 1075 1659 1126 1609 1126 1550 c 0
 1126 1510 1103 1475 1067 1456 c 1
 1066 968 l 1
 1421 1397 l 1
 1415 1410 1411 1425 1411 1440 c 0xbb
EndSplineSet
EndChar
StartChar: uniE066
Encoding: 57446 57446 160
Width: 821
VWidth: 0
Flags: W
VStem: 130 56<127.383 317> 383 55<75.8732 311> 636 56<126.625 316>
LayerCount: 2
Back
SplineSet
410 578 m 25
 288 702 l 25
280 448 m 25
 410 578 l 25
 544 448 l 25
 410 578 l 25
 540 700 l 25
411 321 m 25
 280 448 l 25
 158 327 l 25
 158 98 l 25
411 321 m 25
 544 448 l 25
 664 325 l 25
 664 98 l 25
127 99 m 0
 127 83.5439 140.44 71 157 71 c 0
 173.56 71 187 83.5439 187 99 c 0
 187 114.456 173.56 127 157 127 c 0
 140.44 127 127 114.456 127 99 c 0
382 46 m 0
 382 30.5439 395.44 18 412 18 c 0
 428.56 18 442 30.5439 442 46 c 0
 442 61.4561 428.56 74 412 74 c 0
 395.44 74 382 61.4561 382 46 c 0
634 99 m 0
 634 83.5439 647.44 71 664 71 c 0
 680.56 71 694 83.5439 694 99 c 0
 694 114.456 680.56 127 664 127 c 0
 647.44 127 634 114.456 634 99 c 0
254 700 m 0
 254 715.456 267.44 728 284 728 c 0
 300.56 728 314 715.456 314 700 c 0
 314 684.544 300.56 672 284 672 c 0
 267.44 672 254 684.544 254 700 c 0
512 702 m 0
 512 717.456 525.44 730 542 730 c 0
 558.56 730 572 717.456 572 702 c 0
 572 686.544 558.56 674 542 674 c 0
 525.44 674 512 686.544 512 702 c 0
411 321 m 25
 410 40 l 25
EndSplineSet
Fore
SplineSet
484 702 m 0
 484 731 510 755 542 755 c 0
 574 755 600 731 600 702 c 0
 600 673 574 649 542 649 c 0
 536 649 531 650 526 651 c 1
 448 578 l 1
 564 465 l 1
 565 465 l 2
 685 342 l 2
 689 337 692 331 692 325 c 2
 692 146 l 1
 710 137 722 119 722 99 c 0
 722 70 696 46 664 46 c 0
 632 46 606 70 606 99 c 0
 606 119 618 137 636 146 c 1
 636 316 l 1
 543 411 l 1
 438 311 l 1
 438 93 l 1
 457 84 470 66 470 46 c 0
 470 17 444 -7 412 -7 c 0
 380 -7 354 17 354 46 c 0
 354 65 366 83 383 92 c 1
 383 311 l 1
 280 411 l 1
 186 317 l 1
 186 145 l 1
 203 136 214 118 214 99 c 0
 214 70 189 46 157 46 c 0
 125 46 100 70 100 99 c 0
 100 119 111 137 130 146 c 1
 130 327 l 2
 130 333 133 339 138 344 c 2
 260 465 l 1
 373 578 l 1
 302 650 l 1
 296 648 291 647 284 647 c 0
 252 647 226 671 226 700 c 0
 226 729 252 753 284 753 c 0
 316 753 342 729 342 700 c 0
 342 696 341 691 340 687 c 1
 411 615 l 1
 487 686 l 1
 485 691 484 697 484 702 c 0
540 702 m 0
 540 700 541 699 542 699 c 0
 543 699 544 700 544 702 c 0
 544 704 543 705 542 705 c 0
 541 705 540 704 540 702 c 0
662 98 m 1
 662 97 663 96 664 96 c 0
 665 96 666 97 666 98 c 1
 662 98 l 1
411 357 m 1
 506 448 l 1
 410 541 l 1
 317 448 l 1
 411 357 l 1
155 98 m 1
 155 97 156 96 157 96 c 0
 158 96 159 97 159 98 c 1
 155 98 l 1
283 698 m 2
 286 701 l 1
 286 703 285 703 284 703 c 0
 283 703 282 702 282 700 c 0
 282 699 282 698 283 698 c 2
EndSplineSet
EndChar
StartChar: uniE068
Encoding: 57448 57448 16
Width: 806
VWidth: 0
Flags: W
VStem: 100 55<284 516> 353 95<99.2773 169.621 629.801 696.262> 375 55<135.701 353 446 662.298> 651 55<283 514>
LayerCount: 2
Back
SplineSet
276.084 664 m 29
 273.084 135 l 29
257.084 663 m 4
 257.084 672.936 266.043 681 277.084 681 c 4
 288.123 681 297.084 672.936 297.084 663 c 4
 297.084 653.064 288.123 645 277.084 645 c 4
 266.043 645 257.084 653.064 257.084 663 c 4
0 238 m 29
 -0 561.834 l 13
 550.729 236.668 l 29
 550.729 560.067 l 13
 0 238 l 29
253.084 135 m 4
 253.084 144.936 262.043 153 273.084 153 c 4
 284.123 153 293.084 144.936 293.084 135 c 4
 293.084 125.064 284.123 117 273.084 117 c 4
 262.043 117 253.084 125.064 253.084 135 c 4
EndSplineSet
Fore
SplineSet
357 663 m 0xb0
 357 687 379 706 405 706 c 0
 431 706 452 687 452 663 c 0
 452 648 444 635 431 627 c 1
 430 445 l 1
 664 581 l 2
 668 583 673 585 678 585 c 0
 693 585 706 574 706 560 c 2
 706 237 l 2
 706 222 692 212 678 212 c 0
 673 212 668 213 664 216 c 2
 430 354 l 1xb0
 430 293 429 231 429 170 c 1
 441 162 448 149 448 135 c 0
 448 111 427 92 401 92 c 0
 375 92 353 111 353 135 c 0xd0
 353 150 362 162 374 170 c 1
 374 231 375 292 375 353 c 1
 143 217 l 2
 139 214 133 213 128 213 c 0
 114 213 100 223 100 238 c 2
 100 562 l 2
 100 576 113 587 128 587 c 0
 133 587 141 584 143 583 c 2
 375 446 l 1
 376 629 l 1
 365 637 357 649 357 663 c 0xb0
353 399 m 1xd0
 155 516 l 1
 155 284 l 1
 353 399 l 1xd0
454 399 m 1
 651 283 l 1
 651 514 l 1
 454 399 l 1
EndSplineSet
Validated: 1
EndChar
StartChar: uniE069
Encoding: 57449 57449 92
Width: 1650
VWidth: 0
Flags: HW
VStem: 205 111<467 1171> 399 92<612 1028> 766 113<276 700 934 1360> 1165 92<602 1028> 1331 113<465 1167>
LayerCount: 3
Back
SplineSet
1212.42 501.76 m 29
 1208.32 1132.54 l 29
446.464 505.856 m 25
 442.368 1136.64 l 25
825.516 1359.87 m 25
 819.372 276.48 l 25
260.096 350.208 m 25
 260.096 1287.85 l 9
 1387.99 347.48 l 25
 1387.99 1284.23 l 9
 260.096 350.208 l 25
EndSplineSet
Fore
SplineSet
770 1360 m 1
 883 1360 l 1
 879 932 l 1
 1350 1323 l 2
 1360 1331 1375 1335 1389 1335 c 0
 1420 1335 1444 1313 1444 1284 c 2
 1444 348 l 2
 1444 338 1440 323 1430 313 c 0
 1419 302 1403 297 1387 297 c 0
 1374 297 1360 301 1350 309 c 2
 879 702 l 1
 879 561 877 417 877 276 c 1
 764 276 l 1
 766 700 l 1
 299 313 l 2
 288 304 273 300 259 300 c 0
 244 300 230 304 219 315 c 0
 209 325 205 342 205 350 c 2
 205 1288 l 2
 205 1317 229 1339 260 1339 c 0
 274 1339 291 1331 299 1325 c 2
 766 934 l 1
 766 1075 770 1219 770 1360 c 1
489 1028 m 1
 492 612 l 1
 741 817 l 1
 489 1028 l 1
397 1104 m 1
 315 1171 l 1
 315 467 l 1
 399 535 l 1
 397 1104 l 1
1257 524 m 1
 1331 465 l 1
 1331 1167 l 1
 1255 1104 l 1
 1257 524 l 1
1165 602 m 1
 1163 1028 l 1
 907 817 l 1
 1165 602 l 1
EndSplineSet
EndChar
StartChar: uniE06A
Encoding: 57450 57450 73
Width: 1650
VWidth: -205
Flags: HW
VStem: 205 111<262 966> 766 113<71 493 731 1155> 1331 113<260 962>
LayerCount: 3
Back
SplineSet
825.344 1154.87 m 29
 819.2 71.4805 l 1053
260.096 145.208 m 5
 260.096 1082.85 l 5
 824.31 612.443 l 5
 260.096 145.208 l 5
824.31 612.443 m 5
 1387.99 142.48 l 5
 1387.99 1079.23 l 5
 824.31 612.443 l 5
EndSplineSet
Fore
SplineSet
907 612 m 1
 1331 260 l 1
 1331 962 l 1
 907 612 l 1
205 145 m 2
 205 1083 l 2
 205 1112 229 1134 260 1134 c 0
 274 1134 291 1126 299 1120 c 2
 766 731 l 1
 770 1155 l 1
 881 1155 l 1
 879 727 l 1
 1350 1118 l 2
 1360 1126 1375 1130 1389 1130 c 0
 1420 1130 1444 1108 1444 1079 c 2
 1444 143 l 2
 1444 133 1440 118 1430 108 c 0
 1419 97 1403 92 1387 92 c 0
 1374 92 1360 96 1350 104 c 2
 879 497 l 1
 877 71 l 1
 762 71 l 1
 766 493 l 1
 299 108 l 2
 288 99 273 95 259 95 c 0
 244 95 230 99 219 110 c 0
 209 120 205 137 205 145 c 2
315 262 m 1
 741 612 l 1
 315 966 l 1
 315 262 l 1
EndSplineSet
EndChar
StartChar: uniE06B
Encoding: 57451 57451 94
Width: 806
VWidth: 0
Flags: HW
LayerCount: 2
Back
SplineSet
426 401 m 4
 426 410.936 434.959 419 446 419 c 4
 457.039 419 466 410.936 466 401 c 4
 466 391.064 457.039 383 446 383 c 4
 434.959 383 426 391.064 426 401 c 4
0 99 m 29
 0 703.834 l 13
 550.729 97.668 l 29
 550.729 702.067 l 13
 0 99 l 29
91 400 m 4
 91 409.936 99.959 418 111 418 c 4
 122.039 418 131 409.936 131 400 c 4
 131 390.064 122.039 382 111 382 c 4
 99.959 382 91 390.064 91 400 c 4
EndSplineSet
Fore
SplineSet
398 401 m 0
 398 425 420 444 446 444 c 0
 472 444 494 425 494 401 c 0
 494 377 472 358 446 358 c 0
 420 358 398 377 398 401 c 0
275 361 m 1
 21 83 l 0
 15.3488 77.3488 7.46208 74.2525 -0.494444 74.2525 c 0
 -6.61727 74.2525 -12.7814 76.0861 -18 80 c 0
 -25 85 -28 94 -28 99 c 2
 -28 704 l 0
 -28 718 -15 729 0 729 c 0
 9 729 17 724 21 720 c 0
 276 440 l 1
 530 718 l 0
 535 723 543 727 551 727 c 0
 566 727 578 716 578 702 c 0
 578 98 l 0
 578 91 574 83 568 78 c 0
 563.08 74.3098 557.487 72.637 551.911 72.637 c 0
 543.888 72.637 535.9 76.1003 530 82 c 0
 275 361 l 1
240 401 m 1
 28 634 l 1
 28 168 l 1
 240 401 l 1
311 401 m 1
 523 167 l 1
 523 633 l 1
 311 401 l 1
64 400 m 0
 64 424 85 443 111 443 c 0
 137 443 158 424 158 400 c 0
 158 376 137 357 111 357 c 0
 85 357 64 376 64 400 c 0
EndSplineSet
EndChar
StartChar: uniE06C
Encoding: 57452 57452 95
Width: 806
VWidth: 0
Flags: W
VStem: 100 54<168 634> 650 55<167 633>
LayerCount: 2
Back
SplineSet
127 99 m 29
 127 703.834 l 13
 677.729 97.668 l 29
 677.729 702.067 l 13
 127 99 l 29
EndSplineSet
Fore
SplineSet
438 401 m 1
 650 167 l 1
 650 633 l 1
 438 401 l 1
367 401 m 1
 154 634 l 1
 154 168 l 1
 367 401 l 1
402 361 m 1
 148 83 l 2
 142.349 77.3488 134.462 74.2525 126.506 74.2525 c 0
 120.383 74.2525 114.219 76.0861 109 80 c 0
 102 85 100 94 100 99 c 2
 100 704 l 2
 100 718 112 729 127 729 c 0
 136 729 144 724 148 720 c 2
 403 440 l 1
 657 718 l 2
 662 723 670 727 678 727 c 0
 693 727 705 716 705 702 c 2
 705 98 l 2
 705 91 701 83 695 78 c 0
 690.08 74.3098 684.487 72.637 678.911 72.637 c 0
 670.888 72.637 662.9 76.1003 657 82 c 2
 402 361 l 1
EndSplineSet
Validated: 1
EndChar
StartChar: uniE06D
Encoding: 57453 57453 95
Width: 1650
VWidth: 0
Flags: HW
HStem: 559 82<315 428 1217 1331> 778 82<315 690 961 1331> 995 82<315 430 1223 1331>
VStem: 205 111<467 559 641 778 860 995 1077 1171> 766 113<276 698 936 1360> 1331 113<465 559 641 778 860 995 1077 1167>
LayerCount: 3
Back
SplineSet
1390.59 600.064 m 17
 1089.54 600.064 l 1
559.764 600.064 m 1
 258.048 600.064 l 9
1390.59 1036.29 m 17
 1089.54 1036.29 l 1
559.764 1036.29 m 1
 258.048 1036.29 l 9
266.24 819.2 m 29
 1384.45 819.2 l 29
825.344 1359.87 m 25
 819.2 276.48 l 25
260.096 350.208 m 1
 260.096 1287.85 l 1
 824.31 817.443 l 1
 260.096 350.208 l 1
824.31 817.443 m 1
 1387.99 347.48 l 1
 1387.99 1284.23 l 1
 824.31 817.443 l 1
EndSplineSet
Fore
SplineSet
205 350 m 2
 205 1288 l 2
 205 1317 229 1339 260 1339 c 0
 274 1339 291 1331 299 1325 c 2
 766 936 l 1
 770 1360 l 1
 881 1360 l 1
 879 932 l 1
 1350 1323 l 2
 1360 1331 1375 1335 1389 1335 c 0
 1420 1335 1444 1313 1444 1284 c 2
 1444 348 l 2
 1444 338 1440 323 1430 313 c 0
 1419 302 1403 297 1387 297 c 0
 1374 297 1360 301 1350 309 c 2
 879 702 l 1
 877 276 l 1
 762 276 l 1
 766 698 l 1
 299 313 l 2
 288 304 273 300 259 300 c 0
 244 300 230 304 219 315 c 0
 209 325 205 342 205 350 c 2
694 778 m 1
 315 778 l 1
 315 641 l 1
 528 641 l 1
 694 778 l 1
954 778 m 1
 1120 641 l 1
 1331 641 l 1
 1331 778 l 1
 954 778 l 1
690 860 m 1
 528 995 l 1
 315 995 l 1
 315 860 l 1
 690 860 l 1
1331 860 m 1
 1331 995 l 1
 1122 995 l 1
 961 860 l 1
 1331 860 l 1
430 1077 m 1
 315 1171 l 1
 315 1077 l 1
 430 1077 l 1
1331 1077 m 1
 1331 1167 l 1
 1223 1077 l 1
 1331 1077 l 1
428 559 m 1
 315 559 l 1
 315 467 l 1
 428 559 l 1
1217 559 m 1
 1331 465 l 1
 1331 559 l 1
 1217 559 l 1
EndSplineSet
EndChar
StartChar: uniE06E
Encoding: 57454 57454 92
Width: 1650
VWidth: 0
Flags: HW
VStem: 205 111<467 1171> 369 74<727 907> 723 195<203 347 1289 1427> 766 113<278 698 936 1340> 1204 74<727 907> 1331 113<465 1167>
LayerCount: 3
Back
SplineSet
1241.09 659.456 m 29
 1030.14 819.2 l 29
 1241.09 974.848 l 29
 1241.09 659.456 l 29
405.504 659.456 m 29
 616.448 819.2 l 29
 405.504 974.848 l 29
 405.504 659.456 l 29
825.344 1359.87 m 29
 819.2 276.48 l 29
778.412 276.48 m 4
 778.412 296.829 796.76 313.344 819.372 313.344 c 4
 841.979 313.344 860.332 296.829 860.332 276.48 c 4
 860.332 256.131 841.979 239.616 819.372 239.616 c 4
 796.76 239.616 778.412 256.131 778.412 276.48 c 4
260.096 350.208 m 5
 260.096 1287.85 l 5
 824.31 817.443 l 5
 260.096 350.208 l 5
786.604 1357.82 m 4
 786.604 1378.17 804.952 1394.69 827.564 1394.69 c 4
 850.172 1394.69 868.524 1378.17 868.524 1357.82 c 4
 868.524 1337.48 850.172 1320.96 827.564 1320.96 c 4
 804.952 1320.96 786.604 1337.48 786.604 1357.82 c 4
824.31 817.443 m 5
 1387.99 347.48 l 5
 1387.99 1284.23 l 5
 824.31 817.443 l 5
EndSplineSet
Fore
SplineSet
907 817 m 1xcc
 1331 465 l 1
 1331 1167 l 1
 907 817 l 1xcc
731 1358 m 0
 731 1407 774 1446 827 1446 c 0
 880 1446 926 1407 926 1358 c 0
 926 1327 908 1300 881 1284 c 1
 879 932 l 1
 1350 1323 l 2
 1360 1331 1375 1335 1389 1335 c 0
 1420 1335 1444 1313 1444 1284 c 2
 1444 348 l 2
 1444 338 1440 323 1430 313 c 0
 1419 302 1403 297 1387 297 c 0
 1374 297 1360 301 1350 309 c 2
 879 702 l 1xdc
 879 583 877 467 877 348 c 1
 902 332 918 307 918 276 c 0
 918 227 872 188 819 188 c 0
 766 188 723 227 723 276 c 0xec
 723 307 739 332 764 348 c 1
 766 698 l 1
 299 313 l 2
 288 304 273 300 259 300 c 0
 244 300 230 304 219 315 c 0
 209 325 205 342 205 350 c 2
 205 1288 l 2
 205 1317 229 1339 260 1339 c 0
 274 1339 291 1331 299 1325 c 2
 766 936 l 1xdc
 768 1288 l 1
 745 1304 731 1329 731 1358 c 0
315 467 m 1
 741 817 l 1
 315 1171 l 1
 315 467 l 1
442 727 m 1
 561 819 l 1
 442 907 l 1
 442 727 l 1
430 637 m 2
 424 633 414 629 406 629 c 0
 386 629 369 643 369 659 c 2
 369 975 l 2
 369 981 373 989 379 995 c 0
 385 1001 395 1005 404 1005 c 0
 413 1005 421 1002 428 997 c 2
 639 842 l 2
 651 834 659 811 641 797 c 2
 430 637 l 2
1217 637 m 2
 1006 797 l 2
 998 803 994 810 994 818 c 0
 994 827 999 835 1008 842 c 2
 1219 997 l 2
 1226 1002 1234 1005 1243 1005 c 0
 1252 1005 1262 1001 1268 995 c 0
 1274 989 1278 979 1278 975 c 2
 1278 659 l 2
 1278 643 1261 629 1241 629 c 0
 1233 629 1221 635 1217 637 c 2
1204 727 m 1
 1204 907 l 1
 1085 819 l 1
 1204 727 l 1
EndSplineSet
EndChar
StartChar: uniE06F
Encoding: 57455 57455 171
Width: 805
VWidth: 0
Flags: W
VStem: 99 55<227.635 572.029> 374 55<83.5635 342.331> 650 55<226.664 570.503>
LayerCount: 3
Back
SplineSet
402 399 m 25
 402 0 l 25
215 243 m 25
 402 0 l 25
 582 249 l 25
127 171 m 1
 127 629 l 1
 402 399 l 1
 127 171 l 1
402 399 m 1
 678 170 l 1
 678 627 l 1
 402 399 l 1
EndSplineSet
Fore
SplineSet
442.343 398.96 m 1
 650 226.664 l 1
 650 570.503 l 1
 442.343 398.96 l 1
99 171 m 2
 99 629 l 2
 99 642.617 111.521 654 126.5 654 c 0
 133.608 654 141.369 650.535 145.119 647.398 c 2
 401.614 432.875 l 1
 659.006 645.502 l 2
 663.95 649.587 670.689 652 677.5 652 c 0
 692.479 652 705 640.617 705 627 c 2
 705 170 l 2
 705 165.212 702.543 157.859 697.812 153.146 c 0
 687.714 143.089 670.025 142.355 658.962 151.534 c 2
 587.069 211.183 l 1
 424.481 -13.7295 l 2
 423.617 -14.9258 420.035 -18.7227 417.264 -20.4844 c 0
 404.99 -28.291 387.554 -25.4883 378.967 -14.3311 c 2
 209.456 205.942 l 1
 145.031 152.528 l 2
 133.964 143.352 116.274 144.092 106.181 154.153 c 0
 101.404 158.915 99 166.575 99 171 c 2
154 227.635 m 1
 360.787 399.081 l 1
 154 572.029 l 1
 154 227.635 l 1
545.93 245.316 m 1
 429 342.331 l 1
 429 83.5635 l 1
 545.93 245.316 l 1
250.434 239.917 m 1
 374 79.3477 l 1
 374 342.364 l 1
 250.434 239.917 l 1
EndSplineSet
EndChar
StartChar: uniE070
Encoding: 57456 57456 22
Width: 1486
VWidth: 0
Flags: HW
HStem: 938 102<655 713 823 877 987 1032 1135 1171> 1389 102<311 369 479 541 655 713 823 877 987 1032 1135 1171>
VStem: 201 111<205 1389> 369 111<205 1389> 541 115<205 938 1040 1389> 713 111<1040 1389> 877 111<1042 1389> 1032 102<1042 1389> 1171 111<1042 1389>
LayerCount: 3
Back
SplineSet
768 991.232 m 25
 768 1437.7 l 25
598.016 204.8 m 25
 598.016 989.184 l 25
 1226.75 991.232 l 25
 1226.75 1439.74 l 25
 256 1439.74 l 25
 256 204.8 l 25
1089.54 991.232 m 25
 1089.54 1437.7 l 25
931.84 997.376 m 25
 931.84 1443.84 l 25
598.016 989.184 m 25
 598.016 1435.65 l 25
423.936 204.8 m 25
 423.936 1437.7 l 25
EndSplineSet
Fore
SplineSet
479 205 m 5
 369 205 l 5
 369 1389 l 5
 311 1389 l 5
 311 205 l 5
 201 205 l 5
 201 1440 l 6
 201 1469 225 1491 256 1491 c 6
 1227 1491 l 6
 1258 1491 1282 1469 1282 1440 c 6
 1282 991 l 6
 1282 966 1260 940 1227 940 c 6
 655 938 l 5
 655 205 l 5
 541 205 l 5
 541 989 l 5
 541 1389 l 5
 479 1389 l 5
 479 205 l 5
1032 1389 m 5
 987 1389 l 5
 987 1042 l 5
 1032 1042 l 5
 1032 1389 l 5
1135 1389 m 5
 1135 1042 l 5
 1171 1042 l 5
 1171 1389 l 5
 1135 1389 l 5
877 1389 m 5
 823 1389 l 5
 823 1040 l 5
 877 1040 l 5
 877 1389 l 5
655 1389 m 5
 655 1040 l 5
 713 1040 l 5
 713 1389 l 5
 655 1389 l 5
EndSplineSet
EndChar
StartChar: uniE071
Encoding: 57457 57457 33
Width: 727
VWidth: 0
Flags: HW
HStem: 0 21G<438 494 572 626> 485 50<152 212 268 328 382 438> 678 50<152 212 268 328 382 438 494 572>
VStem: 98 54<535 678> 212 56<535 678> 328 54<534 678> 438 56<0 484 534 678> 572 54<0 678>
LayerCount: 2
Back
SplineSet
466 0 m 29
 466 509 l 29
 125 510 l 29
 125 703 l 29
 599 703 l 29
 599 0 l 29
240 510 m 29
 240 702 l 29
355 511 m 29
 355 703 l 29
466 509 m 29
 466 701 l 29
EndSplineSet
Fore
SplineSet
494 0 m 5
 438 0 l 5
 438 484 l 5
 125 485 l 6
 109 485 98 498 98 510 c 6
 98 703 l 6
 98 717 110 728 125 728 c 6
 599 728 l 6
 614 728 626 717 626 703 c 6
 626 0 l 5
 572 0 l 5
 572 678 l 5
 494 678 l 5
 494 452 494 226 494 0 c 5
212 535 m 5
 212 678 l 5
 152 678 l 5
 152 535 l 5
 212 535 l 5
268 535 m 5
 328 534 l 5
 328 678 l 5
 268 678 l 5
 268 535 l 5
382 534 m 5
 438 534 l 5
 438 678 l 5
 382 678 l 5
 382 534 l 5
EndSplineSet
EndChar
StartChar: uniE072
Encoding: 57458 57458 136
Width: 726
VWidth: 0
Flags: W
HStem: 75 50<152 184 230 270 314 348> 421 50<403 572> 507 40<314 572> 596 40<230 572> 678 50<152 572>
VStem: 98 54<125 678> 184 46<125 596> 270 44<125 507> 348 54<125 421> 572 54<470 508 548 595 635 678>
LayerCount: 2
Back
SplineSet
599 703 m 25
 125 703 l 25
 125 100 l 25
 375 100 l 25
 376 446 l 25
 599 445 l 17
 599 703 l 25
598.002 527.909 m 1
 292 527 l 9
 292 100 l 25
599 615 m 25
 207 616 l 25
 207 100 l 25
EndSplineSet
Fore
SplineSet
572 678 m 1
 152 678 l 1
 152 125 l 1
 184 125 l 1
 184 616 l 2
 184 625 193 636 207 636 c 2
 572 635 l 1
 572 678 l 1
599 728 m 2
 614 728 626 717 626 703 c 2
 626 445 l 2
 626 434 616 420 599 420 c 2
 403 421 l 1
 402 100 l 2
 402 88 391 75 375 75 c 2
 125 75 l 2
 110 75 98 86 98 100 c 2
 98 703 l 2
 98 717 110 728 125 728 c 2
 599 728 l 2
572 508 m 1
 314 507 l 1
 314 125 l 1
 348 125 l 1
 348 446 l 2
 348 461 364 471 376 471 c 2
 572 470 l 1
 572 508 l 1
572 548 m 1
 572 595 l 1
 230 596 l 1
 230 125 l 1
 270 125 l 1
 270 527 l 2
 270 537 279 547 292 547 c 2
 572 548 l 1
EndSplineSet
Validated: 1
EndChar
StartChar: uniE073
Encoding: 57459 57459 137
Width: 1103
VWidth: 0
Flags: W
LayerCount: 2
Back
SplineSet
492.268 300.683 m 25
 323.919 475.817 l 25
836.137 95.6572 m 25
 565.92 375.48 l 25
 295.861 96.3564 l 25
 126.637 272.404 l 25
 542.246 704.772 l 25
 982.564 247.988 l 25
354.607 157.472 m 25
 186.26 332.607 l 25
419.492 230.445 m 25
 251.145 405.581 l 25
565.92 375.48 m 25
 397.572 550.616 l 25
910.667 173.19 m 25
 471.224 629.062 l 25
EndSplineSet
Fore
SplineSet
931 190 m 1
 890 157 l 1
 470 592 l 1
 432 552 l 1
 587 392 l 1
 857 112 l 1
 815 79 l 1
 566 338 l 1
 317 80 l 2
 312 74 303 72 296 72 c 0
 288 72 280 75 275 80 c 2
 106 256 l 2
 102 261 99 266 99 272 c 0
 99 278 102 284 106 289 c 2
 522 721 l 2
 527 727 534 730 542 730 c 0
 550 730 558 726 563 721 c 2
 1003 264 l 1
 962 232 l 1
 542 667 l 1
 507 630 l 1
 931 190 l 1
318 157 m 1
 185 296 l 1
 163 272 l 1
 296 134 l 1
 318 157 l 1
355 195 m 1
 386 227 l 1
 253 366 l 1
 222 334 l 1
 355 195 l 1
423 265 m 1
 456 300 l 1
 323 439 l 1
 289 404 l 1
 423 265 l 1
529 376 m 1
 396 514 l 1
 360 477 l 1
 493 338 l 1
 529 376 l 1
EndSplineSet
EndChar
StartChar: uniE074
Encoding: 57460 57460 138
Width: 726
VWidth: 0
Flags: HW
LayerCount: 2
Back
SplineSet
594 285 m 25
 342 285 l 25
 342 101 l 25
596 703 m 9
 596 100 l 25
 125 100 l 25
 125 285 l 25
 342 285 l 25
 342 703 l 17
 426.667 703 511.333 703 596 703 c 9
EndSplineSet
Fore
SplineSet
624 703 m 2
 624 100 l 2
 624 86 611 75 596 75 c 2
 125 75 l 2
 110 75 98 86 98 100 c 2
 98 285 l 2
 98 299 110 310 125 310 c 2
 314 310 l 1
 314 703 l 2
 314 717 327 728 342 728 c 2
 596 728 l 2
 611 728 624 717 624 703 c 2
568 678 m 1
 370 678 l 1
 370 310 l 1
 568 310 l 1
 568 678 l 1
314 260 m 1
 152 260 l 1
 152 125 l 1
 314 125 l 1
 314 260 l 1
370 125 m 1
 568 125 l 1
 568 260 l 1
 370 260 l 1
 370 125 l 1
EndSplineSet
EndChar
StartChar: uniE075
Encoding: 57461 57461 134
Width: 1875
VWidth: 0
Flags: HW
HStem: 154 102<762 1561> 524 102<1237 1561> 1010 102<315 647> 1389 102<315 1126>
VStem: 205 111<1112 1389> 647 115<256 1010> 1126 111<627 1389> 1561 111<256 524>
LayerCount: 3
Back
SplineSet
1177.6 1060.86 m 25,0,0
1615.87 204.8 m 1,0,0
 1615.87 575.488 l 0,0,0
 1181.7 575.488 l 0,0,0
 1181.7 1439.74 l 9,0,0
 260.096 1439.74 l 25,0,0
 260.096 1060.86 l 25,0,0
 704.512 1060.86 l 25,0,0
 704.512 204.8 l 17,0,0
 877.91 204.8 1442.47 204.8 1615.87 204.8 c 1,0,0
EndSplineSet
Fore
SplineSet
1561 256 m 1
 1561 524 l 1
 1182 524 l 2
 1151 524 1126 546 1126 575 c 2
 1126 1389 l 1
 315 1389 l 1
 315 1112 l 1
 705 1112 l 2
 736 1112 762 1090 762 1061 c 2
 762 256 l 1
 1561 256 l 1
1671 205 m 2
 1671 176 1647 154 1616 154 c 2
 705 154 l 2
 674 154 647 176 647 205 c 2
 647 1010 l 1
 260 1010 l 2
 229 1010 205 1032 205 1061 c 2
 205 1440 l 2
 205 1469 229 1491 260 1491 c 2
 1182 1491 l 2
 1213 1491 1237 1469 1237 1440 c 2
 1237 627 l 1
 1616 627 l 2
 1647 627 1671 604 1671 575 c 2
 1671 205 l 2
EndSplineSet
EndChar
StartChar: uniE076
Encoding: 57462 57462 137
Width: 2211
VWidth: 0
Flags: HW
LayerCount: 3
Back
SplineSet
1452.03 563.2 m 25
 1105.92 923.648 l 25
 761.856 563.2 l 25
1769.47 1253.38 m 25
 942.08 378.88 l 25
428.032 1253.38 m 25
 1286.14 389.12 l 25
1591.3 1441.79 m 25
 1105.92 923.648 l 25
 606.208 1441.79 l 25
 260.096 1081.34 l 25
 1110.02 194.56 l 25
 1951.74 1083.39 l 25
 1591.3 1441.79 l 25
EndSplineSet
Fore
SplineSet
1548 1475 m 2
 1556 1485 1575 1493 1593 1493 c 0
 1607 1493 1620 1487 1632 1477 c 2
 1993 1118 l 2
 2001 1110 2007 1095 2007 1083 c 0
 2007 1071 2003 1061 1995 1051 c 2
 1153 162 l 2
 1143 152 1126 143 1108 143 c 0
 1094 143 1079 150 1067 162 c 2
 217 1049 l 2
 209 1059 205 1069 205 1081 c 0
 205 1093 209 1104 217 1114 c 2
 563 1475 l 2
 571 1485 590 1493 608 1493 c 0
 622 1493 637 1487 649 1475 c 2
 1106 1001 l 1
 1548 1475 l 2
428 1178 m 1
 334 1081 l 1
 760 639 l 1
 858 743 l 1
 428 1178 l 1
1214 385 m 1
 1116 483 l 1
 1012 375 l 1
 1110 272 l 1
 1214 385 l 1
502 1255 m 1
 934 821 l 1
 1032 924 l 1
 606 1364 l 1
 502 1255 l 1
1290 463 m 1
 1380 559 l 1
 1284 662 l 1
 1190 563 l 1
 1290 463 l 1
1114 639 m 1
 1208 739 l 1
 1106 846 l 1
 1010 743 l 1
 1114 639 l 1
1040 561 m 1
 936 666 l 1
 834 561 l 1
 938 453 l 1
 1040 561 l 1
1700 1257 m 1
 1593 1364 l 1
 1180 924 l 1
 1282 817 l 1
 1700 1257 l 1
1776 1182 m 1
 1358 739 l 1
 1456 637 l 1
 1876 1083 l 1
 1776 1182 l 1
EndSplineSet
EndChar
StartChar: uniE077
Encoding: 57463 57463 215
Width: 2258
VWidth: 0
Flags: HW
LayerCount: 3
Back
SplineSet
1108 201 m 25
 1251 393 l 25
 954 393 l 25
 1108 201 l 25
561 192 m 25
 1114 765 l 25
 1667 193 l 25
 2014 554 l 25
 1162 1439 l 25
 261 504 l 25
1504 368 m 25
 1849 727 l 25
1300 569 m 25
 1645 928 l 25
1114 765 m 25
 1459 1124 l 25
EndSplineSet
Fore
SplineSet
602 159 m 1
 520 225 l 1
 1073 798 l 1
 1389 1127 l 1
 1162 1363 l 1
 302 471 l 1
 220 537 l 1
 1121 1472 l 2
 1130 1481 1146 1488 1163 1488 c 0
 1177 1488 1192 1484 1203 1472 c 0
 1487 1177 1771 882 2055 587 c 0
 2064 577 2068 566 2068 554 c 0
 2068 542 2064 531 2055 521 c 2
 1708 160 l 2
 1699 151 1683 144 1666 144 c 0
 1652 144 1637 148 1626 160 c 2
 1114 689 l 1
 602 159 l 1
1106 288 m 1
 1147 343 l 1
 1062 343 l 1
 1106 288 l 1
1154 173 m 2
 1152 170 1145 164 1140 161 c 0
 1130 155 1119 152 1108 152 c 0
 1091 152 1075 159 1064 172 c 2
 910 364 l 2
 904 371 899 382 899 393 c 0
 899 420 924 443 954 443 c 2
 1251 443 l 2
 1260 443 1273 440 1282 434 c 0
 1298 425 1306 409 1306 393 c 0
 1306 383 1303 374 1297 365 c 2
 1154 173 l 2
1775 726 m 1
 1650 857 l 1
 1375 571 l 1
 1501 441 l 1
 1775 726 l 1
1848 650 m 1
 1574 365 l 1
 1667 269 l 1
 1941 554 l 1
 1848 650 l 1
1576 933 m 1
 1462 1051 l 1
 1187 765 l 1
 1302 647 l 1
 1576 933 l 1
EndSplineSet
EndChar
StartChar: uniE078
Encoding: 57464 57464 23
Width: 767
VWidth: 0
Flags: W
HStem: 375.08 50<186.518 346 401 560.482>
VStem: 346 55<-2 375.08 425.08 567.715>
LayerCount: 2
Back
SplineSet
127 399 m 4
 127 414.456 140.44 427 157 427 c 4
 173.56 427 187 414.456 187 399 c 4
 187 383.544 173.56 371 157 371 c 4
 140.44 371 127 383.544 127 399 c 4
560 399 m 4
 560 414.456 573.44 427 590 427 c 4
 606.56 427 620 414.456 620 399 c 4
 620 383.544 606.56 371 590 371 c 4
 573.44 371 560 383.544 560 399 c 4
343 596 m 4
 343 611.456 356.44 624 373 624 c 4
 389.56 624 403 611.456 403 596 c 4
 403 580.544 389.56 568 373 568 c 4
 356.44 568 343 580.544 343 596 c 4
589.474 400.08 m 21
 157.526 400.08 l 13
373.5 -2 m 29
 373.5 595.667 l 29
EndSplineSet
Fore
SplineSet
401 -2 m 1
 346 -2 l 1
 346 375.08 l 1
 208.3 375.08 l 1
 198.908 357.993 179.74 346 157 346 c 0
 124.633 346 99.5 370.299 99.5 399 c 0
 99.5 427.702 124.633 452 157 452 c 0
 178.769 452 197.265 441.009 207.044 425.08 c 1
 346 425.08 l 1
 346 549.173 l 1
 327.679 558.173 315.5 576.02 315.5 596 c 0
 315.5 624.701 340.632 649 373 649 c 0
 405.367 649 430.5 624.701 430.5 596 c 0
 430.5 576.385 418.763 558.828 401 549.676 c 1
 401 425.08 l 1
 539.956 425.08 l 1
 549.735 441.009 568.231 452 590 452 c 0
 622.367 452 647.5 427.702 647.5 399 c 0
 647.5 370.299 622.368 346 590 346 c 0
 567.261 346 548.092 357.993 538.7 375.08 c 1
 401 375.08 l 1
 401 -2 l 1
EndSplineSet
Validated: 1
EndChar
StartChar: uniE079
Encoding: 57465 57465 210
Width: 1529
VWidth: 0
Flags: HW
LayerCount: 3
Back
SplineSet
721 1325 m 4
 689 1325 664 1298 664 1264 c 4
 664 1230 689 1202 721 1202 c 4
 753 1202 778 1230 778 1264 c 4
 778 1298 753 1325 721 1325 c 4
721 438 m 4
 689 438 664 411 664 377 c 4
 664 343 689 315 721 315 c 4
 753 315 778 343 778 377 c 4
 778 411 753 438 721 438 c 4
318 883 m 4
 286 883 260 855 260 821 c 4
 260 787 286 760 318 760 c 4
 350 760 375 787 375 821 c 4
 375 855 350 883 318 883 c 4
719 378 m 21
 719 1263 l 13
1197 820 m 29
 318 820 l 29
EndSplineSet
Fore
SplineSet
1197 870 m 1
 1197 770 l 1
 774 770 l 1
 774 475 l 1
 812 455 833 416 833 377 c 0
 833 324 792 265 721 265 c 0
 650 265 609 324 609 377 c 0
 609 414 629 453 664 473 c 1
 664 770 l 1
 417 770 l 1
 400 736 365 710 318 710 c 0
 249 710 205 766 205 821 c 0
 205 876 248 933 318 933 c 0
 367 933 402 905 419 870 c 1
 664 870 l 1
 664 1167 l 1
 629 1188 609 1227 609 1264 c 0
 609 1318 651 1375 721 1375 c 0
 791 1375 833 1318 833 1264 c 0
 833 1226 812 1185 774 1165 c 1
 774 870 l 1
 1197 870 l 1
EndSplineSet
EndChar
StartChar: uniE07A
Encoding: 57466 57466 255
Width: 1529
VWidth: 0
Flags: HW
LayerCount: 3
Back
SplineSet
704 426 m 0
 704 458 731 484 765 484 c 0
 799 484 826 458 826 426 c 0
 826 394 799 369 765 369 c 0
 731 369 704 394 704 426 c 0
260 817 m 0
 260 849 288 874 322 874 c 0
 356 874 383 849 383 817 c 0
 383 785 356 760 322 760 c 0
 288 760 260 785 260 817 c 0
1147 817 m 0
 1147 849 1174 874 1208 874 c 0
 1242 874 1270 849 1270 817 c 0
 1270 785 1242 760 1208 760 c 0
 1174 760 1147 785 1147 817 c 0
702 1221 m 0
 702 1253 730 1278 764 1278 c 0
 798 1278 825 1253 825 1221 c 0
 825 1189 798 1163 764 1163 c 0
 730 1163 702 1189 702 1221 c 0
1207 819 m 17
 323 819 l 9
765 422 m 25
 765 1220 l 25
EndSplineSet
Fore
SplineSet
647 1221 m 0
 647 1280 700 1328 764 1328 c 0
 829 1328 880 1279 880 1221 c 0
 880 1181 856 1145 820 1126 c 1
 820 869 l 1
 1107 869 l 1
 1127 902 1164 924 1208 924 c 0
 1272 924 1325 876 1325 817 c 0
 1325 758 1272 710 1208 710 c 0
 1162 710 1123 734 1104 769 c 1
 820 769 l 1
 820 521 l 1
 857 502 881 466 881 426 c 0
 881 368 830 319 765 319 c 0
 700 319 649 368 649 426 c 0
 649 466 673 502 710 521 c 1
 710 769 l 1
 426 769 l 1
 407 734 368 710 322 710 c 0
 258 710 205 758 205 817 c 0
 205 876 258 924 322 924 c 0
 366 924 403 902 423 869 c 1
 710 869 l 1
 710 1125 l 1
 672 1143 647 1180 647 1221 c 0
EndSplineSet
EndChar
StartChar: uniE07B
Encoding: 57467 57467 258
Width: 1356
VWidth: 0
Flags: HW
LayerCount: 3
Back
SplineSet
661 378 m 17
 661 1263 l 9
1096 820 m 25
 260 820 l 25
EndSplineSet
Fore
SplineSet
1096 870 m 1
 1096 770 l 1
 716 770 l 1
 716 378 l 1
 606 378 l 1
 606 770 l 1
 260 770 l 1
 260 870 l 1
 606 870 l 1
 606 1263 l 1
 716 1263 l 1
 716 870 l 1
 1096 870 l 1
EndSplineSet
EndChar
StartChar: uniE07C
Encoding: 57468 57468 269
Width: 1529
VWidth: 0
Flags: HW
LayerCount: 3
Back
SplineSet
702.464 209.39 m 0
 702.464 177.74 729.989 152.05 763.904 152.05 c 0
 797.819 152.05 825.344 177.74 825.344 209.39 c 0
 825.344 241.05 797.819 266.74 763.904 266.74 c 0
 729.989 266.74 702.464 241.05 702.464 209.39 c 0
260.096 623.848 m 0
 260.096 592.194 287.621 566.504 321.536 566.504 c 0
 355.451 566.504 382.976 592.194 382.976 623.848 c 0
 382.976 655.502 355.451 681.192 321.536 681.192 c 0
 287.621 681.192 260.096 655.502 260.096 623.848 c 0
1146.88 623.848 m 0
 1146.88 592.194 1174.41 566.504 1208.32 566.504 c 0
 1242.24 566.504 1269.76 592.194 1269.76 623.848 c 0
 1269.76 655.502 1242.24 681.192 1208.32 681.192 c 0
 1174.41 681.192 1146.88 655.502 1146.88 623.848 c 0
1207.24 621.636 m 17
 322.613 621.636 l 9
260.096 1046.15 m 0
 260.096 1077.81 287.621 1103.5 321.536 1103.5 c 0
 355.451 1103.5 382.976 1077.81 382.976 1046.15 c 0
 382.976 1014.5 355.451 988.808 321.536 988.808 c 0
 287.621 988.808 260.096 1014.5 260.096 1046.15 c 0
1146.88 1046.15 m 0
 1146.88 1077.81 1174.41 1103.5 1208.32 1103.5 c 0
 1242.24 1103.5 1269.76 1077.81 1269.76 1046.15 c 0
 1269.76 1014.5 1242.24 988.808 1208.32 988.808 c 0
 1174.41 988.808 1146.88 1014.5 1146.88 1046.15 c 0
702.464 1436.61 m 0
 702.464 1468.26 729.989 1493.95 763.904 1493.95 c 0
 797.819 1493.95 825.344 1468.26 825.344 1436.61 c 0
 825.344 1404.95 797.819 1379.26 763.904 1379.26 c 0
 729.989 1379.26 702.464 1404.95 702.464 1436.61 c 0
1207.24 1048.36 m 17
 322.613 1048.36 l 9
764.928 208.904 m 25
 764.928 1432.93 l 25
EndSplineSet
Fore
SplineSet
647 1437 m 0
 647 1495 698 1544 764 1544 c 0
 830 1544 880 1495 880 1437 c 0
 880 1397 856 1360 820 1342 c 1
 820 1098 l 1
 1107 1098 l 1
 1127 1131 1164 1153 1208 1153 c 0
 1274 1153 1325 1104 1325 1046 c 0
 1325 988 1274 939 1208 939 c 0
 1162 939 1123 963 1104 998 c 1
 820 998 l 1
 820 672 l 1
 1104 672 l 1
 1123 707 1162 731 1208 731 c 0
 1274 731 1325 682 1325 624 c 0
 1325 566 1274 517 1208 517 c 0
 1164 517 1127 539 1107 572 c 1
 820 572 l 1
 820 304 l 1
 856 286 880 249 880 209 c 0
 880 151 830 102 764 102 c 0
 698 102 647 151 647 209 c 0
 647 250 673 287 710 305 c 1
 710 572 l 1
 423 572 l 1
 403 539 366 517 322 517 c 0
 256 517 205 566 205 624 c 0
 205 682 256 731 322 731 c 0
 368 731 407 707 426 672 c 1
 710 672 l 1
 710 998 l 1
 426 998 l 1
 407 963 368 939 322 939 c 0
 256 939 205 988 205 1046 c 0
 205 1104 256 1153 322 1153 c 0
 366 1153 403 1131 423 1098 c 1
 710 1098 l 1
 710 1341 l 1
 673 1359 647 1396 647 1437 c 0
EndSplineSet
EndChar
StartChar: uniE07D
Encoding: 57469 57469 326
Width: 1529
VWidth: -205
Flags: HW
LayerCount: 3
Back
SplineSet
377 614.2 m 29
 1037 1122 l 29
 1220 885 l 29
1103 614.2 m 29
 443 1122 l 29
 260 885 l 29
676.464 4.38965 m 4
 676.464 -27.2598 703.989 -52.9502 737.904 -52.9502 c 4
 771.819 -52.9502 799.344 -27.2598 799.344 4.38965 c 4
 799.344 36.0498 771.819 61.7402 737.904 61.7402 c 4
 703.989 61.7402 676.464 36.0498 676.464 4.38965 c 4
676.464 1231.61 m 4
 676.464 1263.26 703.989 1288.95 737.904 1288.95 c 4
 771.819 1288.95 799.344 1263.26 799.344 1231.61 c 4
 799.344 1199.95 771.819 1174.26 737.904 1174.26 c 4
 703.989 1174.26 676.464 1199.95 676.464 1231.61 c 4
738.928 3.9043 m 29
 738.928 1227.93 l 29
EndSplineSet
Fore
SplineSet
621 1232 m 0
 621 1290 672 1339 738 1339 c 0
 804 1339 854 1290 854 1232 c 0
 854 1192.07 830.302 1155.93 794 1137.29 c 1
 794 1000.67 l 1
 1001 1160 l 2
 1012 1168 1024 1172 1036 1172 c 0
 1055 1172 1073 1163 1082 1151 c 2
 1265 914 l 1
 1175 856 l 1
 1027 1048 l 1
 825.629 893.2 l 1
 1139 652 l 1
 1067 576 l 1
 794 785.863 l 1
 794 98.7104 l 1
 830.302 80.0683 854 43.93 854 4 c 0
 854 -54 804 -103 738 -103 c 0
 672 -103 621 -54 621 4 c 0
 621 44.7358 646.157 81.5253 684 99.8175 c 1
 684 784.326 l 1
 413 576 l 1
 341 652 l 1
 654.371 893.2 l 1
 453 1048 l 1
 305 856 l 1
 215 914 l 1
 398 1151 l 2
 407 1163 425 1172 444 1172 c 0
 456 1172 468 1168 479 1160 c 2
 684 1002.21 l 1
 684 1136.18 l 1
 646.157 1154.47 621 1191.26 621 1232 c 0
EndSplineSet
EndChar
StartChar: uniE07E
Encoding: 57470 57470 373
Width: 1529
VWidth: -205
Flags: HW
LayerCount: 3
Back
SplineSet
260 612 m 0
 260 644 288 669 322 669 c 0
 356 669 383 644 383 612 c 0
 383 580 356 555 322 555 c 0
 288 555 260 580 260 612 c 0
1147 612 m 0
 1147 644 1174 669 1208 669 c 0
 1242 669 1270 644 1270 612 c 0
 1270 580 1242 555 1208 555 c 0
 1174 555 1147 580 1147 612 c 0
702 1016 m 0
 702 1048 730 1073 764 1073 c 0
 798 1073 825 1048 825 1016 c 0
 825 984 798 958 764 958 c 0
 730 958 702 984 702 1016 c 0
1207 614 m 17
 323 614 l 9
765 204 m 29
 765 1015 l 25
EndSplineSet
Fore
SplineSet
820 204 m 1
 710 204 l 1
 710 564 l 1
 425.61 564 l 1
 406.657 529.332 367.805 505 322 505 c 0
 258 505 205 553 205 612 c 0
 205 671 258 719 322 719 c 0
 366.022 719 403.622 696.525 423.307 664 c 1
 710 664 l 1
 710 919.996 l 1
 672.157 938.057 647 974.562 647 1016 c 0
 647 1075 700 1123 764 1123 c 0
 829 1123 880 1074 880 1016 c 0
 880 976.599 856.587 940.065 820 921.261 c 1
 820 664 l 1
 1106.69 664 l 1
 1126.38 696.525 1163.98 719 1208 719 c 0
 1272 719 1325 671 1325 612 c 0
 1325 553 1272 505 1208 505 c 0
 1162.2 505 1123.34 529.332 1104.39 564 c 1
 820 564 l 1
 820 204 l 1
EndSplineSet
EndChar
StartChar: uniE080
Encoding: 57472 57472 25
Width: 845
VWidth: 0
Flags: WO
HStem: -4 129<380.516 462.285> 675 50<354.245 486.653>
VStem: 100 55<336.058 463.925> 362 115<7.4798 78.1647> 684 55<383.83 420.738>
CounterMasks: 1 38
LayerCount: 2
Back
SplineSet
552.54 366.56 m 29
 249.94 658.72 l 29
346.06 143.04 m 29
 43.46 435.2 l 29
488.46 216.96 m 29
 109.32 584.8 l 29
39.9004 366.56 m 29
 342.5 658.72 l 29
246.38 143.04 m 29
 548.98 435.2 l 29
103.98 216.96 m 29
 483.12 584.8 l 29
264 50 m 0
 264 65.4561 277.44 78 294 78 c 0
 310.56 78 324 65.4561 324 50 c 0
 324 34.5439 310.56 22 294 22 c 0
 277.44 22 264 34.5439 264 50 c 0
584 362 m 25
 244 694 l 25
352 108 m 25
 12 440 l 25
512 192 m 25
 86 610 l 25
8 362 m 25
 348 694 l 25
240 108 m 25
 580 440 l 25
80 192 m 25
 506 610 l 25
2 400 m 0
 2 565.6 132.816 700 294 700 c 0
 455.184 700 586 565.6 586 400 c 0
 586 234.4 455.184 100 294 100 c 0
 132.816 100 2 234.4 2 400 c 0
286 704 m 25
EndSplineSet
Fore
SplineSet
100 400 m 0
 100 576.788 240.267 725 419.5 725 c 0
 598.733 725 739 576.787 739 400 c 0
 739 239.238 623.013 102.107 467.208 78.5649 c 1
 473.415 70.0528 477 59.8405 477 49 c 0
 477 20.2979 451.866 -4 419.5 -4 c 0
 387.133 -4 362 20.2979 362 49 c 0
 362 59.8405 365.585 70.0528 371.792 78.565 c 1
 215.988 102.107 100 239.239 100 400 c 0
236.769 201.375 m 1
 265.726 172.661 300.835 150.768 339.527 137.933 c 1
 396.827 192.6 l 1
 312.07 274.433 l 1
 236.769 201.375 l 1
622.75 575.853 m 1
 553.877 509.033 l 1
 640.672 425.233 l 1
 677.61 460.473 l 1
 668.258 503.887 649.056 543.145 622.75 575.853 c 1
215.065 225.631 m 1
 288.662 297.033 l 1
 202.662 380.066 l 1
 161.35 339.714 l 1
 170.546 296.88 189.33 258.087 215.065 225.631 c 1
600.885 599.951 m 1
 570.662 629.506 533.868 651.69 493.366 664.008 c 1
 443.655 615.453 l 1
 530.469 531.634 l 1
 600.885 599.951 l 1
379.827 128.12 m 1
 392.805 126.064 406.056 125 419.5 125 c 0
 434.254 125 448.777 126.281 462.96 128.749 c 1
 462.96 128.749 l 1
 421.72 168.566 l 1
 379.827 128.12 l 1
683.241 421.064 m 1
 664.115 402.598 l 1
 683.554 383.83 l 1
 683.85 389.176 684 394.567 684 400 c 0
 684 407.096 683.744 414.12 683.241 421.064 c 1
155.699 379.787 m 1
 179.325 402.598 l 1
 156.075 425.046 l 1
 155.364 416.808 155 408.455 155 400 c 0
 155 393.194 155.236 386.454 155.699 379.787 c 1
458.361 672.008 m 1
 445.643 673.98 432.663 675 419.5 675 c 0
 407.663 675 395.975 674.175 384.492 672.575 c 1
 421.72 636.631 l 1
 458.361 672.008 l 1
312.971 531.634 m 1
 398.879 614.578 l 1
 347.212 664.482 l 1
 307.079 652.558 270.533 630.961 240.339 602.101 c 1
 312.971 531.634 l 1
335.481 509.795 m 1
 421.72 426.126 l 1
 507.66 509.505 l 1
 420.941 593.268 l 1
 335.481 509.795 l 1
530.74 320.355 m 1
 617.647 403.267 l 1
 531.063 486.899 l 1
 445.072 403.47 l 1
 530.74 320.355 l 1
554.778 297.034 m 1
 625.852 228.078 l 1
 651.522 261.217 670.017 300.776 678.611 344.382 c 1
 641.222 380.496 l 1
 554.778 297.034 l 1
289.563 509.033 m 1
 218.209 578.261 l 1
 188.293 541.914 167.24 497.242 158.934 447.63 c 1
 170.428 456.376 l 1
 202.686 425.153 l 1
 289.563 509.033 l 1
312.208 487.063 m 1
 225.86 402.724 l 1
 311.832 319.513 l 1
 398.368 403.47 l 1
 312.208 487.063 l 1
507.192 297.89 m 1
 421.72 380.815 l 1
 335.211 296.884 l 1
 420.058 214.762 l 1
 507.192 297.89 l 1
531.37 274.433 m 1
 444.782 190.833 l 1
 499.445 137.924 l 1
 539.126 151.082 575.039 173.767 604.415 203.565 c 1
 531.37 274.433 l 1
EndSplineSet
Validated: 524293
EndChar
StartChar: uniE081
Encoding: 57473 57473 46
Width: 1716
VWidth: 0
Flags: HW
HStem: 92 217<765 951> 1145 217<392 470 1256 1325> 1382 102<650 1067>
VStem: 203 113<599 1038> 1401 111<599 1037>
LayerCount: 3
Back
SplineSet
370.688 1253.38 m 4
 370.688 1285.03 398.213 1310.72 432.128 1310.72 c 4
 466.043 1310.72 493.568 1285.03 493.568 1253.38 c 4
 493.568 1221.72 466.043 1196.03 432.128 1196.03 c 4
 398.213 1196.03 370.688 1221.72 370.688 1253.38 c 4
1230.85 1245.18 m 4
 1230.85 1276.84 1258.37 1302.53 1292.29 1302.53 c 4
 1326.2 1302.53 1353.73 1276.84 1353.73 1245.18 c 4
 1353.73 1213.53 1326.2 1187.84 1292.29 1187.84 c 4
 1258.37 1187.84 1230.85 1213.53 1230.85 1245.18 c 4
796.672 200.704 m 4
 796.672 232.357 824.197 258.048 858.112 258.048 c 4
 892.027 258.048 919.552 232.357 919.552 200.704 c 4
 919.552 169.05 892.027 143.36 858.112 143.36 c 4
 824.197 143.36 796.672 169.05 796.672 200.704 c 4
260.096 819.2 m 4
 260.096 1158.35 528.007 1433.6 858.112 1433.6 c 4
 1188.22 1433.6 1456.13 1158.35 1456.13 819.2 c 4
 1456.13 480.051 1188.22 204.8 858.112 204.8 c 4
 528.007 204.8 260.096 480.051 260.096 819.2 c 4
841.729 1441.79 m 29
EndSplineSet
Fore
SplineSet
315 1253 m 0
 315 1312 366 1362 432 1362 c 0
 446 1362 459 1360 471 1356 c 1
 580 1436 713 1485 858 1485 c 0
 1010 1485 1146 1434 1255 1348 c 1
 1267 1352 1280 1354 1292 1354 c 0
 1358 1354 1409 1304 1409 1245 c 0
 1409 1227 1405 1210 1397 1196 c 1
 1471 1087 1511 958 1511 819 c 0
 1511 493 1282 217 969 164 c 1
 953 123 909 92 858 92 c 1
 807 92 764 123 748 164 c 1
 435 217 203 493 203 819 c 0
 203 962 248 1095 326 1206 c 1
 318 1220 315 1237 315 1253 c 0
952 264 m 1
 1202 311 1401 538 1401 819 c 0
 1401 938 1364 1047 1305 1137 c 1
 1301 1137 1296 1137 1292 1137 c 0
 1226 1137 1176 1186 1176 1245 c 0
 1176 1255 1176 1266 1178 1274 c 1
 1088 1344 977 1382 858 1382 c 0
 743 1382 635 1346 547 1280 c 1
 549 1272 549 1261 549 1253 c 0
 549 1194 498 1145 432 1145 c 0
 426 1145 422 1145 418 1145 c 1
 355 1053 315 942 315 819 c 0
 315 538 514 311 764 264 c 1
 784 291 819 309 858 309 c 0
 897 309 932 291 952 264 c 1
EndSplineSet
EndChar
StartChar: uniE082
Encoding: 57474 57474 50
Width: 838
VWidth: 0
Flags: W
HStem: 75 50<317.329 521.203> 135 106<191.193 229.719 613.281 646.788> 649 106<373.474 464.526>
VStem: 99 55<293.217 507.396> 684 54<293.572 507.396>
LayerCount: 2
Fore
SplineSet
465 671 m 1
 455 658 438 649 419 649 c 0
 400 649 383 658 373 671 c 1
 251 648 154 537 154 400 c 0
 154 340 173 286 204 241 c 1
 206 241 208 241 211 241 c 0
 243 241 268 217 268 188 c 0
 268 184 268 179 267 175 c 1
 310 143 363 125 419 125 c 0
 477 125 531 144 575 178 c 1
 574 182 574 187 574 192 c 0
 574 221 599 245 631 245 c 0
 633 245 635 245 637 245 c 1
 666 289 684 342 684 400 c 0
 684 537 587 648 465 671 c 1
154 188 m 0
 154 196 155 204 159 211 c 1
 121 265 99 330 99 400 c 0
 99 559 212 694 365 720 c 1
 373 740 394 755 419 755 c 0
 444 755 465 740 473 720 c 1
 626 694 738 559 738 400 c 0
 738 332 718 269 682 216 c 1
 686 209 688 201 688 192 c 0
 688 163 663 139 631 139 c 0
 625 139 619 140 613 142 c 1
 560 100 493 75 419 75 c 0
 348 75 283 99 230 138 c 1
 224 136 218 135 211 135 c 0
 179 135 154 159 154 188 c 0
EndSplineSet
Validated: 1
EndChar
StartChar: uniE083
Encoding: 57475 57475 64
Width: 733
VWidth: 0
Flags: W
HStem: 661 86<335.001 416.999>
VStem: 329 94<667.96 740.04>
LayerCount: 2
Back
SplineSet
346 704 m 0
 346 727 366 747 393 747 c 0
 420 747 440 727 440 704 c 0
 440 681 420 661 393 661 c 0
 366 661 346 681 346 704 c 0
602 285 m 9
 330 552 l 17
497 176 m 9
 220 452 l 17
430.06 143.04 m 25
 166 400 l 25
572.46 216.96 m 25
 282 507 l 25
165 285 m 9
 438 561 l 17
270 176 m 9
 548 453 l 17
130.46 366.56 m 25
 386 614 l 25
 636.54 366.56 l 25
336.94 143.04 m 25
 602 400 l 25
194.54 216.96 m 25
 494 508 l 25
363 704 m 0
 363 719.456 376.44 732 393 732 c 0
 409.56 732 423 719.456 423 704 c 0
 423 688.544 409.56 676 393 676 c 0
 376.44 676 363 688.544 363 704 c 0
EndSplineSet
Fore
SplineSet
329 704 m 0
 329 727 349 747 376 747 c 0
 403 747 423 727 423 704 c 0
 423 681 403 661 376 661 c 0
 349 661 329 681 329 704 c 0
191 207 m 1
 164 227 l 1
 233.845 294.75 l 1
 206.686 321.188 l 1
 161 275 l 1
 135 295 l 1
 183.362 343.894 l 1
 148.522 377.81 l 1
 127 357 l 1
 100 377 l 1
 356 624 l 2
 359.366 627.366 364.119 628.882 368.815 628.882 c 0
 373.884 628.882 378.885 627.115 382 624 c 2
 633 376 l 1
 606 357 l 1
 585.175 377.562 l 1
 549.318 342.787 l 1
 598 295 l 1
 572 275 l 1
 525.99 320.164 l 1
 500.409 295.355 l 1
 569 227 l 1
 542 207 l 1
 476.669 272.331 l 1
 441.037 237.775 l 1
 493 186 l 1
 467 166 l 1
 417.689 215.133 l 1
 389.88 188.163 l 1
 426 153 l 1
 400 133 l 1
 366.562 165.55 l 1
 333 133 l 1
 307 153 l 1
 343.296 188.2 l 1
 315.468 215.29 l 1
 266 166 l 1
 240 186 l 1
 292.164 237.977 l 1
 257.5 271.721 l 1
 191 207 l 1
562.072 400.372 m 1
 531.506 430.551 l 1
 495.976 395.149 l 1
 526.146 365.532 l 1
 562.072 400.372 l 1
453.375 507.693 m 1
 421.901 538.768 l 1
 386.316 502.792 l 1
 417.135 472.541 l 1
 453.375 507.693 l 1
476.5 484.861 m 1
 440.388 449.715 l 1
 472.768 417.93 l 1
 508.365 453.399 l 1
 476.5 484.861 l 1
398.739 561.637 m 1
 369 591 l 1
 332.455 555.663 l 1
 363.088 525.594 l 1
 398.739 561.637 l 1
316.569 478.564 m 1
 340.242 502.498 l 1
 309.093 533.074 l 1
 285.126 509.899 l 1
 316.569 478.564 l 1
339.624 455.587 m 1
 369.235 426.078 l 1
 393.809 449.915 l 1
 363.471 479.696 l 1
 339.624 455.587 l 1
425.086 370.42 m 1
 449.754 394.999 l 1
 417.101 427.052 l 1
 392.391 403.002 l 1
 425.086 370.42 l 1
448.12 347.465 m 1
 477.415 318.27 l 1
 502.82 342.908 l 1
 472.962 372.217 l 1
 448.12 347.465 l 1
293.628 455.372 m 1
 261.727 487.273 l 1
 225.648 452.387 l 1
 258.399 419.755 l 1
 293.628 455.372 l 1
316.645 432.355 m 1
 281.456 396.78 l 1
 309.857 368.482 l 1
 345.726 403.274 l 1
 316.645 432.355 l 1
401.791 347.209 m 1
 368.88 380.12 l 1
 333.113 345.31 l 1
 366.499 312.044 l 1
 401.791 347.209 l 1
424.786 324.214 m 1
 389.535 289.091 l 1
 399.037 279.624 408.539 270.156 418.041 260.689 c 1
 453.715 295.285 l 1
 424.786 324.214 l 1
206.195 366.977 m 1
 235.53 396.635 l 1
 202.266 429.778 l 1
 171.873 400.389 l 1
 206.195 366.977 l 1
229.519 344.272 m 1
 257.159 317.364 l 1
 286.512 345.837 l 1
 258.588 373.66 l 1
 229.519 344.272 l 1
315.166 260.895 m 1
 343.463 289.091 l 1
 309.806 322.627 l 1
 280.776 294.374 l 1
 315.166 260.895 l 1
338.47 238.209 m 1
 366.612 210.813 l 1
 394.693 238.046 l 1
 366.499 266.138 l 1
 338.47 238.209 l 1
EndSplineSet
EndChar
StartChar: uniE084
Encoding: 57476 57476 62
Width: 1716
VWidth: 0
Flags: HW
HStem: 154 102<656 1060> 1382 102<656 1060>
VStem: 203 113<603 1035> 1401 111<603 1035>
LayerCount: 3
Back
SplineSet
260.096 819.2 m 4
 260.096 1158.35 528.007 1433.6 858.112 1433.6 c 4
 1188.22 1433.6 1456.13 1158.35 1456.13 819.2 c 4
 1456.13 480.051 1188.22 204.8 858.112 204.8 c 4
 528.007 204.8 260.096 480.051 260.096 819.2 c 4
EndSplineSet
Fore
SplineSet
203 819 m 0
 203 1181 491 1485 858 1485 c 0
 1225 1485 1511 1181 1511 819 c 0
 1511 457 1225 154 858 154 c 0
 491 154 203 457 203 819 c 0
315 819 m 0
 315 504 565 256 858 256 c 0
 1151 256 1401 504 1401 819 c 0
 1401 1134 1151 1382 858 1382 c 0
 565 1382 315 1134 315 819 c 0
EndSplineSet
EndChar
StartChar: uniE085
Encoding: 57477 57477 66
Width: 838
VWidth: 0
Flags: W
HStem: 174 51<315.845 390 445 519.954> 354 50<194 390 446 644> 586 50<191 391 446 648> 771 52<315.489 391 446 522.404>
VStem: 99 55<406.367 585.889> 391 55<3 175.596 225 353 404 586 637 771> 684 54<405.595 581.539>
LayerCount: 3
Back
SplineSet
687 611 m 25
 151 612 l 25
687 378 m 25
 151 379 l 25
419 798 m 25
 417 3 l 25
127 498 m 0
 127 663.6 257.816 798 419 798 c 0
 580.184 798 711 663.6 711 498 c 0
 711 332.4 580.184 198 419 198 c 0
 257.816 198 127 332.4 127 498 c 0
EndSplineSet
Fore
SplineSet
99 498 m 0
 99 675 240 823 419 823 c 0
 598 823 738 675 738 498 c 0
 738 330 612 187 445 174 c 1
 445 117 444 60 444 3 c 1
 390 3 l 1
 390 174 l 1
 225 189 99 331 99 498 c 0
390 225 m 1
 390 354 l 1
 194 354 l 1
 236 283 308 234 390 225 c 1
391 771 m 1
 306 762 233 711 191 637 c 1
 258 637 324 637 391 637 c 1
 391 771 l 1
445 224 m 1
 528 233 601 282 644 353 c 1
 445 353 l 1
 445 224 l 1
446 772 m 1
 446 636 l 1
 648 636 l 1
 606 711 531 763 446 772 c 1
446 403 m 1
 667 403 l 1
 677 432 684 464 684 498 c 0
 684 529 679 558 670 586 c 1
 446 586 l 1
 446 403 l 1
391 404 m 1
 391 465 391 526 391 587 c 1
 169 587 l 1
 160 559 154 529 154 498 c 0
 154 465 160 433 170 404 c 1
 391 404 l 1
EndSplineSet
Validated: 1
EndChar
StartChar: uniE086
Encoding: 57478 57478 67
Width: 845
VWidth: 0
Flags: HW
HStem: 75 50<317.329 521.203> 135 106<191.193 229.719 613.281 646.788> 649 106<373.474 464.526>
VStem: 99 55<293.217 507.396> 684 54<293.572 507.396>
LayerCount: 2
Fore
SplineSet
99 400 m 0
 99 577 240 725 419 725 c 0
 598 725 738 577 738 400 c 0
 738 223 598 75 419 75 c 0
 240 75 99 223 99 400 c 0
392 126 m 1
 392 375 l 1
 156 375 l 1
 167 243 269 139 392 126 c 1
392 674 m 1
 269 661 167 557 156 425 c 1
 392 425 l 1
 392 674 l 1
446 126 m 1
 502 132 554 157 595 195 c 1
 446 349 l 1
 446 126 l 1
446 674 m 1
 446 452 l 1
 591 609 l 1
 551 645 500 668 446 674 c 1
630 235 m 1
 663 281 684 337 684 400 c 0
 684 465 662 524 627 570 c 1
 470 400 l 1
 630 235 l 1
EndSplineSet
EndChar
StartChar: uniE087
Encoding: 57479 57479 68
Width: 845
VWidth: 0
Flags: HW
LayerCount: 2
Back
SplineSet
708 430 m 25
 417 136 l 25
 128 434 l 25
672 546 m 25
 418 294 l 25
 167 545 l 25
582 648 m 25
 418 470 l 25
 249 642 l 25
419 100 m 25
419 100 m 16
 419 700 l 0
127 400 m 0
 127 565.6 257.816 700 419 700 c 0
 580.184 700 711 565.6 711 400 c 0
 711 234.4 580.184 100 419 100 c 0
 257.816 100 127 234.4 127 400 c 0
EndSplineSet
Fore
SplineSet
416.5 100 m 0
 416.5 97.79 418.247 97 419 97 c 0
 419.753 97 421.5 97.79 421.5 100 c 0
 421.5 102.21 419.753 103 419 103 c 0
 418.247 103 416.5 102.21 416.5 100 c 0
361.5 100 m 0
 361.5 128.702 386.634 153 419 153 c 0
 451.366 153 476.5 128.702 476.5 100 c 0
 476.5 71.2979 451.366 47 419 47 c 0
 386.634 47 361.5 71.2979 361.5 100 c 0
691.107 443.211 m 1
 724.893 416.789 l 1
 433.893 122.789 l 0
 424.756 113.558 408.317 114.322 399.958 122.941 c 0
 110.958 420.941 l 1
 145.042 447.059 l 1
 417.173 166.453 l 1
 691.107 443.211 l 1
655.242 559.346 m 1
 688.758 532.654 l 1
 434.758 280.654 l 0
 425.364 271.335 409.007 272.89 401.184 280.713 c 0
 150.184 531.713 l 1
 183.816 558.287 l 1
 418.066 324.038 l 1
 655.242 559.346 l 1
564.593 660.672 m 1
 599.407 635.328 l 1
 435.407 457.328 l 0
 425.852 446.956 408.519 449.246 401.054 456.844 c 0
 232.054 628.844 l 1
 265.946 655.156 l 1
 417.447 500.966 l 1
 564.593 660.672 l 1
419 100 m 25
441.5 100 m 1
 396.5 100 l 1
 396.5 700 l 1
 441.5 700 l 1
 441.5 100 l 1
154.5 400 m 0
 154.5 245.589 275.866 125 419 125 c 0
 562.134 125 683.5 245.589 683.5 400 c 0
 683.5 554.411 562.134 675 419 675 c 0
 275.866 675 154.5 554.411 154.5 400 c 0
99.5 400 m 0
 99.5 576.787 239.767 725 419 725 c 0
 598.233 725 738.5 576.787 738.5 400 c 0
 738.5 223.213 598.232 75 419 75 c 0
 239.767 75 99.5 223.213 99.5 400 c 0
EndSplineSet
EndChar
StartChar: uniE088
Encoding: 57480 57480 25
Width: 663
VWidth: 0
Flags: HW
VStem: 205 254<-96 95 724 914 1545 1732> 274 111<79 739 900 1559>
LayerCount: 3
Back
SplineSet
260.096 0 m 4
 260.096 41.8281 291.75 75.7764 330.752 75.7764 c 4
 369.754 75.7764 401.408 41.8281 401.408 0 c 4
 401.408 -41.8281 369.754 -75.7764 330.752 -75.7764 c 4
 291.75 -75.7764 260.096 -41.8281 260.096 0 c 4
258.048 1638.4 m 4
 258.048 1680.23 289.702 1714.18 328.704 1714.18 c 4
 367.706 1714.18 399.36 1680.23 399.36 1638.4 c 4
 399.36 1596.57 367.706 1562.62 328.704 1562.62 c 4
 289.702 1562.62 258.048 1596.57 258.048 1638.4 c 4
329.729 0 m 29
 329.729 1638.4 l 29
260.864 819.542 m 4
 260.864 861.37 292.518 895.318 331.52 895.318 c 4
 370.522 895.318 402.176 861.37 402.176 819.542 c 4
 402.176 777.714 370.522 743.766 331.52 743.766 c 4
 292.518 743.766 260.864 777.714 260.864 819.542 c 4
EndSplineSet
Fore
SplineSet
201 1638 m 0x40
 201 1701 250 1765 328 1765 c 0
 406 1765 455 1701 455 1638 c 0
 455 1593 428 1547 385 1524 c 1
 385 934 l 1x40
 430 914 459 866 459 819 c 0x80
 459 772 430 725 385 705 c 1
 385 115 l 1x40
 430 92 459 47 459 0 c 0
 459 -63 410 -127 332 -127 c 0
 254 -127 205 -63 205 0 c 0x80
 205 45 231 92 274 115 c 1
 274 707 l 1x40
 231 730 205 774 205 819 c 0x80
 205 864 231 911 274 934 c 1
 274 1524 l 1
 229 1547 201 1591 201 1638 c 0x40
EndSplineSet
EndChar
StartChar: uniE089
Encoding: 57481 57481 57
Width: 324
VWidth: 0
Flags: W
VStem: 100 124<50.2048 143.455 660.297 751.789> 134 54<135.67 667.33>
LayerCount: 2
Fore
SplineSet
98 706 m 0x40
 98 737 122 768 160 768 c 0
 198 768 222 737 222 706 c 0
 222 684 209 661 188 650 c 1
 188 153 l 1x40
 210 142 224 120 224 97 c 0
 224 66 200 35 162 35 c 0
 124 35 100 66 100 97 c 0x80
 100 119 113 142 134 153 c 1
 134 650 l 1
 112 661 98 683 98 706 c 0x40
EndSplineSet
Validated: 1
EndChar
StartChar: uniE08A
Encoding: 57482 57482 108
Width: 1384
VWidth: 0
Flags: HW
HStem: 225 254<235 428 956 1149> 1159 254<235 428 956 1149>
VStem: 205 254<256 448 1190 1382> 565 254<-96 97 1542 1734> 635 115<77 1561> 926 254<256 448 1190 1382>
LayerCount: 3
Back
SplineSet
261.12 1286.14 m 0
 261.12 1244.32 292.773 1210.37 331.776 1210.37 c 0
 370.778 1210.37 402.432 1244.32 402.432 1286.14 c 0
 402.432 1327.97 370.778 1361.92 331.776 1361.92 c 0
 292.773 1361.92 261.12 1327.97 261.12 1286.14 c 0
261.12 352.256 m 4
 261.12 394.084 292.773 428.032 331.776 428.032 c 4
 370.778 428.032 402.432 394.084 402.432 352.256 c 4
 402.432 310.428 370.778 276.48 331.776 276.48 c 4
 292.773 276.48 261.12 310.428 261.12 352.256 c 4
261.12 352.256 m 4
 261.12 394.084 292.773 428.032 331.776 428.032 c 4
 370.778 428.032 402.432 394.084 402.432 352.256 c 4
 402.432 310.428 370.778 276.48 331.776 276.48 c 4
 292.773 276.48 261.12 310.428 261.12 352.256 c 4
1123.33 1286.14 m 0
 1123.33 1244.32 1091.67 1210.37 1052.67 1210.37 c 0
 1013.67 1210.37 982.016 1244.32 982.016 1286.14 c 0
 982.016 1327.97 1013.67 1361.92 1052.67 1361.92 c 0
 1091.67 1361.92 1123.33 1327.97 1123.33 1286.14 c 0
1123.33 1286.14 m 0
 1123.33 1244.32 1091.67 1210.37 1052.67 1210.37 c 0
 1013.67 1210.37 982.016 1244.32 982.016 1286.14 c 0
 982.016 1327.97 1013.67 1361.92 1052.67 1361.92 c 0
 1091.67 1361.92 1123.33 1327.97 1123.33 1286.14 c 0
1123.33 352.256 m 0
 1123.33 394.084 1091.67 428.032 1052.67 428.032 c 0
 1013.67 428.032 982.016 394.084 982.016 352.256 c 0
 982.016 310.428 1013.67 276.48 1052.67 276.48 c 0
 1091.67 276.48 1123.33 310.428 1123.33 352.256 c 0
1123.33 352.256 m 0
 1123.33 394.084 1091.67 428.032 1052.67 428.032 c 0
 1013.67 428.032 982.016 394.084 982.016 352.256 c 0
 982.016 310.428 1013.67 276.48 1052.67 276.48 c 0
 1091.67 276.48 1123.33 310.428 1123.33 352.256 c 0
622.592 0 m 0
 622.592 41.8281 654.246 75.7764 693.248 75.7764 c 0
 732.25 75.7764 763.904 41.8281 763.904 0 c 0
 763.904 -41.8281 732.25 -75.7764 693.248 -75.7764 c 0
 654.246 -75.7764 622.592 -41.8281 622.592 0 c 0
620.544 1638.4 m 0
 620.544 1680.23 652.198 1714.18 691.2 1714.18 c 0
 730.202 1714.18 761.856 1680.23 761.856 1638.4 c 0
 761.856 1596.57 730.202 1562.62 691.2 1562.62 c 0
 652.198 1562.62 620.544 1596.57 620.544 1638.4 c 0
692.224 0 m 25
 692.224 1638.4 l 25
622.592 0 m 0
 622.592 41.8281 654.246 75.7764 693.248 75.7764 c 0
 732.25 75.7764 763.904 41.8281 763.904 0 c 0
 763.904 -41.8281 732.25 -75.7764 693.248 -75.7764 c 0
 654.246 -75.7764 622.592 -41.8281 622.592 0 c 0
620.544 1638.4 m 0
 620.544 1680.23 652.198 1714.18 691.2 1714.18 c 0
 730.202 1714.18 761.856 1680.23 761.856 1638.4 c 0
 761.856 1596.57 730.202 1562.62 691.2 1562.62 c 0
 652.198 1562.62 620.544 1596.57 620.544 1638.4 c 0
692.224 0 m 25
 692.224 1638.4 l 25
EndSplineSet
Fore
SplineSet
635 1524 m 1xec
 590 1547 565 1591 565 1638 c 0
 565 1701 614 1765 692 1765 c 0
 770 1765 819 1701 819 1638 c 0xf4
 819 1593 793 1547 750 1524 c 1
 750 115 l 1xec
 795 92 819 47 819 0 c 0
 819 -63 770 -127 692 -127 c 0
 614 -127 565 -63 565 0 c 0xf4
 565 45 592 92 635 115 c 1
 635 1524 l 1xec
1053 479 m 0
 1131 479 1180 415 1180 352 c 0
 1180 289 1131 225 1053 225 c 0
 975 225 926 289 926 352 c 0
 926 415 975 479 1053 479 c 0
1053 1413 m 0
 1131 1413 1180 1349 1180 1286 c 0
 1180 1223 1131 1159 1053 1159 c 0
 975 1159 926 1223 926 1286 c 0
 926 1349 975 1413 1053 1413 c 0
332 225 m 0
 254 225 205 289 205 352 c 0
 205 415 254 479 332 479 c 0
 410 479 459 415 459 352 c 0
 459 289 410 225 332 225 c 0
332 1159 m 0
 254 1159 205 1223 205 1286 c 0
 205 1349 254 1413 332 1413 c 0
 410 1413 459 1349 459 1286 c 0
 459 1223 410 1159 332 1159 c 0
EndSplineSet
EndChar
StartChar: uniE08B
Encoding: 57483 57483 209
Width: 663
VWidth: 0
Flags: HW
LayerCount: 3
Back
SplineSet
330 205 m 29
 332 1441 l 29
261 820 m 4
 261 862 293 895 332 895 c 4
 371 895 402 862 402 820 c 4
 402 778 371 744 332 744 c 4
 293 744 261 778 261 820 c 4
EndSplineSet
Fore
SplineSet
385 205 m 1
 275 205 l 1
 276 707 l 1
 232 729 206 774 206 820 c 0
 206 866 232 911 276 932 c 1
 276 1102 277 1271 277 1441 c 1
 387 1441 l 1
 386 933 l 1
 431 912 457 866 457 820 c 0
 457 774 431 727 386 706 c 1
 386 539 385 372 385 205 c 1
EndSplineSet
EndChar
StartChar: uniE08C
Encoding: 57484 57484 259
Width: 663
VWidth: -205
Flags: HW
LayerCount: 3
Back
SplineSet
260.096 0 m 0
 260.096 41.8281 291.75 75.7764 330.752 75.7764 c 0
 369.754 75.7764 401.408 41.8281 401.408 0 c 0
 401.408 -41.8281 369.754 -75.7764 330.752 -75.7764 c 0
 291.75 -75.7764 260.096 -41.8281 260.096 0 c 0
260.048 1236.4 m 0
 260.048 1278.23 291.702 1312.18 330.704 1312.18 c 0
 369.706 1312.18 401.36 1278.23 401.36 1236.4 c 0
 401.36 1194.57 369.706 1160.62 330.704 1160.62 c 0
 291.702 1160.62 260.048 1194.57 260.048 1236.4 c 0
329.729 0 m 25
 331.729 1236.4 l 25
261 926 m 0
 261 968 293 1001 332 1001 c 0
 371 1001 402 968 402 926 c 0
 402 884 371 850 332 850 c 0
 293 850 261 884 261 926 c 0
EndSplineSet
Fore
SplineSet
205 1236 m 0
 205 1298 254 1362 331 1362 c 0
 408 1362 456 1298 456 1236 c 0
 456 1190 431 1145 387 1123 c 1
 386 1039 l 1
 430 1018 457 972 457 926 c 0
 457 880 431 833 386 812 c 1
 385 114 l 1
 430 93 456 46 456 0 c 0
 456 -62 408 -126 331 -126 c 0
 254 -126 205 -62 205 0 c 0
 205 46 231 91 275 113 c 1
 276 813 l 1
 232 835 206 880 206 926 c 0
 206 972 232 1018 276 1039 c 1
 277 1122 l 1
 232 1143 205 1190 205 1236 c 0
EndSplineSet
EndChar
StartChar: uniE08D
Encoding: 57485 57485 266
Width: 661
VWidth: 0
Flags: HW
LayerCount: 3
Back
SplineSet
260 1441 m 0
 260 1483 292 1517 331 1517 c 0
 370 1517 401 1483 401 1441 c 0
 401 1399 370 1366 331 1366 c 0
 292 1366 260 1399 260 1441 c 0
330 205 m 25
 332 1441 l 25
EndSplineSet
Fore
SplineSet
385 205 m 1
 275 205 l 1
 277 1328 l 1
 232 1349 205 1394 205 1441 c 0
 205 1504 254 1567 331 1567 c 0
 409 1567 456 1503 456 1441 c 0
 456 1396 431 1350 387 1329 c 1
 385 205 l 1
EndSplineSet
EndChar
StartChar: uniE08E
Encoding: 57486 57486 268
Width: 841
VWidth: 0
Flags: HW
LayerCount: 3
Back
SplineSet
260 205 m 25
 262 1441 l 25
440 820 m 0
 440 862 472 895 511 895 c 0
 550 895 581 862 581 820 c 0
 581 778 550 744 511 744 c 0
 472 744 440 778 440 820 c 0
EndSplineSet
Fore
SplineSet
315 204.927 m 1
 205 205.073 l 1
 207 1441.07 l 1
 317 1440.93 l 1
 315 204.927 l 1
385 820 m 0
 385 883.393 435.033 945 511 945 c 0
 587.665 945 636 882.455 636 820 c 0
 636 758.194 588.654 694 511 694 c 0
 434.053 694 385 757.268 385 820 c 0
EndSplineSet
EndChar
StartChar: uniE090
Encoding: 57488 57488 27
Width: 903
VWidth: 0
Flags: W
HStem: 75 50<252.715 652.987> 375 50<153 394.198 509.288 748>
VStem: 98 55<425 704.607> 748 55<425 704.116>
LayerCount: 2
Back
SplineSet
709 100 m 29
 196 100 l 29
 775 777 l 29
 775 400 l 29
 125 400 l 29
 125 777 l 29
 709 100 l 29
EndSplineSet
Fore
SplineSet
507.225 375 m 1
 731.14 115.428 l 0
 740.383 104.712 738.257 88.7314 726.471 80.3281 c 0
 721.508 76.79 713.815 75 709.5 75 c 2
 196.5 75 l 0
 181.521 75 169 86.3828 169 100 c 0
 169 105.709 172.278 112.408 174.79 115.345 c 0
 396.858 375 l 1
 125.5 375 l 0
 110.521 375 98 386.383 98 400 c 0
 98 777 l 0
 98 790.617 110.521 802 125.5 802 c 0
 134.229 802 142.889 797.355 147.14 792.428 c 0
 451.805 439.246 l 1
 753.79 792.345 l 0
 762.984 803.096 780.555 805.095 792.38 796.736 c 0
 799.273 791.864 803 783.455 803 777 c 0
 803 400 l 0
 803 386.383 790.479 375 775.5 375 c 0
 507.225 375 l 1
509.288 425 m 1
 748 425 l 1
 748 704.116 l 1
 509.288 425 l 1
394.198 425 m 1
 153 704.607 l 1
 153 425 l 1
 394.198 425 l 1
451.99 358.005 m 1
 252.715 125 l 1
 652.987 125 l 1
 451.99 358.005 l 1
EndSplineSet
Validated: 524321
EndChar
StartChar: uniE091
Encoding: 57489 57489 170
Width: 1849
VWidth: 0
Flags: HW
LayerCount: 3
Back
SplineSet
256 819.2 m 13
 376.832 1439.74 l 29
 1452.03 204.8 l 21
401.408 204.8 m 13
 1458.18 1449.98 l 29
 1587.2 819.2 l 21
EndSplineSet
Fore
SplineSet
446 174 m 1
 356 236 l 1
 848 815 l 1
 410 1319 l 1
 311 811 l 1
 201 827 l 1
 322 1448 l 2
 326 1473 350 1491 377 1491 c 0
 381 1491 383 1491 387 1491 c 0
 401 1489 416 1479 422 1473 c 2
 920 899 l 1
 1413 1481 l 2
 1423 1493 1442 1501 1458 1501 c 0
 1470 1501 1483 1497 1493 1491 c 0
 1505 1483 1511 1468 1513 1460 c 2
 1642 829 l 1
 1532 809 l 1
 1425 1327 l 1
 991 817 l 1
 1497 238 l 1
 1407 172 l 1
 922 733 l 1
 446 174 l 1
EndSplineSet
EndChar
StartChar: uniE092
Encoding: 57490 57490 194
Width: 1104
VWidth: 0
Flags: W
HStem: 75 50<331 732> 539 50<185 343 741 915>
LayerCount: 3
Back
SplineSet
400 564 m 5
 127 564 l 13
 268 720 l 29
 787 100 l 29
 274 100 l 29
 822 720 l 29
 977 564 l 21
 683 564 l 5
EndSplineSet
Fore
SplineSet
538 439 m 1
 801 736 l 0
 807 742 815 745 822 745 c 0
 830 745 837 742 842 737 c 0
 997 581 l 0
 1002 576 1004 570 1004 564 c 0
 1004 557 1001 550 995 545 c 0
 990 541 982 539 977 539 c 0
 697 539 l 1
 572 398 l 1
 809 115 l 0
 813 110 815 105 815 100 c 0
 815 92 811 85 804 80 c 0
 799 77 791 75 787 75 c 0
 274 75 l 0
 259 75 246 86 246 100 c 0
 246 106 250 112 253 116 c 0
 503 399 l 1
 385 539 l 1
 127 539 l 0
 112 539 100 550 100 564 c 0
 100 570 102 576 106 580 c 0
 247 736 l 0
 252 742 260 745 268 745 c 0
 276 745 285 742 290 735 c 0
 538 439 l 1
343 589 m 1
 267 680 l 1
 185 589 l 1
 343 589 l 1
537 358 m 1
 331 125 l 1
 732 125 l 1
 537 358 l 1
741 589 m 1
 915 589 l 1
 823 681 l 1
 741 589 l 1
EndSplineSet
EndChar
StartChar: uniE098
Encoding: 57496 57496 28
Width: 663
VWidth: 0
Flags: W
HStem: 76 50<200 465> 353 89<106.904 182.575 480.332 554.52> 373 50<148.609 288 382 513.39> 679 50<205 474>
LayerCount: 3
Back
SplineSet
518.652 399.262 m 29
 145.315 397.924 l 29
517.405 380.362 m 4
 527.29 380.331 535.432 389.22 535.578 400.204 c 4
 535.725 411.188 527.821 420.127 517.936 420.158 c 4
 508.051 420.188 499.909 411.299 499.763 400.316 c 4
 499.616 389.331 507.52 380.394 517.405 380.362 c 4
153.167 100.915 m 29
 510.346 100.907 l 13
 159.146 703.833 l 29
 520.894 703.827 l 13
 153.167 100.915 l 29
145.05 378.025 m 4
 154.936 377.995 163.077 386.883 163.224 397.867 c 4
 163.37 408.85 155.466 417.79 145.581 417.821 c 4
 135.695 417.853 127.554 408.962 127.407 397.979 c 4
 127.261 386.995 135.165 378.057 145.05 378.025 c 4
EndSplineSet
Fore
SplineSet
153 76 m 2xb0
 137 76 126 88 126 101 c 0
 126 105 127 109 129 113 c 2
 288 373 l 1
 183 373 l 1xb0
 176 362 163 353 145 353 c 0
 115 353 100 378 100 398 c 0
 100 424 124 442 148 442 c 0xd0
 161 442 174 436 183 423 c 1
 219 423 255 423 291 423 c 1
 135 692 l 2
 133 696 132 700 132 704 c 0
 132 717 144 729 159 729 c 2
 521 729 l 2
 536 729 548 718 548 704 c 0
 548 700 546 694 545 692 c 2
 381 424 l 1
 479 424 l 1
 487 438 501 444 514 444 c 0
 538 444 563 426 563 400 c 1
 563 380 547 355 517 355 c 2
 516 355 l 2
 499 355 487 363 480 374 c 1
 382 374 l 1
 535 113 l 2
 536 111 538 105 538 101 c 0
 538 87 525 76 510 76 c 2
 153 76 l 2xb0
335 348 m 1
 200 126 l 1
 465 126 l 1
 335 348 l 1
336 453 m 1
 474 679 l 1
 205 679 l 1
 336 453 l 1
EndSplineSet
Validated: 1
EndChar
StartChar: uniE099
Encoding: 57497 57497 82
Width: 1357
VWidth: 0
Flags: HW
HStem: -51 184<602 760> 156 102<410 952> 723 184<219 374 986 1136> 764 102<301 590 784 1057> 1391 102<420 971>
VStem: 588 186<-37 119>
LayerCount: 3
Back
SplineSet
679.936 0 m 0
 700.181 -0.0644531 716.854 18.1396 717.154 40.6357 c 0
 717.453 63.1299 701.268 81.4375 681.021 81.502 c 0
 660.779 81.5625 644.104 63.3584 643.803 40.8662 c 0
 643.504 18.3682 659.689 0.0644531 679.936 0 c 0
1062.2 817.688 m 25
 297.605 814.948 l 25
1059.65 778.981 m 0
 1079.89 778.918 1096.56 797.123 1096.86 819.618 c 0
 1097.17 842.113 1080.98 860.42 1060.73 860.483 c 0
 1040.49 860.545 1023.81 842.341 1023.51 819.848 c 0
 1023.21 797.35 1039.4 779.047 1059.65 778.981 c 0
313.686 206.674 m 25
 1045.19 206.657 l 9
 325.931 1441.45 l 25
 1066.79 1441.44 l 9
 313.686 206.674 l 25
297.062 774.195 m 0
 317.309 774.134 333.981 792.336 334.283 814.832 c 0
 334.582 837.325 318.395 855.634 298.15 855.697 c 0
 277.903 855.763 261.23 837.555 260.93 815.061 c 0
 260.631 792.565 276.818 774.261 297.062 774.195 c 0
EndSplineSet
Fore
SplineSet
297 723 m 0xec
 236 723 205 772 205 815 c 0
 205 856 238 907 299 907 c 0xec
 336 907 361 889 375 866 c 1
 596 866 l 1
 276 1417 l 2
 272 1425 270 1433 270 1441 c 0
 270 1460 281 1478 299 1487 c 0
 307 1491 322 1493 326 1493 c 2
 1067 1493 l 2
 1098 1493 1122 1471 1122 1442 c 0
 1122 1434 1118 1421 1116 1417 c 2
 782 868 l 1
 981 868 l 1
 995 893 1024 911 1061 911 c 0
 1122 911 1153 862 1153 819 c 0
 1153 778 1120 727 1059 727 c 0
 1024 727 999 743 985 766 c 1
 784 766 l 1
 1096 231 l 2
 1098 227 1102 215 1102 207 c 0
 1102 178 1075 156 1044 156 c 2
 313 156 l 2
 305 156 295 158 287 162 c 0
 269 172 258 190 258 208 c 0
 258 216 260 223 264 231 c 2
 590 764 l 1
 375 764 l 1xdc
 361 741 334 723 297 723 c 0xec
686 713 m 1
 410 258 l 1
 952 258 l 1
 686 713 l 1
688 928 m 1
 971 1391 l 1
 420 1391 l 1
 688 928 l 1
680 -51 m 0
 619 -51 588 -2 588 41 c 0
 588 82 621 133 682 133 c 0
 743 133 774 84 774 41 c 0
 774 0 741 -51 680 -51 c 0
EndSplineSet
EndChar
StartChar: uniE09A
Encoding: 57498 57498 86
Width: 663
VWidth: 0
Flags: HW
LayerCount: 2
Fore
SplineSet
145 353 m 0
 115 353 100 377 100 398 c 0
 100 418 116 443 146 443 c 0
 164 443 176 434 183 423 c 1
 291 423 l 1
 135 692 l 1
 183 716 l 1
 336 453 l 1
 497 716 l 1
 545 692 l 1
 382 424 l 1
 479 424 l 1
 486 436 500 445 518 445 c 0
 548 445 563 421 563 400 c 0
 563 380 547 355 517 355 c 0
 500 355 488 363 481 374 c 1
 383 374 l 1
 535 113 l 2
 536 111 538 105 538 101 c 0
 538 87 525 76 510 76 c 2
 153 76 l 2
 149 76 144 77 140 79 c 0
 130.996 83.8481 125.83 92.5335 125.83 101.402 c 0
 125.83 105.338 126.848 109.311 129 113 c 2
 288 373 l 1
 183 373 l 1
 176 362 163 353 145 353 c 0
335 348 m 1
 200 126 l 1
 465 126 l 1
 335 348 l 1
EndSplineSet
EndChar
StartChar: uniE09B
Encoding: 57499 57499 87
Width: 663
VWidth: 0
Flags: HW
LayerCount: 2
Back
SplineSet
570 400 m 29
 126.663 400.662 l 29
533.894 703.827 m 13
 166.167 100.915 l 29
 523.346 100.907 l 13
 172.146 703.833 l 21
EndSplineSet
Fore
SplineSet
348 348 m 1
 213 126 l 1
 478 126 l 1
 348 348 l 1
570 425 m 1
 570 375 l 1
 395 375 l 1
 548 113 l 2
 549 111 551 105 551 101 c 0
 551 87 538 76 523 76 c 2
 166 76 l 2
 162 76 157 77 153 79 c 0
 143.996 83.8481 138.83 92.5335 138.83 101.402 c 0
 138.83 105.338 139.848 109.311 142 113 c 2
 302 375 l 1
 127 376 l 1
 127 426 l 1
 303 425 l 1
 148 692 l 1
 196 716 l 1
 349 453 l 1
 510 716 l 1
 558 692 l 1
 395 425 l 1
 570 425 l 1
EndSplineSet
EndChar
StartChar: uniE09C
Encoding: 57500 57500 88
Width: 663
VWidth: 0
Flags: HW
LayerCount: 2
Back
SplineSet
172.146 702.833 m 25
 533.894 703.827 l 9
 166.167 100.915 l 25
 523.346 100.907 l 9
 172.146 702.833 l 25
570 400 m 25
 126.663 400.662 l 25
EndSplineSet
Fore
SplineSet
570 425 m 1
 570 375 l 1
 394 375 l 1
 548 113 l 2
 549 111 551 105 551 101 c 0
 551 87 538 76 523 76 c 2
 166 76 l 2
 162 76 157 77 153 79 c 0
 143.996 83.8481 138.83 92.5335 138.83 101.402 c 0
 138.83 105.338 139.848 109.311 142 113 c 2
 302 375 l 1
 127 376 l 1
 127 426 l 1
 303 425 l 1
 148 691 l 2
 145.848 694.689 144.83 698.756 144.83 702.794 c 0
 144.83 711.892 149.996 720.845 159 725 c 0
 163 727 171 728 172 728 c 2
 534 729 l 2
 549 729 561 718 561 704 c 0
 561 700 559 694 558 692 c 2
 395 425 l 1
 570 425 l 1
348 348 m 1
 213 126 l 1
 478 126 l 1
 348 348 l 1
349 453 m 1
 487 679 l 1
 218 678 l 1
 349 453 l 1
EndSplineSet
EndChar
StartChar: uniE09D
Encoding: 57501 57501 89
Width: 663
VWidth: 0
Flags: HW
LayerCount: 2
Back
SplineSet
294 227 m 0
 303.886 226.97 312.027 235.857 312.174 246.842 c 0
 312.32 257.824 304.416 266.765 294.531 266.796 c 0
 284.646 266.827 276.504 257.937 276.357 246.953 c 0
 276.211 235.97 284.115 227.031 294 227 c 0
570 400 m 25
 126.663 400.662 l 25
533.894 703.827 m 9
 166.167 100.915 l 25
 523.346 100.907 l 9
 172.146 703.833 l 17
396.826 229.158 m 0
 406.712 229.128 414.854 238.016 415 249 c 0
 415.146 259.982 407.242 268.923 397.357 268.954 c 0
 387.472 268.985 379.33 260.095 379.184 249.111 c 0
 379.037 238.128 386.941 229.189 396.826 229.158 c 0
EndSplineSet
Fore
SplineSet
397 204 m 0
 367 204 352 228 352 249 c 0
 352 265 362 284 381 291 c 1
 348 348 l 1
 312 289 l 1
 330 282 340 263 340 247 c 0
 340 227 324 202 294 202 c 0
 282 202 272 206 265 212 c 1
 213 126 l 1
 478 126 l 1
 426 214 l 1
 419 208 409 204 397 204 c 0
570 425 m 1
 570 375 l 1
 395 375 l 1
 548 113 l 2
 549 111 551 105 551 101 c 0
 551 87 538 76 523 76 c 2
 166 76 l 2
 162 76 157 77 153 79 c 0
 143.996 83.8481 138.83 92.5335 138.83 101.402 c 0
 138.83 105.338 139.848 109.311 142 113 c 2
 302 375 l 1
 127 376 l 1
 127 426 l 1
 303 425 l 1
 148 692 l 1
 196 716 l 1
 349 453 l 1
 510 716 l 1
 558 692 l 1
 395 425 l 1
 570 425 l 1
EndSplineSet
EndChar
StartChar: uniE09E
Encoding: 57502 57502 90
Width: 663
VWidth: 0
Flags: HW
LayerCount: 2
Back
SplineSet
311 404 m 1
 484.346 100.907 l 1
 127.167 100.915 l 17
 311 404 l 1
309.837 395 m 5
 494.894 703.827 l 1
 133.146 702.833 l 17
 309.837 395 l 5
EndSplineSet
Fore
SplineSet
310 448 m 1
 449 679 l 1
 178 678 l 1
 310 448 l 1
310 351 m 1
 174 126 l 1
 439 126 l 1
 310 351 l 1
277 399 m 1
 109 691 l 2
 107 694 106 699 106 703 c 0
 106 717 118 728 133 728 c 2
 495 729 l 2
 498 729 504 728 508 726 c 0
 517.004 721.152 522.17 712.466 522.17 703.598 c 0
 522.17 699.662 521.152 695.689 519 692 c 2
 344 400 l 1
 509 112 l 2
 511.019 108.539 511.957 104.828 511.957 101.156 c 0
 511.957 92.0959 506.25 83.2694 497 79 c 0
 493 77 485 76 484 76 c 2
 127 76 l 2
 112 76 100 87 100 101 c 0
 100 105 102 111 103 113 c 2
 277 399 l 1
EndSplineSet
EndChar
StartChar: uniE09F
Encoding: 57503 57503 91
Width: 663
VWidth: 0
Flags: HW
LayerCount: 2
Back
SplineSet
570 573 m 17
 422.221 572.838 274.442 573.459 126.663 573.662 c 9
570 400 m 17
 422.221 399.838 274.442 400.459 126.663 400.662 c 9
523.346 100.907 m 1
 352.334 402.095 l 1
 166.167 100.915 l 1
EndSplineSet
Fore
SplineSet
548 112 m 1
 499 89 l 1
 351 349 l 1
 190 89 l 1
 142 113 l 1
 304 375 l 1
 245 375 186 376 127 376 c 1
 127 426 l 1
 199 426 270 425 342 425 c 1
 349 428 356 427 363 425 c 1
 432 425 501 425 570 425 c 1
 570 375 l 1
 513 375 456 375 399 375 c 1
 548 112 l 1
570 598 m 1
 570 548 l 1
 422 548 275 549 127 549 c 1
 127 599 l 1
 275 599 422 598 570 598 c 1
EndSplineSet
EndChar
StartChar: uniE0A0
Encoding: 57504 57504 32
Width: 728
VWidth: 0
Flags: WO
HStem: 75 50<275.533 449.711> 374 50<231.648 493.587>
VStem: 219.991 55.542<125 319.614> 449.711 55.542<125 319.614>
LayerCount: 2
Back
SplineSet
600.895 399 m 29
 125.105 399 l 29
362.195 827 m 29
 125.105 399 l 21
 263 372 251.275 274.72 247.865 100 c 5
 478.135 100 l 5
 474.725 274.72 463 372 600.895 399 c 13
 362.195 827 l 29
EndSplineSet
Fore
SplineSet
337.256 838.244 m 2
 339.699 842.655 344.146 846.885 349.382 849.298 c 0
 362.741 855.456 379.571 850.45 386.345 838.305 c 2
 625.044 410.305 l 2
 625.385 409.693 626.928 406.258 627.4 404.264 c 0
 630.554 390.952 620.949 377.428 606.307 374.561 c 0
 492.905 352.358 501.699 282.62 505.253 100.443 c 0
 505.478 88.8945 494.238 75 477.757 75 c 2
 247.487 75 l 2
 234.781 75 219.699 85.4629 219.991 100.443 c 0
 223.549 282.62 232.338 352.357 118.938 374.561 c 0
 118.365 374.673 114.33 375.77 112.358 376.672 c 0
 98.9805 382.796 93.4287 398.082 100.166 410.244 c 2
 337.256 838.244 l 2
231.648 374 m 1
 283.27 319.506 277.972 230.752 275.533 125 c 1
 449.711 125 l 1
 447.238 232.223 442.674 320.083 493.587 374 c 1
 231.648 374 l 1
169.382 424 m 1
 555.741 424 l 1
 361.9 771.566 l 1
 169.382 424 l 1
EndSplineSet
Validated: 524321
EndChar
StartChar: uniE0A1
Encoding: 57505 57505 159
Width: 1495
VWidth: 0
Flags: HW
HStem: 154 102<451 1044> 766 102<451 683 816 1044>
VStem: 340 111<256 766> 1044 115<256 766>
LayerCount: 3
Back
SplineSet
688.128 823.296 m 0
 688.128 854.016 714.752 880.64 749.568 880.64 c 0
 784.384 880.64 811.008 854.016 811.008 823.296 c 0
 811.008 792.576 784.384 765.952 749.568 765.952 c 0
 714.752 765.952 688.128 792.576 688.128 823.296 c 0
1234.94 817.152 m 25
 260.096 817.152 l 25
745.472 1693.7 m 25
 260.096 817.152 l 17
 393.216 819.2 l 1
 395.264 204.8 l 1
 1101.82 204.8 l 1
 1101.82 819.2 l 1
 1234.94 817.152 l 9
 745.472 1693.7 l 25
EndSplineSet
Fore
SplineSet
745 1581 m 1
 352 870 l 1
 393 870 l 2
 399 870 404 870 408 868 c 2
 643 868 l 1
 661 905 701 932 750 932 c 0
 799 932 838 905 856 868 c 1
 1087 868 l 2
 1091 870 1098 870 1102 870 c 2
 1143 870 l 1
 745 1581 l 1
694 1716 m 2
 698 1724 711 1735 721 1739 c 0
 729 1743 737 1745 745 1745 c 0
 765 1745 787 1734 797 1716 c 2
 1286 840 l 2
 1288 836 1290 825 1290 817 c 0
 1290 788 1266 766 1235 766 c 2
 1159 766 l 1
 1159 205 l 2
 1159 176 1133 154 1102 154 c 2
 395 154 l 2
 366 154 340 176 340 205 c 2
 338 766 l 1
 260 766 l 2
 252 766 244 768 236 772 c 0
 218 780 203 801 203 819 c 0
 203 825 205 834 209 840 c 2
 694 1716 l 2
451 766 m 1
 451 256 l 1
 1044 256 l 1
 1044 766 l 1
 850 766 l 1
 830 735 793 715 750 715 c 0
 707 715 669 735 649 766 c 1
 451 766 l 1
EndSplineSet
EndChar
StartChar: uniE0A2
Encoding: 57506 57506 161
Width: 659
VWidth: 0
Flags: W
HStem: 75 50<155 180 474 504> 375 50<236 420>
VStem: 100 55<125 466> 180 56<125 375> 420 54<125 375> 504 56<125 468>
LayerCount: 3
Back
SplineSet
332 703 m 5
 127 475 l 4
 128 100 l 13
 208 100 l 21
 208 400 l 4
 447 400 l 13
 447 100 l 29
 532 100 l 21
 531 477 l 4
 332 703 l 5
EndSplineSet
Fore
SplineSet
311 719 m 2
 311 719 314 722 315 723 c 0
 320 727 326 728 332 728 c 0
 340 728 348 725 353 719 c 0
 552 493 l 0
 556 489 558 483 558 477 c 0
 560 100 l 0
 560 89 549 75 532 75 c 0
 447 75 l 0
 432 75 420 86 420 100 c 0
 420 375 l 1
 236 375 l 1
 236 100 l 0
 236 86 223 75 208 75 c 0
 128 75 l 0
 114 75 100 86 100 100 c 0
 100 475 l 0
 100 480 102 487 106 491 c 0
 311 719 l 2
332 663 m 1
 155 466 l 1
 155 125 l 1
 180 125 l 1
 180 400 l 0
 180 414 193 425 208 425 c 0
 447 425 l 0
 462 425 474 414 474 400 c 0
 474 125 l 1
 504 125 l 1
 504 468 l 1
 332 663 l 1
EndSplineSet
EndChar
StartChar: uniE0A8
Encoding: 57512 57512 32
Width: 575
VWidth: 0
Flags: W
HStem: 375 50<172 404>
LayerCount: 3
Back
SplineSet
320 400 m 25
 0 400 l 25
 160 700 l 25
 320 400 l 25
 160 100 l 25
 0 400 l 25
EndSplineSet
Fore
SplineSet
102 389 m 1
 100 393 100 396 100 400 c 0
 100 404 102 408 103 411 c 2
 263 711 l 2
 268 720 278 725 288 725 c 0
 299 725 309 718 313 711 c 2
 473 411 l 2
 475 408 475 404 475 400 c 0
 475 396 475 392 473 389 c 2
 313 89 l 2
 308 80 298 75 288 75 c 0
 277 75 267 82 263 89 c 2
 102 389 l 1
404 375 m 1
 172 375 l 1
 288 157 l 1
 404 375 l 1
404 425 m 1
 288 643 l 1
 172 425 l 1
 404 425 l 1
EndSplineSet
Validated: 1
EndChar
StartChar: uniE0AB
Encoding: 57515 57515 354
Width: 1415
VWidth: -205
Flags: HW
LayerCount: 3
Back
SplineSet
1153 411.4 m 29
 805 411.4 257 411.4 260 411.4 c 4
262 1025.4 m 29
 262 -0.599609 l 29
 1152 1.40039 l 29
 1153 1025.4 l 29
950 1025.4 m 29
 950 411.4 l 29
735 1025.4 m 29
 735 411.4 l 29
493 1025.4 m 29
 493 411.4 l 29
1153 411.4 m 29
EndSplineSet
Fore
SplineSet
438 1025 m 1
 548 1025 l 1
 548 461 l 1
 680 461 l 1
 680 1025 l 1
 790 1025 l 1
 790 461 l 1
 895 461 l 1
 895 1025 l 1
 1005 1025 l 1
 1005 461 l 1
 1097.42 461 l 1
 1098 1025 l 1
 1208 1025 l 1
 1207 1 l 2
 1207 -24 1183 -49 1152 -49 c 2
 262 -51 l 2
 238 -51 207 -31 207 -1 c 2
 207 1025 l 1
 317 1025 l 1
 317 461 l 1
 438 461 l 1
 438 1025 l 1
317 361 m 1
 317 50 l 1
 1097 51 l 1
 1097.32 361 l 1
 317 361 l 1
EndSplineSet
EndChar
StartChar: uniE0AC
Encoding: 57516 57516 322
Width: 1415
VWidth: -205
Flags: HW
LayerCount: 3
Back
SplineSet
1153 614 m 29
 805 614 257 614 260 614 c 4
262 0 m 29
 262 1026 l 29
 1152 1024 l 29
 1153 0 l 29
950 0 m 29
 950 614 l 29
735 0 m 29
 735 614 l 29
493 0 m 29
 493 614 l 29
1153 614 m 29
EndSplineSet
Fore
SplineSet
548 0 m 1
 438 0 l 1
 438 564 l 1
 317 564 l 1
 317 0 l 1
 207 0 l 1
 207 1026 l 2
 207 1056 238 1076 262 1076 c 2
 1152 1074 l 2
 1183 1074 1207 1049 1207 1024 c 2
 1208 0 l 1
 1098 -0 l 1
 1097 564 l 1
 1005 564 l 1
 1005 0 l 1
 895 0 l 1
 895 564 l 1
 790 564 l 1
 790 0 l 1
 680 0 l 1
 680 564 l 1
 548 564 l 1
 548 0 l 1
1097 664 m 1
 1097 974 l 1
 317 976 l 1
 317 664 l 1
 1097 664 l 1
EndSplineSet
EndChar
StartChar: uniE0AD
Encoding: 57517 57517 332
Width: 1638
VWidth: -205
Flags: HW
LayerCount: 3
Back
SplineSet
1376 614 m 21
 1376 614 257 614 260 614 c 4
262 0 m 29
 262 1237 l 29
 1376 1235 l 29
 1376 0 l 29
831 0 m 29
 831 1235 l 29
1376 614 m 29
EndSplineSet
Fore
SplineSet
886 0 m 1
 776 0 l 1
 776 564 l 1
 317 564 l 1
 317 0 l 1
 207 0 l 1
 207 1237 l 2
 207 1267 238 1287 262 1287 c 2
 1376 1285 l 2
 1407 1285 1431 1260 1431 1235 c 2
 1431 0 l 1
 1321 0 l 1
 1321 564 l 1
 886 564 l 1
 886 0 l 1
776 1186 m 1
 317 1187 l 1
 317 664 l 1
 776 664 l 1
 776 1186 l 1
886 1186 m 1
 886 664 l 1
 1321 664 l 1
 1321 1185 l 1
 886 1186 l 1
EndSplineSet
EndChar
StartChar: uniE0AE
Encoding: 57518 57518 393
Width: 1411
VWidth: 0
Flags: HW
LayerCount: 3
Back
SplineSet
1151 614 m 29
 803 614 255 614 258 614 c 1028
260 0 m 29
 260 1026 l 29
 1150 1024 l 29
 1151 0 l 1053
861 0 m 29
 861 614 l 1053
548 0 m 29
 548 614 l 1053
1151 614 m 1053
EndSplineSet
Fore
SplineSet
1151 614 m 1025
548 0 m 1,1,-1
 493 0 l 1,2,-1
 493 564 l 1,3,-1
 315 564 l 1,4,-1
 315 0 l 1,5,-1
 260 0 l 1,6,-1
 205 0 l 1,7,-1
 205 1026 l 2,8,9
 205 1056.22460938 236.278320312 1076.05273438 260.135742188 1075.99902344 c 2,10,-1
 1150.13574219 1074 l 2,11,12
 1181.44824219 1073.9296875 1204.97558594 1048.78515625 1205 1024.04492188 c 2,13,-1
 1206 0.0439453125 l 1,14,-1
 1151 0 l 1,15,-1
 1096 -0.0439453125 l 1,16,-1
 1095.44921875 564 l 1,17,-1
 916 564 l 1,18,-1
 916 0 l 1,19,-1
 861 0 l 1,20,-1
 806 0 l 1,21,-1
 806 564 l 1,22,-1
 603 564 l 1,23,-1
 603 0 l 1,24,-1
 548 0 l 1,1,-1
1095.3515625 664 m 1,25,-1
 1095.04882812 974.124023438 l 1,26,-1
 315 975.875976562 l 1,27,-1
 315 664 l 1,28,-1
 1095.3515625 664 l 1,25,-1
EndSplineSet
EndChar
StartChar: uniE0B0
Encoding: 57520 57520 34
Width: 745
VWidth: 0
Flags: W
HStem: 100 43<126.509 178.494 566.508 618.495> 375 50<149.731 593.5> 581.938 50.0625<179 565.62>
VStem: 124 55<100 375 425 581.938> 540 105<62.7633 126.556> 565.62 27.8799<375 425>
LayerCount: 3
Back
SplineSet
568 99 m 4
 568 110.04 579.2 119 593 119 c 4
 606.8 119 618 110.04 618 99 c 4
 618 87.96 606.8 79 593 79 c 4
 579.2 79 568 87.96 568 99 c 4
128 98 m 4
 128 109.04 139.2 118 153 118 c 4
 166.8 118 178 109.04 178 98 c 4
 178 86.96 166.8 78 153 78 c 4
 139.2 78 128 86.96 128 98 c 4
594 400 m 29
 421.142 400 149.545 400 150.772 400 c 4
152 100 m 29
 152 603 l 29
 593.612 602 l 29
 593.771 100 l 29
594 400 m 29
EndSplineSet
Fore
SplineSet
540 99 m 0xf8
 540 126.558 566.508 144 592.5 144 c 0
 618.495 144 645 126.556 645 99 c 0
 645 71.4424 618.491 54 592.5 54 c 0
 566.506 54 540 71.4434 540 99 c 0xf8
100 98 m 0
 100 125.558 126.509 143 152.5 143 c 0
 178.494 143 205 125.557 205 98 c 0
 205 70.4424 178.492 53 152.5 53 c 0
 126.505 53 100 70.4443 100 98 c 0
593.5 425 m 1xf4
 593.5 375 l 1
 150.269 375 l 0
 149.269 375 149.272 425 150.272 425 c 1
 150.272 375 l 1
 149.272 375 149.269 425 150.269 425 c 0
 593.5 425 l 1xf4
179 100 m 1
 124 100 l 1
 124 607 l 0
 124 622.112 139.639 632.027 151.568 632 c 0
 593.181 631 l 0
 608.831 630.964 620.608 618.403 620.612 606.007 c 0
 620.771 100.007 l 1
 565.771 99.9932 l 1
 565.62 581.062 l 1
 179 581.938 l 1
 179 100 l 1
593.5 400 m 1
EndSplineSet
EndChar
StartChar: uniE0B1
Encoding: 57521 57521 49
Width: 744
VWidth: 0
Flags: W
HStem: 533 50<180 566>
VStem: 100 104<42.6264 115.606> 124 56<91.8369 533> 566 55<98.4043 532>
LayerCount: 2
Back
SplineSet
567 80 m 4
 567 91.04 578.2 100 592 100 c 4
 605.8 100 617 91.04 617 80 c 4
 617 68.96 605.8 60 592 60 c 4
 578.2 60 567 68.96 567 80 c 4
127 79 m 4
 127 90.04 138.2 99 152 99 c 4
 165.8 99 177 90.04 177 79 c 4
 177 67.96 165.8 59 152 59 c 4
 138.2 59 127 67.96 127 79 c 4
594 400 m 29
 421.142 400 149.545 400 150.772 400 c 4
152 100 m 29
 152 558 l 29
 593.612 557 l 29
 593.771 100 l 29
594 400 m 29
EndSplineSet
Fore
SplineSet
180 117 m 1xb0
 194 110 204 96 204 79 c 0
 204 51 178 34 152 34 c 0
 126 34 100 51 100 79 c 0xd0
 100 96 110 110 124 117 c 1
 124 558 l 2
 124 573 140 583 152 583 c 2
 594 582 l 2
 610 582 621 569 621 557 c 2
 621 117 l 1
 634 109 644 97 644 80 c 0
 644 52 618 35 592 35 c 0
 566 35 540 52 540 80 c 0
 540 98 551 112 566 119 c 1
 566 532 l 1
 180 533 l 1
 180 117 l 1xb0
EndSplineSet
Validated: 1
EndChar
StartChar: uniE0B2
Encoding: 57522 57522 138
Width: 1427
VWidth: 0
Flags: HW
HStem: 768 102<319 1110> 1190 102<319 1110>
VStem: 205 115<205 768 870 1190> 1110 115<205 768 870 1188>
LayerCount: 3
Back
SplineSet
1167.36 819.2 m 29
 813.056 819.2 258.048 819.2 260.096 819.2 c 4
262.144 204.8 m 29
 262.144 1241.09 l 29
 1167.36 1239.04 l 29
 1167.36 204.8 l 29
1167.36 819.2 m 29
EndSplineSet
Fore
SplineSet
319 205 m 1
 205 205 l 1
 205 1241 l 2
 205 1272 237 1292 262 1292 c 2
 1167 1290 l 2
 1200 1290 1225 1264 1225 1239 c 2
 1225 205 l 1
 1110 205 l 1
 1110 768 l 1
 319 768 l 1
 319 205 l 1
1110 870 m 1
 1110 1188 l 1
 319 1190 l 1
 319 870 l 1
 1110 870 l 1
EndSplineSet
EndChar
StartChar: uniE0B3
Encoding: 57523 57523 142
Width: 697
VWidth: 0
Flags: W
HStem: 581 50<154 542>
VStem: 100 54<100 581> 542 54<100 580>
LayerCount: 2
Back
SplineSet
127 100 m 29
 127 606 l 29
 569 605 l 29
 569 100 l 29
EndSplineSet
Fore
SplineSet
154 100 m 1
 100 100 l 1
 100 606 l 0
 100 621 115 631 127 631 c 0
 569 630 l 0
 585 630 596 617 596 605 c 0
 596 100 l 1
 542 100 l 1
 542 580 l 1
 154 581 l 1
 154 100 l 1
EndSplineSet
EndChar
StartChar: uniE0B4
Encoding: 57524 57524 143
Width: 1476
VWidth: 0
Flags: HW
HStem: 766 102<369 1159> 1192 102<369 1159>
VStem: 254 115<238 768 870 1192> 1159 113<868 1190>
LayerCount: 3
Back
SplineSet
262.144 200.704 m 4
 262.144 223.313 285.082 241.664 313.344 241.664 c 4
 341.606 241.664 364.544 223.313 364.544 200.704 c 4
 364.544 178.094 341.606 159.744 313.344 159.744 c 4
 285.082 159.744 262.144 178.094 262.144 200.704 c 4
311.296 204.8 m 29
 311.296 1243.14 l 29
 1215.72 1241.09 l 21
 1215.91 817.093 l 5
 1216.51 819.2 306.269 819.204 308.781 819.2 c 5
1216.51 819.2 m 29
EndSplineSet
Fore
SplineSet
369 870 m 1
 537 870 993 870 1159 868 c 1
 1159 1190 l 1
 369 1192 l 1
 369 870 l 1
369 281 m 1
 400 267 422 238 422 201 c 0
 422 144 366 109 313 109 c 0
 260 109 205 144 205 201 c 0
 205 236 225 263 254 279 c 1
 254 1243 l 2
 254 1274 286 1294 311 1294 c 2
 1217 1292 l 2
 1250 1292 1272 1266 1272 1241 c 2
 1272 811 l 1
 1266 786 1242 766 1217 766 c 0
 1215 766 1212 766 1210 766 c 0
 1159 768 562 768 369 768 c 1
 369 281 l 1
EndSplineSet
EndChar
StartChar: uniE0B5
Encoding: 57525 57525 144
Width: 1525
VWidth: 0
Flags: HW
HStem: 152 102<369 1159> 567 102<369 1159>
VStem: 254 115<254 567 670 1199> 1159 113<256 567 670 1197>
LayerCount: 3
Back
SplineSet
1163.26 1234.94 m 4
 1163.26 1212.33 1186.2 1193.98 1214.46 1193.98 c 4
 1242.73 1193.98 1265.66 1212.33 1265.66 1234.94 c 4
 1265.66 1257.55 1242.73 1275.9 1214.46 1275.9 c 4
 1186.2 1275.9 1163.26 1257.55 1163.26 1234.94 c 4
262.144 1236.99 m 4
 262.144 1214.38 285.082 1196.03 313.344 1196.03 c 4
 341.606 1196.03 364.544 1214.38 364.544 1236.99 c 4
 364.544 1259.6 341.606 1277.95 313.344 1277.95 c 4
 285.082 1277.95 262.144 1259.6 262.144 1236.99 c 4
1216.51 618.496 m 21
 1216.51 618.496 306.269 618.496 308.781 618.496 c 4
311.296 1232.9 m 29
 311.296 202.752 l 29
 1215.72 204.8 l 29
 1216.04 1232.9 l 29
1216.51 618.496 m 29
EndSplineSet
Fore
SplineSet
205 1237 m 0
 205 1294 260 1329 313 1329 c 0
 366 1329 422 1294 422 1237 c 0
 422 1200 400 1171 369 1157 c 1
 369 670 l 1
 1159 670 l 1
 1159 1155 l 1
 1128 1169 1106 1198 1106 1235 c 0
 1106 1292 1161 1327 1214 1327 c 0
 1267 1327 1323 1292 1323 1235 c 0
 1323 1200 1301 1173 1272 1157 c 1
 1272 840 1272 522 1272 205 c 0
 1272 180 1250 154 1217 154 c 2
 311 152 l 2
 286 152 254 172 254 203 c 2
 254 1159 l 1
 225 1175 205 1202 205 1237 c 0
369 567 m 1
 369 254 l 1
 1159 256 l 1
 1159 567 l 1
 369 567 l 1
EndSplineSet
EndChar
StartChar: uniE0B6
Encoding: 57526 57526 142
Width: 1429
VWidth: 0
Flags: HW
HStem: 152 102<319 1110> 567 102<319 1110>
VStem: 205 115<254 567 670 1233> 1110 115<256 567 670 1233>
LayerCount: 3
Back
SplineSet
1167.36 618.496 m 21
 1167.36 618.496 258.048 618.496 260.096 618.496 c 4
262.144 1232.9 m 29
 262.144 202.752 l 29
 1167.36 204.8 l 29
 1167.36 1232.9 l 29
1167.36 618.496 m 29
EndSplineSet
Fore
SplineSet
205 1233 m 1
 319 1233 l 1
 319 670 l 1
 1110 670 l 1
 1110 1233 l 1
 1225 1233 l 1
 1225 205 l 2
 1225 180 1200 154 1167 154 c 2
 262 152 l 2
 237 152 205 172 205 203 c 2
 205 1233 l 1
319 567 m 1
 319 254 l 1
 1110 256 l 1
 1110 567 l 1
 319 567 l 1
EndSplineSet
EndChar
StartChar: uniE0B8
Encoding: 57528 57528 34
Width: 1511
VWidth: 0
Flags: HW
HStem: 0 43G<203 315 696 809 1194 1307>
VStem: 203 113<0 57 184 627 752 887 1012 1442 1567 1632> 696 113<0 305 506 1126 1325 1630> 1194 113<0 57 184 627 754 885 1010 1444 1569 1632>
LayerCount: 3
Back
SplineSet
752.55 1630.5 m 21
 752.55 0 l 13
1249.99 1633.21 m 21
 1249.99 0 l 13
260.096 1633.21 m 21
 260.096 0 l 13
260.307 1541.13 m 29
260.307 1541.13 m 29
260.771 1540.22 m 29
 260.096 912.759 l 13
 1249.99 1541.13 l 29
 1249.31 912.126 l 13
 260.771 1540.22 l 29
260.307 83.9619 m 29
260.307 83.9619 m 29
260.771 84.8623 m 29
 260.096 725.873 l 13
 1249.99 83.9619 l 29
 1249.31 726.504 l 13
 260.771 84.8623 l 29
EndSplineSet
Fore
SplineSet
852 406 m 1
 1194 184 l 1
 1194 627 l 1
 852 406 l 1
657 406 m 1
 317 627 l 1
 317 184 l 1
 657 406 l 1
655 1227 m 1
 317 1442 l 1
 317 1012 l 1
 655 1227 l 1
852 1227 m 1
 1194 1010 l 1
 1194 1444 l 1
 852 1227 l 1
203 1632 m 1
 315 1632 l 1
 315 1567 l 1
 696 1325 l 1
 696 1630 l 1
 809 1630 l 1
 809 1323 l 1
 1194 1569 l 1
 1194 1632 l 1
 1307 1632 l 1
 1307 1542 l 1
 1307 84 l 1
 1307 0 l 1
 1194 0 l 1
 1194 57 l 1
 809 307 l 1
 809 0 l 1
 696 0 l 1
 696 305 l 1
 315 57 l 1
 315 0 l 1
 203 0 l 1
 203 725 l 1
 203 913 l 1
 203 1632 l 1
315 887 m 1
 315 752 l 1
 696 506 l 1
 696 1126 l 1
 315 887 l 1
1194 885 m 1
 809 1130 l 1
 809 504 l 1
 1194 754 l 1
 1194 885 l 1
EndSplineSet
EndChar
StartChar: uniE0B9
Encoding: 57529 57529 51
Width: 738
VWidth: 0
Flags: W
HStem: 0 21G<100 154>
VStem: 100 54<0 75 138 285 348 385 448 470 533 656 719 800> 582 54<52 173 236 370.812 447 694 758 800>
LayerCount: 3
Back
SplineSet
612 747 m 25
 127.5 397 l 25
610 371 m 25
 131 704 l 25
129 519 m 25
 608 186 l 25
130 334 m 25
 609 1 l 17
 610.348 800.468 l 9
612 437 m 25
 127.5 87 l 25
127 800.468 m 17
 127 0 l 9
EndSplineSet
Fore
SplineSet
100 800 m 1
 154 800 l 1
 154 719 l 1
 345 586 l 1
 583 758 l 1
 583 801 l 1
 638 800 l 1
 636 1 l 2
 636 -3 635 -10 631 -14 c 0
 625.675 -20.5083 617.2 -23.866 608.68 -23.866 c 0
 602.801 -23.866 596.9 -22.2667 592 -19 c 2
 303 182 l 1
 154 75 l 1
 154 0 l 1
 100 0 l 1
 100 800 l 1
154 138 m 1
 258 213 l 1
 154 285 l 1
 154 138 l 1
582 447 m 1
 583 694 l 1
 391 555 l 1
 564 434 l 1
 582 447 l 1
348 214 m 1
 582 52 l 1
 582 173 l 1
 433 276 l 1
 348 214 l 1
303 245 m 1
 388 307 l 1
 215 428 l 1
 154 385 l 1
 154 348 l 1
 303 245 l 1
154 470 m 1
 154 448 l 1
 170 459 l 1
 154 470 l 1
582 236 m 1
 582 277 582 318 582 359 c 1
 576 363 571 367 565 371 c 1
 478 308 l 1
 582 236 l 1
433 339 m 1
 520 402 l 1
 346 523 l 1
 259 460 l 1
 433 339 l 1
154 533 m 1
 214 491 l 1
 301 554 l 1
 154 656 l 1
 154 533 l 1
EndSplineSet
Validated: 1
EndChar
StartChar: uniE0BA
Encoding: 57530 57530 98
Width: 807
VWidth: 0
Flags: HW
LayerCount: 2
Back
SplineSet
610.687 706.302 m 25
 368 400 l 25
 127.67 705.993 l 9
 610.687 706.302 l 25
367.456 796.145 m 17
 367.456 0 l 9
610.348 797.468 m 17
 610.348 0 l 9
127 797.468 m 17
 127 0 l 9
127.103 702.503 m 25
127.103 702.503 m 25
610.017 365.738 m 25
 367.33 59.4365 l 25
 127 365.43 l 9
 610.017 365.738 l 25
EndSplineSet
Fore
SplineSet
100 797 m 1
 154 797 l 1
 154 731 l 1
 340 731 l 1
 340 796 l 1
 395 796 l 1
 395 731 l 1
 583 731 l 1
 583 797 l 1
 638 797 l 1
 638 710 l 2
 638 709 638 707 638 706 c 0
 638 705 638 703 638 702 c 2
 638 0 l 1
 583 0 l 1
 583 289 l 1
 395 52 l 1
 395 0 l 1
 340 0 l 1
 340 51 l 1
 154 287 l 1
 154 0 l 1
 100 0 l 1
 100 797 l 1
154 390 m 1
 340 391 l 1
 340 393 l 1
 154 629 l 1
 154 390 l 1
583 391 m 1
 583 628 l 1
 395 391 l 1
 395 391 l 1
 583 391 l 1
340 341 m 1
 287 341 233 340 180 340 c 1
 340 137 l 1
 340 341 l 1
395 341 m 1
 395 137 l 1
 556 341 l 1
 395 341 l 1
395 477 m 1
 557 681 l 1
 395 681 l 1
 395 477 l 1
340 479 m 1
 340 681 l 1
 287 681 234 681 181 681 c 1
 340 479 l 1
EndSplineSet
EndChar
StartChar: uniE0BB
Encoding: 57531 57531 79
Width: 1695
VWidth: -205
Flags: HW
HStem: -205 43G<460 573 1120 1234>
VStem: 453 113<-205 88 350 563 827 1052 1315 1427> 1124 115<-205 90 352 565 827 1047> 1135 115<352 565 827 1052 1315 1427>
LayerCount: 3
Back
SplineSet
249.651 1433.4 m 29
 847.913 847.67 l 29
 1448.92 1433.4 l 1053
246.907 479.032 m 29
 845.169 -106.696 l 29
 1446.17 479.032 l 1053
248.279 950.07 m 29
 846.541 364.344 l 29
 1447.55 950.07 l 1053
1196.14 1428.21 m 21
 1175.66 -205 l 1037
502.19 1428.21 m 21
 516.526 -205 l 1037
EndSplineSet
Fore
SplineSet
446 1427 m 1xe0
 559 1429 l 1
 561 1204 l 1
 848 923 l 1
 1137 1204 l 1
 1141 1429 l 1
 1253 1427 l 1
 1251 1315 l 1
 1407 1468 l 1
 1491 1399 l 1
 1249 1163 l 1xd0
 1245 827 l 1
 1407 985 l 1
 1489 915 l 1
 1243 676 l 1
 1239 352 l 1
 1405 514 l 1
 1487 444 l 1
 1237 201 l 1
 1235 66 1235 -70 1233 -205 c 1
 1120 -205 l 1
 1122 90 l 1
 887 -142 l 2
 878 -151 861 -157 844 -157 c 0
 830 -157 816 -153 805 -142 c 2
 569 88 l 1
 573 -205 l 1
 461 -205 l 1
 457 198 l 1
 205 444 l 1
 289 514 l 1
 455 350 l 1
 453 676 l 1
 207 915 l 1
 289 985 l 1
 451 827 l 1
 451 940 449 1050 449 1163 c 1
 209 1399 l 1
 291 1468 l 1
 446 1315 l 1
 446 1427 l 1xe0
565 563 m 1
 569 239 l 1
 846 -31 l 1
 1124 241 l 1xe0
 1128 565 l 1
 887 330 l 2
 878 321 861 314 844 314 c 0
 830 314 816 319 805 330 c 2
 565 563 l 1
1130 717 m 1
 1132 830 1133 939 1135 1052 c 1xd0
 889 813 l 2
 880 804 863 797 846 797 c 0
 832 797 818 802 807 813 c 2
 561 1052 l 1
 561 939 565 828 565 715 c 1
 846 440 l 1
 1130 717 l 1
EndSplineSet
EndChar
StartChar: uniE0BC
Encoding: 57532 57532 100
Width: 484
VWidth: 0
Flags: W
VStem: 100 284
LayerCount: 2
Back
SplineSet
120 704 m 25
 364 470 l 25
120 466 m 25
 364 700 l 25
120 102 m 25
 364 330 l 25
120 334 m 25
 364 106 l 25
EndSplineSet
Fore
SplineSet
100 317 m 1
 140 351 l 1
 244 254 l 1
 344 347 l 1
 384 313 l 1
 283 218 l 1
 384 123 l 1
 344 89 l 1
 244 182 l 1
 140 85 l 1
 100 119 l 1
 206 218 l 1
 100 317 l 1
140 449 m 1
 100 483 l 1
 206 585 l 1
 100 687 l 1
 140 721 l 1
 244 621 l 1
 344 717 l 1
 384 683 l 1
 282 585 l 1
 384 487 l 1
 344 453 l 1
 244 549 l 1
 140 449 l 1
EndSplineSet
Validated: 1
EndChar
StartChar: uniE0BD
Encoding: 57533 57533 101
Width: 1000
VWidth: 0
Flags: H
LayerCount: 2
Back
SplineSet
684 800 m 25
 294 800 l 25
 685 450 l 25
 293 450 l 25
 684 800 l 25
684 0 m 25
 294 0 l 25
 685 350 l 25
 293 350 l 25
 684 0 l 25
EndSplineSet
Fore
SplineSet
489 210 m 1
 618 325 l 1
 360 325 l 1
 489 210 l 1
489 139 m 1
 361 25 l 1
 617 25 l 1
 489 139 l 1
528 175 m 1
 703 18 l 2
 709 13 712 6 712 -1 c 0
 712 -7 709 -13 704 -18 c 0
 699 -23 688 -25 684 -25 c 2
 294 -25 l 2
 279 -25 266 -14 266 0 c 0
 266 7 272 15 275 18 c 2
 450 175 l 1
 274 332 l 2
 269 336 266 343 266 350 c 0
 266 364 278 375 293 375 c 2
 685 375 l 2
 692 375 700 373 705 368 c 0
 710 363 713 357 713 351 c 0
 713 344 710 337 704 332 c 2
 528 175 l 1
489 661 m 1
 617 775 l 1
 361 775 l 1
 489 661 l 1
489 590 m 1
 360 475 l 1
 618 475 l 1
 489 590 l 1
528 625 m 1
 704 468 l 2
 710 463 713 456 713 449 c 0
 713 443 710 437 705 432 c 0
 700 427 689 425 685 425 c 2
 293 425 l 2
 278 425 266 436 266 450 c 0
 266 457 271 465 274 468 c 2
 450 625 l 1
 275 782 l 2
 270 786 266 793 266 800 c 0
 266 814 279 825 294 825 c 2
 684 825 l 2
 691 825 699 823 704 818 c 0
 709 813 712 807 712 801 c 0
 712 794 709 787 703 782 c 2
 528 625 l 1
EndSplineSet
EndChar
StartChar: uniE0BE
Encoding: 57534 57534 101
Width: 1429
VWidth: 0
Flags: HW
VStem: 352 106<897 1175> 971 106<692 1054>
LayerCount: 3
Back
SplineSet
333.824 600.064 m 29
 958.464 231.424 l 29
782.336 1439.74 m 29
 339.968 1251.33 l 29
 1052.67 1138.69 l 29
 401.408 821.248 l 29
 1103.87 573.44 l 29
 468.992 237.568 l 29
1169.41 1439.74 m 29
1169.41 1439.74 m 21
 982.823 1033.35 968.352 849.44 1169.41 432.128 c 13
 714.752 0 l 29
 260.096 432.128 l 21
 461.152 849.44 446.681 1033.35 260.096 1439.74 c 13
EndSplineSet
Fore
SplineSet
1118 1460 m 1
 1221 1419 l 1
 1127 1214 1077 1075 1077 932 c 0
 1077 795 1125 654 1221 453 c 0
 1225 447 1225 438 1225 432 c 0
 1225 420 1220 407 1210 397 c 2
 756 -35 l 2
 746 -45 731 -51 717 -51 c 0
 701 -51 684 -45 674 -35 c 2
 219 397 l 2
 209 405 205 420 205 432 c 0
 205 440 207 447 209 453 c 0
 305 654 352 795 352 932 c 0
 352 1075 303 1214 209 1419 c 1
 311 1460 l 1
 336 1409 357 1360 375 1313 c 1
 762 1477 l 1
 803 1403 l 1
 489 1270 l 1
 1010 1188 l 1
 1035 1270 1071 1360 1118 1460 c 1
416 1198 m 1
 445 1104 459 1018 459 930 c 0
 459 920 459 907 459 897 c 1
 915 1118 l 1
 416 1198 l 1
442 764 m 1
 432 715 415 665 397 612 c 1
 723 420 l 1
 999 565 l 1
 442 764 l 1
483 293 m 1
 635 373 l 1
 367 532 l 1
 355 503 340 473 326 442 c 1
 483 293 l 1
549 231 m 1
 715 74 l 1
 879 229 l 1
 721 324 l 1
 549 231 l 1
1073 510 m 1
 809 369 l 1
 942 291 l 1
 1104 442 l 1
 1094 465 1083 487 1073 510 c 1
1020 647 m 1
 987 749 971 840 971 930 c 0
 971 973 973 1014 981 1057 c 1
 510 827 l 1
 1020 647 l 1
EndSplineSet
EndChar
StartChar: uniE0BF
Encoding: 57535 57535 103
Width: 663
VWidth: 0
Flags: HW
LayerCount: 2
Back
SplineSet
410 292 m 29
 348 208 l 29
 287 292 l 29
523.346 100.907 m 29
 532 703 l 29
172 701 m 29
 168 99 l 29
172.146 702.833 m 21
 292.729 702.719 413.311 703.386 533.894 703.827 c 13
 166.167 100.915 l 29
 523.346 100.907 l 13
 172.146 702.833 l 21
527 400 m 29
 166.663 400.662 l 29
EndSplineSet
Fore
SplineSet
391.201 302.989 m 1
 428.799 281.011 l 1
 406.426 250.771 385.151 221.975 366.835 197.06 c 0
 360.131 187.94 345.95 185.299 335.691 191.258 c 0
 333.067 192.782 329.738 196.27 329.097 197.153 c 0
 268.097 281.153 l 1
 305.903 302.847 l 1
 348.132 244.697 l 1
 361.541 262.881 376.163 282.664 391.201 302.989 c 1
550.844 100.581 m 1
 495.848 101.234 l 1
 504.502 703.326 l 1
 559.498 702.673 l 1
 550.844 100.581 l 1
144.501 701.15 m 1
 199.499 700.849 l 1
 195.499 98.8496 l 1
 140.501 99.1514 l 1
 144.501 701.15 l 1
317.431 400.477 m 1
 147.853 691.118 l 0
 140.834 703.147 146.027 718.538 159.261 724.918 c 0
 163.266 726.85 170.458 727.834 172.175 727.833 c 0
 292.627 727.719 413.163 728.385 533.785 728.827 c 0
 548.764 728.882 561.335 717.545 561.396 703.928 c 0
 561.414 699.615 559.359 694.024 557.944 691.704 c 0
 379.997 399.948 l 1
 547.64 112.622 l 0
 548.801 110.632 550.846 104.967 550.846 100.906 c 0
 550.846 87.2891 538.323 75.9072 523.345 75.9072 c 0
 166.166 75.915 l 0
 162.387 75.915 156.902 77 152.832 79.0518 c 0
 139.731 85.6543 134.853 101.129 142.116 113.038 c 0
 317.431 400.477 l 1
349.249 452.646 m 1
 487.091 678.646 l 1
 398.878 678.294 308.196 677.875 217.866 677.825 c 1
 349.249 452.646 l 1
348.178 347.778 m 1
 212.858 125.914 l 1
 477.63 125.908 l 1
 348.178 347.778 l 1
527.066 420 m 1
 526.934 380 l 1
 407.026 380.315 286.831 379.167 166.349 380.664 c 1
 166.978 420.66 l 1
 286.72 419.173 406.749 420.316 527.066 420 c 1
EndSplineSet
EndChar
StartChar: uniE0C0
Encoding: 57536 57536 31
Width: 1728
VWidth: -205
Flags: HW
HStem: -205 43G<807 918>
VStem: 807 111<-205 172>
LayerCount: 3
Back
SplineSet
849.92 192.312 m 29
 849.92 -205 l 29
833.536 1429.3 m 29
247.808 806.71 m 29
 849.92 192.312 l 29
 1456.13 806.71 l 29
 833.536 1429.3 l 29
 247.808 806.71 l 29
EndSplineSet
Fore
SplineSet
336 807 m 1
 862 270 l 1
 1393 807 l 1
 848 1351 l 1
 336 807 l 1
217 772 m 2
 207 782 205 795 205 807 c 0
 205 819 209 829 217 839 c 2
 803 1462 l 2
 811 1472 830 1481 848 1481 c 0
 862 1481 875 1476 887 1464 c 2
 1509 842 l 2
 1517 834 1524 819 1524 807 c 0
 1524 795 1519 782 1509 772 c 2
 918 172 l 1
 918 -205 l 1
 807 -205 l 1
 807 172 l 1
 217 772 l 2
EndSplineSet
EndChar
StartChar: uniE0C1
Encoding: 57537 57537 41
Width: 1728
VWidth: -205
Flags: HW
LayerCount: 3
Back
SplineSet
698.368 1064.76 m 29
 1296.38 454.456 l 29
415.744 769.848 m 29
 1013.76 159.544 l 29
559.104 917.3 m 29
 1157.12 307 l 29
1009.66 1077.05 m 29
 411.648 466.744 l 29
1292.29 782.136 m 29
 694.271 171.832 l 29
1148.93 929.59 m 29
 550.912 319.288 l 29
1091.87 1500.57 m 29
 848.783 1276.01 l 29
 605.401 1500.57 l 29
846.735 1276.01 m 29
260.096 614.2 m 29
 862.208 -0.200195 l 29
 1468.42 614.2 l 29
 845.824 1236.79 l 29
 260.096 614.2 l 29
EndSplineSet
Fore
SplineSet
1180 620 m 1
 1290 510 l 1
 1393 614 l 1
 1282 725 l 1
 1180 620 l 1
848 280 m 1
 756 186 l 1
 862 78 l 1
 956 172 l 1
 848 280 l 1
991 428 m 1
 895 330 l 1
 1004 219 l 1
 1100 317 l 1
 991 428 l 1
1038 475 m 1
 1147 364 l 1
 1243 463 l 1
 1135 573 l 1
 1038 475 l 1
1135 667 m 1
 1235 772 l 1
 1137 870 l 1
 1036 768 l 1
 1135 667 l 1
801 330 m 1
 705 428 l 1
 610 334 l 1
 709 233 l 1
 801 330 l 1
944 475 m 1
 848 575 l 1
 752 475 l 1
 848 377 l 1
 944 475 l 1
991 524 m 1
 1087 620 l 1
 989 719 l 1
 895 622 l 1
 991 524 l 1
895 911 m 1
 989 815 l 1
 1090 917 l 1
 993 1014 l 1
 895 911 l 1
563 573 m 1
 469 477 l 1
 565 381 l 1
 657 475 l 1
 563 573 l 1
707 719 m 1
 608 620 l 1
 705 524 l 1
 801 622 l 1
 707 719 l 1
754 768 m 1
 848 669 l 1
 942 768 l 1
 848 864 l 1
 754 768 l 1
848 960 m 1
 946 1061 l 1
 848 1159 l 1
 752 1059 l 1
 848 960 l 1
516 620 m 1
 426 713 l 1
 336 614 l 1
 422 526 l 1
 516 620 l 1
659 768 m 1
 567 862 l 1
 471 760 l 1
 563 667 l 1
 659 768 l 1
707 815 m 1
 801 911 l 1
 707 1009 l 1
 612 911 l 1
 707 815 l 1
1081 1511 m 1
 1153 1442 l 1
 930 1229 l 1
 1509 649 l 2
 1519 639 1524 626 1524 614 c 0
 1524 602 1519 589 1509 579 c 2
 903 -35 l 2
 895 -43 878 -51 860 -51 c 0
 846 -51 831 -47 819 -35 c 2
 217 579 l 2
 209 587 203 602 203 614 c 0
 203 626 209 639 217 647 c 2
 766 1231 l 1
 539 1442 l 1
 606 1509 l 1
 836 1286 l 1
 844 1288 852 1288 860 1286 c 1
 1081 1511 l 1
EndSplineSet
EndChar
StartChar: uniE0C2
Encoding: 57538 57538 51
Width: 1728
VWidth: 0
Flags: HW
VStem: 791 113<1460 1675>
LayerCount: 3
Back
SplineSet
557.056 1132.54 m 25
 1169.41 516.096 l 25
1157.12 1132.54 m 25
 579.584 495.616 l 25
845.824 1441.79 m 25
 851.968 1771.52 l 25
 626.688 1638.4 l 25
260.096 819.2 m 25
 862.208 204.8 l 25
 1468.42 819.2 l 25
 845.824 1441.79 l 25
 260.096 819.2 l 25
EndSplineSet
Fore
SplineSet
217 784 m 2
 207 794 205 807 205 819 c 0
 205 831 209 842 217 852 c 2
 791 1460 l 1
 795 1675 l 1
 657 1595 l 1
 596 1681 l 1
 821 1815 l 2
 827 1819 842 1823 852 1823 c 0
 883 1823 907 1801 907 1772 c 2
 903 1460 l 1
 1509 854 l 2
 1517 846 1524 831 1524 819 c 0
 1524 807 1519 794 1509 784 c 2
 903 170 l 2
 895 162 878 156 860 156 c 0
 846 156 831 158 819 170 c 2
 217 784 l 2
584 565 m 1
 811 815 l 1
 563 1063 l 1
 336 819 l 1
 584 565 l 1
1090 1122 m 1
 848 1364 l 1
 625 1126 l 1
 868 881 l 1
 1090 1122 l 1
645 504 m 1
 862 283 l 1
 1100 524 l 1
 872 754 l 1
 645 504 l 1
1151 1061 m 1
 932 817 l 1
 1161 586 l 1
 1393 819 l 1
 1151 1061 l 1
EndSplineSet
EndChar
StartChar: uniE0C3
Encoding: 57539 57539 209
Width: 844
VWidth: 0
Flags: W
VStem: 394 54<618 801>
LayerCount: 3
Back
SplineSet
421 607 m 29
 421 801 l 29
413 3 m 29
127 307 m 29
 421 607 l 29
 717 307 l 29
 413 3 l 29
 127 307 l 29
EndSplineSet
Fore
SplineSet
164 307 m 1
 414 41 l 1
 680 307 l 1
 421 569 l 1
 164 307 l 1
448 617 m 1
 737 324 l 2
 742 319 744 313 744 307 c 0
 744 301 742 295 737 290 c 2
 433 -14 l 2
 428 -19 421 -21 414 -21 c 0
 406 -21 397 -18 392 -13 c 2
 106 291 l 2
 102 295 99 302 99 308 c 0
 99 314 102 320 106 324 c 2
 394 618 l 1
 394 801 l 1
 448 801 l 1
 448 617 l 1
EndSplineSet
EndChar
StartChar: uniE0C4
Encoding: 57540 57540 198
Width: 1728
VWidth: -205
Flags: HW
LayerCount: 3
Back
SplineSet
260 614 m 25
 862 0 l 25
 1468 614 l 25
 846 1237 l 25
 260 614 l 25
EndSplineSet
Fore
SplineSet
704 420 m 1
 652 460 l 1
 838 634 l 0
 851 646 874 647 888 636 c 0
 895 630 899 621 899 614 c 0
 900 196 l 1
 830 196 l 1
 829 537 l 1
 704 420 l 1
219 581 m 2
 209.75 590.25 204.99 602.14 204.99 614.093 c 0
 204.99 625.401 209.25 636.764 218 646 c 0
 804 1269 l 0
 813.093 1278.66 830.584 1286.06 848.579 1286.06 c 0
 862.248 1286.06 876.208 1281.79 887 1271 c 0
 1509 648 l 0
 1517.74 639.264 1522.51 626.832 1522.51 614.231 c 0
 1522.51 602.309 1518.24 590.237 1509 581 c 0
 903 -33 l 0
 894.543 -41.457 877.504 -48.6416 859.767 -48.6416 c 0
 846.045 -48.6416 831.905 -44.3408 821 -33 c 0
 219 581 l 2
333 615 m 1
 862 75 l 1
 1394 614 l 1
 847 1161 l 1
 333 615 l 1
EndSplineSet
Layer: 2
SplineSet
678 440 m 29
 864 614 l 29
 865 196 l 29
EndSplineSet
EndChar
StartChar: uniE0C5
Encoding: 57541 57541 209
Width: 1730
VWidth: 0
Flags: HW
LayerCount: 3
Back
SplineSet
603.943 1680 m 25
 845.729 1441.79 l 25
 1064.08 1680 l 25
1253.74 1016.36 m 25
 453 1017 l 25
613.378 -34.8682 m 25
 862.112 204.8 l 25
 1086.74 -34.8682 l 25
1239 624 m 25
 477 624 l 25
260 819.2 m 25
 862.112 204.8 l 25
 1468.32 819.2 l 25
 845.729 1441.79 l 25
 260 819.2 l 25
EndSplineSet
Fore
SplineSet
219 786 m 2
 209.75 795.25 204.99 807.404 204.99 819.614 c 0
 204.99 831.164 209.25 842.764 218 852 c 2
 772 1441 l 1
 564 1646 l 1
 577 1657 591 1669 604 1680 c 0
 617 1691 631 1703 644 1714 c 1
 844 1518 l 1
 1022 1712 l 1
 1106 1648 l 1
 919 1443 l 1
 1509 853 l 2
 1517.74 844.264 1522.51 831.832 1522.51 819.231 c 0
 1522.51 807.309 1518.24 795.237 1509 786 c 2
 935 204 l 1
 1129 -2 l 1
 1045 -67 l 1
 860 130 l 1
 653 -69 l 1
 573 -1 l 1
 788 206 l 1
 219 786 l 2
477 673 m 1
 477 674 l 1
 1239 674 l 1
 1239 662 l 1
 1394 819 l 1
 1247 966 l 1
 471 967 l 1
 333 820 l 1
 477 673 l 1
574 574 m 1
 862 280 l 1
 1153 574 l 1
 574 574 l 1
1147 1066 m 1
 847 1366 l 1
 565 1067 l 1
 1147 1066 l 1
EndSplineSet
EndChar
StartChar: uniE0C6
Encoding: 57542 57542 227
Width: 1731
VWidth: -205
Flags: HW
LayerCount: 3
Back
SplineSet
1471 1235 m 9
 1471 0 l 17
 1205 0 1010 268 1014 614 c 1
 1010 942 1227 1235 1471 1235 c 9
260 1235 m 9
 260 0 l 17
 526 0 721 268 717 614 c 1
 721 942 504 1235 260 1235 c 9
EndSplineSet
Fore
SplineSet
1416 1178.85 m 1
 1239.5 1139.44 1065.52 899.13 1069 614.014 c 1
 1065.46 307.384 1223.33 87.8877 1416 54.6494 c 1
 1416 1178.85 l 1
1526 1235 m 2
 1526 0 l 0
 1526 -27.2344 1500.96 -50 1471 -50 c 0
 1157.36 -50 955.269 258.025 958.997 613.986 c 1
 955.296 954.25 1177.71 1285 1471 1285 c 0
 1500.96 1285 1526 1262.23 1526 1235 c 2
205 1235 m 2
 205 1262.23 230.042 1285 260 1285 c 0
 553.285 1285 775.704 954.25 772.003 613.986 c 1
 775.731 258.025 573.639 -50 260 -50 c 0
 230.042 -50 205 -27.2344 205 0 c 0
 205 1235 l 2
315 1178.85 m 1
 315 54.6494 l 1
 507.666 87.8857 665.538 307.383 661.997 614.017 c 1
 665.48 899.13 491.502 1139.44 315 1178.85 c 1
EndSplineSet
EndChar
StartChar: uniE0C7
Encoding: 57543 57543 260
Width: 1609
VWidth: 0
Flags: HW
LayerCount: 3
Back
SplineSet
1404 205 m 1
 1138 205 947 467 947 819 c 1
 947 1147 1160 1440 1404 1440 c 1
205 205 m 1
 471 205 662 467 662 819 c 1
 662 1147 449 1440 205 1440 c 1
EndSplineSet
Fore
SplineSet
205 1390 m 1
 205 1490 l 1
 499 1490 717 1158 717 819 c 0
 717 457 518 155 205 155 c 1
 205 255 l 1
 424 255 607 477 607 819 c 0
 607 1136 399 1390 205 1390 c 1
1404 1490 m 1
 1404 1390 l 1
 1210 1390 1002 1136 1002 819 c 0
 1002 477 1185 255 1404 255 c 1
 1404 155 l 1
 1091 155 892 457 892 819 c 0
 892 1158 1110 1490 1404 1490 c 1
EndSplineSet
EndChar
StartChar: uniE0C8
Encoding: 57544 57544 32
Width: 978
VWidth: 0
Flags: HW
VStem: 203 113<260 1382> 662 113<564 1059>
LayerCount: 3
Back
SplineSet
260.096 1439.74 m 13
 260.096 204.8 l 21
 526.336 204.8 720.896 473.088 716.8 819.2 c 5
 720.896 1146.88 503.808 1439.74 260.096 1439.74 c 13
EndSplineSet
Fore
SplineSet
203 1440 m 2
 203 1469 229 1491 260 1491 c 0
 553 1491 774 1165 774 827 c 0
 774 825 774 823 774 819 c 1
 774 461 577 154 260 154 c 0
 229 154 203 176 203 205 c 2
 203 1440 l 2
315 1382 m 1
 315 260 l 1
 510 295 662 514 662 819 c 1
 662 823 662 825 662 829 c 0
 662 1110 487 1341 315 1382 c 1
EndSplineSet
EndChar
StartChar: uniE0C9
Encoding: 57545 57545 35
Width: 978
VWidth: 0
Flags: HW
VStem: 203 113<558 1073> 659 115<260 1382>
LayerCount: 3
Back
SplineSet
716.8 1439.74 m 13
 716.8 204.8 l 21
 450.56 204.8 256 473.088 260.096 819.2 c 5
 256 1146.88 473.088 1439.74 716.8 1439.74 c 13
EndSplineSet
Fore
SplineSet
657 1382 m 1
 485 1341 315 1110 315 829 c 0
 315 825 315 823 315 819 c 1
 315 512 466 295 659 260 c 1
 657 1382 l 1
774 1440 m 2
 774 205 l 2
 774 176 748 154 717 154 c 0
 406 154 203 457 203 809 c 0
 203 813 203 815 203 819 c 0
 203 821 203 825 203 827 c 0
 203 1163 424 1491 717 1491 c 0
 748 1491 774 1469 774 1440 c 2
EndSplineSet
EndChar
StartChar: uniE0CA
Encoding: 57546 57546 52
Width: 478
VWidth: 0
Flags: HW
LayerCount: 2
Back
SplineSet
100 100 m 1
 230 100 323 228 323 400 c 1
 323 560 219 703 100 703 c 1
EndSplineSet
Fore
SplineSet
100 678 m 1
 100 728 l 1
 244 728 350 565 350 400 c 0
 350 223 254 75 100 75 c 1
 100 125 l 1
 206 125 296 233 296 400 c 0
 296 555 194 678 100 678 c 1
EndSplineSet
Validated: 1
EndChar
